<svg width="318" height="40" viewBox="0 0 318 40" fill="none" xmlns="http://www.w3.org/2000/svg">
<path d="M15.3217 0H18.3047L20.203 0.40678L21.6946 1.08475L23.0505 1.89831L24.4064 3.11864L25.6268 4.61017L26.5759 6.50847L27.1183 8.81356V11.661L26.7115 13.4237L25.6268 15.5932L24.6776 16.8136L23.4573 18.0339L21.6946 19.1186L20.0674 19.7966L18.3047 20.2034H15.5929L13.4234 19.661L11.2539 18.5763L9.49116 17.0847L8.27082 15.4576L7.32167 13.5593L6.7793 11.3898V8.54237L7.32167 6.37288L8.40642 4.33898L9.35557 3.11864H9.62675L9.89794 2.57627L11.5251 1.35593L13.559 0.40678L15.3217 0ZM16.2708 0.813559L14.6437 1.08475L12.881 1.76271L12.4742 2.0339L12.7454 2.84746L13.2878 3.38983L13.559 3.11864L14.2369 3.25424L14.6437 3.79661V4.47458L14.3725 4.61017V4.88136L14.7793 5.01695L14.9149 5.9661L14.2369 6.1017V6.64407L13.4234 7.18644L13.0166 7.86441V8.94915L13.4234 9.08475V9.49153L12.4742 9.08475L12.3386 8.81356L12.7454 8.67797L12.3386 8.13559L11.3895 8.27119V9.08475H11.9318V8.81356H12.203V9.76271L12.3386 10.0339L13.8301 10.1695L14.6437 10.7119L15.1861 11.3898L16.1352 11.661L15.864 12.339L15.7284 13.2881L14.7793 14.5085L14.2369 15.1864V16.1356L14.5081 16.678L13.9657 16.4068L13.4234 15.1864L13.2878 14.1017V12.7458L12.4742 11.661L12.6098 10.5763L12.0674 10.3051L11.3895 9.62712L10.7115 9.22034L9.76235 8.27119L9.35557 7.18644V5.28814L8.8132 5.55932L8.27082 6.37288L7.72845 8.13559L7.59286 8.94915V10.8475L7.99964 12.7458L8.6776 14.3729L9.62675 15.8644L10.4403 16.8136H10.7115V17.0847L12.4742 18.3051L14.1013 18.9831L15.864 19.3898H18.0335L20.203 18.8475L22.1013 17.8983L23.4573 16.8136L24.6776 15.4576L25.7623 13.2881L26.1691 12.0678L26.3047 10.4407L25.7623 10.9831L25.6268 11.2542H25.3556L25.22 9.8983L24.542 9.22034L23.7284 8.81356H23.4573L23.5929 9.22034L23.864 9.35593L23.9996 9.8983L23.3217 10.1695L22.9149 10.3051V10.5763L23.3217 10.8475L22.3725 12.0678L22.2369 13.2881L21.4234 14.2373L21.0166 14.7797L20.3386 14.6441L20.203 13.8305L20.0674 11.3898L19.6607 11.2542V10.9831H18.3047L17.7623 10.4407L17.8979 8.40678L18.4403 8.13559V7.05085L18.5759 6.77966L18.9827 6.64407V5.69492H18.3047L18.5759 5.01695L18.9827 5.15254L19.1183 5.69492H19.5251L19.9318 4.88136L19.6607 4.74576L19.7962 4.0678L20.0674 3.52542L20.6098 3.11864L21.2878 3.25424L22.2369 3.38983L22.9149 3.25424L22.6437 2.71186L21.1522 1.76271L19.7962 1.22034L17.7623 0.813559H16.2708ZM13.6946 3.79661L12.7454 4.61017L13.0166 5.15254L13.4234 5.28814L13.9657 4.33898V3.79661H13.6946ZM20.6098 4.20339L20.4742 4.74576V5.15254H20.881L20.7454 4.20339H20.6098ZM21.559 6.64407V7.05085L21.6946 7.18644H22.5081L21.9657 6.64407H21.559ZM19.6607 6.77966L19.2539 7.32203L19.3895 7.59322H20.203L20.4742 8.13559L21.2878 8.40678H21.8301L22.2369 9.76271L22.5081 10.3051H22.6437V9.49153H22.3725L21.9657 7.86441L21.2878 7.45763H20.7454L20.6098 7.05085H20.0674V6.77966H19.6607ZM23.0505 6.77966L23.3217 7.86441H23.5929L23.4573 6.91525L23.0505 6.77966Z" fill="#FDFDFD"/>
<path d="M11.5254 33.0847H13.4237V33.3559L9.08475 33.7627L5.9661 34.3051L3.9322 34.8475L2.30508 35.661L1.89831 36.0678L2.0339 36.7458L2.71186 37.2881L4.33898 37.9661L6.37288 38.5085L10.0339 39.0508L13.1525 39.322H20.8814L25.2203 38.9153L28.7458 38.2373L30.7797 37.5593L32 36.8814L32.1356 36.2034L31.4576 35.5254L30.1017 34.8475L27.3898 34.1695L23.4576 33.6271L20.339 33.3559L20.2034 33.0847H22.3729L26.5763 33.4915L29.1525 33.8983L32 34.7119L33.3559 35.3898L34.0339 36.0678V37.017L33.0847 37.8305L32 38.3729L29.4237 39.0508L25.8983 39.5932L23.1864 39.8644L20.2034 40H13.6949L9.08475 39.7288L5.15254 39.1864L2.84746 38.6441L1.22034 37.9661L0.40678 37.4237L0 36.8814V36.0678L0.677966 35.3898L2.57627 34.4407L5.42373 33.7627L8.27119 33.3559L11.5254 33.0847Z" fill="#EFFDF8"/>
<path d="M11.9321 19.9322L12.6101 20.0678L14.7796 20.7458L15.5931 20.8814H18.305L20.6101 20.339L21.8304 19.9322L21.966 20.2034L19.9321 24.1356L19.1186 26.5763L18.7118 29.9661L18.1694 36.2034L17.627 36.339L17.4915 36.0678V26.9831L17.7626 25.3559L18.5762 23.8644L20.2033 21.6949L16.9491 21.9661L14.5084 21.6949L13.6948 21.4237L15.4576 25.4915L15.7287 26.4407L15.8643 28.339L15.9999 31.5932V36.339L15.7287 36.2034L15.4576 33.2203L15.0508 29.017L14.5084 26.0339L13.8304 24.1356L12.6101 21.9661L11.9321 20.0678V19.9322Z" fill="#FDFDFD"/>
<path d="M8.54201 4.2034L8.6776 4.74577V5.01696L9.21997 4.74577L9.49116 5.01696V6.91526L9.76235 7.59323V8.1356L10.4403 8.2712L10.8471 9.08475L10.5759 9.22035L9.62675 8.2712L9.21997 7.18645V5.42374L8.54201 6.1017L7.99964 7.59323L7.72845 8.94916V10.8475L8.13523 12.7458L8.8132 14.3729L9.76235 15.8644L10.4403 16.678L10.7115 16.8136V17.0848L11.2539 17.3559L12.7454 18.3051L14.5081 18.9831L15.864 19.2542H18.0335L20.203 18.7119L22.1013 17.7627L23.0505 17.0848V17.4915H22.7793L22.6437 17.8983L22.2369 18.0339L22.5081 18.3051L23.0505 18.1695L22.6437 18.5763L20.4742 19.661L18.3047 20.2034H15.5929L13.4234 19.661L11.2539 18.5763L9.49116 17.0848L8.27082 15.4576L7.32167 13.5593L6.7793 11.3898V8.54238L7.32167 6.37289L8.40642 4.33899L8.54201 4.2034Z" fill="#EFFDF8"/>
<path d="M12.61 34.3051H14.3727L14.2371 34.5763L10.1693 35.2543L8.54216 35.7966L8.40656 36.339L9.7625 36.8814L11.7964 37.2882L14.6439 37.5593H19.1184L21.9659 37.2882L24.271 36.8814L25.6269 36.339L25.4913 35.7966L23.8642 35.2543L21.2879 34.8475L19.254 34.5763V34.3051H21.2879L24.4066 34.7119L26.3049 35.2543L26.9828 35.7966L27.1184 36.2034L26.8472 36.7458L25.7625 37.2882L23.593 37.8305L21.4235 38.1017L19.5252 38.2373H14.2371L11.3896 37.9661L8.67775 37.4237L7.45741 36.8814L6.91504 36.339L7.05063 35.661L7.99978 35.1187L10.3049 34.5763L12.61 34.3051Z" fill="#F1FDF8"/>
<path d="M12.7455 2.84749L13.2878 3.25427L13.559 2.98308L14.237 3.11867L14.7794 3.79664V4.47461L14.3726 4.6102V4.88139L14.915 5.01698L15.0506 5.96613L14.3726 6.10173L14.237 6.77969L13.4234 7.32206L13.1523 7.86444V8.94918L13.4234 9.08478V9.49156L12.6099 9.35596L12.3387 8.81359L12.6099 8.678L12.3387 8.27122H11.3895V9.08478H11.9319V8.81359H12.2031L12.3387 10.0339L13.0167 9.89834L14.1014 10.1695L14.7794 10.7119L15.1862 11.2543L16.1353 11.661L15.8641 13.2882L14.915 14.5085L14.3726 15.1865V16.1356L14.5082 16.678L13.9658 16.5424L13.2878 15.1865L13.1523 14.1017V12.7458L12.3387 11.661L12.4743 10.5763L11.9319 10.3051L11.3895 9.76274L10.8472 9.49156L11.1184 8.27122L11.5251 7.86444L12.4743 7.72884V8.00003L12.7455 7.86444L13.1523 6.91529L13.9658 6.50851V5.69495V5.42376L13.6946 5.55935V6.10173L13.1523 6.23732L13.0167 5.15257H13.4234L13.9658 3.79664L13.1523 4.33901L12.8811 4.47461L13.1523 3.66105L12.8811 3.52545V3.11867L12.6099 2.98308L12.7455 2.84749Z" fill="#EFFDF8"/>
<path d="M11.9321 19.9322L12.6101 20.0678L14.7796 20.7458L15.5931 20.8814H18.305L20.6101 20.339L21.0169 20.4746L20.3389 20.6102L20.2033 20.8814L18.5762 21.1525L17.0847 21.2881L16.9491 21.5593H18.5762L20.4745 21.2881V22.1017H20.2033V22.3729L19.7965 22.7797L18.983 23.7288V23.322L20.2033 21.6949L16.9491 21.9661L14.5084 21.6949L13.6948 21.4237L15.4576 25.4915L15.7287 26.4407L15.8643 28.339L15.9999 31.5932V36.339L15.7287 36.2034L15.4576 33.2203L15.0508 29.017L14.5084 26.0339L13.8304 24.1356L12.6101 21.9661L11.9321 20.0678V19.9322Z" fill="#EFFDF8"/>
<path d="M19.6607 7.72885L20.203 7.86444L20.3386 8.40682L21.559 8.54241L21.8302 8.94919V9.76275L22.2369 9.89834L22.5081 10.4407L23.0505 10.9831L22.3725 11.6611L22.2369 13.1526L21.6946 13.4238L21.1522 14.5085L20.6098 14.6441L20.3386 14.5085L20.203 13.2882V10.9831H19.9318V10.5763L18.8471 10.9831L18.1691 10.7119L17.8979 9.89834L18.0335 8.8136L18.3047 8.40682L19.1183 8.00004L19.6607 7.72885Z" fill="#FDFDFD"/>
<path d="M16.9492 0.406784L18.034 0.542377L19.5255 0.813564V1.08475H20.6102L21.1526 1.35594L21.2882 1.62712L22.1018 1.76272L22.5085 2.1695H22.7797L22.5085 1.89831H23.0509L23.1865 2.44068L23.3221 3.11865L23.0509 3.52543L22.2374 3.66102L20.4747 3.52543L20.2035 3.79661L20.3391 4.0678L20.7458 3.93221L21.1526 4.33899L21.017 5.28814L20.4747 5.55933L19.9323 5.42373L19.2543 6.1017V6.37289V6.77967L20.2035 6.64407L20.6102 7.05085H20.0679V6.77967L19.6611 6.91526L19.3899 7.45763H20.2035L20.4747 8.1356H21.1526L21.8306 8.40678L22.5085 10.1695L22.7797 9.76272L23.3221 9.89831L23.7289 9.49153L22.9153 9.35594V9.08475L23.1865 8.94916L23.3221 8.54238L23.7289 8.67797L23.4577 8.81356L24.0001 9.35594V9.89831L23.3221 10.3051H22.9153V10.5763L23.4577 10.7119L22.9153 11.5254L22.5085 12.0678L22.373 13.2881L21.5594 14.2373L21.017 14.9153L20.3391 14.7797L20.0679 13.8305L19.9323 11.3898L19.6611 11.2542V10.9831L18.3052 11.1186L17.6272 10.4407L17.7628 8.67797L18.3052 8.1356V7.05085L18.5763 6.64407H18.9831L18.8475 5.83051L18.3052 5.69492L18.4408 5.01695H18.9831L19.1187 5.69492H19.5255L19.7967 5.01695L19.5255 4.74577L19.6611 4.0678L20.0679 3.38983L20.6102 2.98306L21.2882 3.11865L22.2374 3.25424H22.9153L22.2374 2.57628L20.8814 1.76272L18.7119 1.08475L17.7628 0.949157H16.2713L14.6441 1.22034L12.8814 1.89831L12.6102 2.0339L12.4747 2.57628L12.0679 2.1695V1.76272L13.2882 1.35594L14.7797 0.813564L16.9492 0.406784ZM20.6102 4.20339L20.4747 4.74577V5.15255H20.8814L20.7458 4.20339H20.6102ZM19.6611 7.72882L18.3052 8.40678L18.034 8.81356L17.8984 10.1695L18.3052 10.8475L18.9831 10.9831L19.9323 10.5763V10.9831H20.2035V13.6949L20.3391 14.5085L20.8814 14.6441L21.2882 14.3729L21.8306 13.2881L22.2374 13.1525L22.373 11.661L23.0509 10.9831L22.373 10.3051L22.1018 9.76272H21.8306V8.94916L21.5594 8.54238H20.7458L20.3391 8.40678L20.0679 7.72882H19.6611Z" fill="#EFFDF8"/>
<path d="M11.5254 33.0847H13.4237V33.3559L9.08475 33.7627L5.9661 34.3051L3.9322 34.8475L2.30508 35.661L1.89831 36.0678H1.62712L2.0339 37.017L2.16949 37.4237L2.84746 37.5593L3.25424 37.9661L5.01695 38.3729L5.15254 38.9153L4.47458 39.0508L2.0339 38.3729L0.542373 37.5593L0 36.8814V36.0678L0.677966 35.3898L2.57627 34.4407L5.42373 33.7627L8.27119 33.3559L11.5254 33.0847Z" fill="#EFFDF8"/>
<path d="M20.2031 33.0847H22.3726L26.576 33.4915L29.1523 33.8983L31.9997 34.7119L33.3557 35.3898L33.7624 35.7966L33.898 36.8814L33.3557 37.1525V37.4237L31.8641 38.2373L30.1014 38.6441H29.4235L28.8811 38.9153H28.6099L28.8811 38.3729H29.8302V38.1017L31.593 37.4237H31.8641L32.1353 36.2034L31.4574 35.5254L30.1014 34.8475L27.3896 34.1695L23.4574 33.6271L20.3387 33.3559L20.2031 33.0847Z" fill="#EFFDF8"/>
<path d="M12.7455 10.0339L13.9658 10.3051V10.5763L14.5082 10.7119L14.6438 11.1187L15.3217 11.5254L15.7285 11.661L15.8641 12.2034L15.4573 13.8305L15.0505 14.3729H14.5082L14.3726 14.6441L14.1014 15.0509L13.9658 15.7288H13.6946L13.4234 14.9153V12.6102L13.1522 12.0678L12.7455 11.9322L12.6099 11.2542L12.7455 10.5763L12.6099 10.1695L12.7455 10.0339Z" fill="#FDFDFD"/>
<path d="M11.9321 19.9322L12.6101 20.0678L13.1525 20.6102L14.644 21.017L14.1016 21.2881H13.4237L13.6948 22.1017V22.3729L14.1016 22.7797L14.3728 23.5932L15.322 25.6271L15.5931 27.3898L15.7287 29.2881V31.0508L15.4576 30.6441L15.0508 27.3898L14.9152 26.0339L14.1016 24.4068V24.1356L13.6948 24L12.6101 21.9661L11.9321 20.0678V19.9322Z" fill="#FBFDFC"/>
<path d="M16.6776 1.22037H17.4911L17.8979 1.49155L18.0335 2.30511L17.6267 2.98308L17.8979 3.38986V3.79664L17.2199 3.93223L16.8132 3.79664L16.542 4.74579L15.9996 4.88138L15.5928 4.20342L15.7284 3.25427L15.864 2.98308L15.3216 2.84749L15.186 2.44071L15.5928 2.03393L16.6776 1.22037Z" fill="#FDFDFD"/>
<path d="M19.6607 24.1356L19.7963 24.5424L19.1183 26.5763L18.7115 29.9661L18.1692 36.2034L17.6268 36.339L17.4912 36.0678V26.983L17.7624 25.3559L18.0336 25.0847L17.898 26.7119L17.7624 33.2203L17.898 34.5763L18.0336 34.0339L18.1692 31.4576L18.3048 30.7797L18.4404 27.7966L18.9827 25.8983L19.3895 24.5424L19.6607 24.1356Z" fill="#EFFDF8"/>
<path d="M21.9658 6.37289L22.7794 6.64408L22.9149 6.91527V6.50849L23.4573 6.64408L23.8641 7.18645L23.9997 7.59323V8.13561H23.7285L23.5929 8.54239L23.3217 8.67798V9.08476H22.9149V9.35595L23.7285 9.49154L23.5929 9.89832L22.9149 10.0339L22.6438 9.49154H22.3726L21.9658 8.54239L21.8302 7.86442L20.6099 7.45764V7.05086L21.2878 7.18645L21.0166 6.77967L21.9658 6.37289ZM21.559 6.64408V7.05086L21.6946 7.18645H22.5082L21.9658 6.64408H21.559ZM23.0505 6.77967L23.3217 7.86442H23.5929L23.4573 6.91527L23.0505 6.77967Z" fill="#F9FDFC"/>
<path d="M32.2709 35.2543L32.9488 35.3899L33.22 35.5254V35.7966H33.7624L33.898 36.8814L33.3556 37.1526V37.4237L31.8641 38.2373L30.1014 38.6441H29.4234L28.881 38.9153H28.6099L28.881 38.3729H29.8302V38.1017L31.5929 37.4237H31.8641L31.9997 37.017L32.4065 36.4746L32.1353 35.5254L32.2709 35.2543Z" fill="#FDFDFD"/>
<path d="M0.948962 35.3898H1.62693L1.76252 36.0678L1.89811 36.8814L2.1693 37.4237L2.84727 37.5593L3.25405 37.9661L5.01676 38.3729L5.15235 38.6441L4.47439 38.7797L3.38964 38.5085L1.89811 37.9661L0.542183 37.2881L0.270996 36.6102L0.406589 35.9322L0.948962 35.3898Z" fill="#FDFDFD"/>
<path d="M8.13574 36.2034L9.22049 36.7458L11.7968 37.2881L16.5425 37.6949V37.8305L15.4578 37.9661L17.0849 38.1017V38.2373H14.2374L11.39 37.9661L10.034 37.6949L10.1696 37.4237L10.5764 37.2881L9.22049 37.1526L8.13574 36.6102V36.2034Z" fill="#EFFDF8"/>
<path d="M21.5594 18.3051L21.8306 18.4407V18.8475L21.2882 19.1186H20.6102V19.3898L19.3899 19.7966L17.4916 20.0678H16.1357L14.1018 19.661L12.3391 18.9831L12.0679 18.5763L12.6102 18.4407L14.2374 19.2542L16.1357 19.5254V19.7966L18.7119 19.3898H19.6611L19.7967 19.1186L21.017 18.5763L21.5594 18.3051Z" fill="#FEFEFE"/>
<path d="M25.4914 13.6949L25.627 14.1017L24.949 15.4577L25.3558 15.7288L25.0846 16.4068L23.4575 18.0339L22.3727 18.4407L22.1016 18.0339L22.6439 17.7627L23.0507 17.356L23.4575 16.678L24.5422 15.4577L25.4914 13.6949Z" fill="#F5FDFA"/>
<path d="M7.05063 8.00002L7.45741 8.13561V11.2543L7.99978 13.017L7.86419 13.2882H8.13538L8.67775 14.7797L8.81334 15.4576L8.40656 15.3221L8.27097 14.6441H7.99978L7.7286 13.8305V13.2882H7.45741L7.05063 12.0678L6.91504 9.76273L7.05063 8.00002Z" fill="#FDFDFD"/>
<path d="M14.1013 23.3221L14.508 23.7288L15.186 25.356L15.4572 26.0339L15.5928 27.9322L15.7284 29.2882V31.0509L15.4572 30.6441L15.0504 27.3898L14.9148 26.0339L13.9657 24.1356L13.8301 23.5932H14.1013V23.3221Z" fill="#FDFDFD"/>
<path d="M16.6776 1.22037H17.4911L17.8979 1.49155L18.0335 2.30511L17.6267 2.98308L17.8979 3.38986V3.79664L17.2199 3.93223L16.8132 3.79664L16.542 4.74579L15.9996 4.88138L15.5928 4.20342L15.7284 3.25427L15.864 2.98308L15.3216 2.84749L15.186 2.44071L15.5928 2.03393L16.6776 1.22037ZM16.6776 1.49155L15.864 2.16952L15.7284 2.5763L15.9996 3.11867L15.864 4.47461L16.2708 4.74579L16.8132 3.79664L17.6267 3.52545L17.4911 3.11867H17.2199V2.5763L17.6267 2.44071V1.76274H17.3555V1.49155H16.6776Z" fill="#EFFDF8"/>
<path d="M19.2539 34.3051H21.2878L24.4064 34.7119L25.6268 35.1187L25.4912 35.5254L24.4064 35.3898L22.5081 34.9831L19.2539 34.5763V34.3051Z" fill="#EFFDF8"/>
<path d="M8.81348 15.4576L9.35585 15.5932L10.0338 16.678H10.4406L10.983 17.6271L11.6609 17.8983L11.9321 18.0339V18.3051L11.1186 18.4407L9.62704 17.2204L8.81348 16.2712V15.4576Z" fill="#FDFDFD"/>
<path d="M18.3047 0.13562H19.2538L21.5589 0.949179L22.6437 1.62715L22.9149 2.4407L21.9657 2.03393L21.1521 1.62715V1.35596L19.525 1.08477L19.3894 0.677993L18.9827 0.406807L18.3047 0.271213V0.13562Z" fill="#F8FDFB"/>
<path d="M24.8135 3.7966L25.4914 4.47457L26.1694 5.55931L26.8474 7.45762L27.1186 8.81355V11.661L26.7118 13.4237L26.4406 13.6949L26.7118 12.2034L26.8474 10.8474L26.7118 8.27118L25.8982 5.8305L25.3558 4.88135L24.8135 4.06779V3.7966Z" fill="#EFFDF8"/>
<path d="M12.6099 34.3051H14.3726L14.237 34.5763L10.1692 35.2543L9.22007 35.3898L9.08447 35.1187H9.35566V34.8475L10.3048 34.5763L12.6099 34.3051Z" fill="#EFFDF8"/>
<path d="M21.9662 6.37289L22.7798 6.64408L22.9154 6.91527V6.50849L23.4578 6.64408L23.8645 7.18645L24.0001 7.59323V8.13561H23.729V8.40679H23.4578V8.13561H23.1866L23.051 7.18645H22.7798L22.6442 7.86442L22.2374 7.59323V7.32205L21.2883 7.18645L21.0171 6.77967L21.9662 6.37289ZM21.5595 6.64408V7.05086L21.6951 7.18645H22.5086L21.9662 6.64408H21.5595ZM23.051 6.77967L23.3222 7.86442H23.5934L23.4578 6.91527L23.051 6.77967Z" fill="#EFFDF8"/>
<path d="M12.2035 18.4407L12.7458 18.5763L13.9662 19.1187L14.2374 19.2543L16.1357 19.5255V19.7966H17.0848V19.9322L16.1357 20.0678L14.1018 19.661L12.3391 18.9831L12.0679 18.5763L12.2035 18.4407Z" fill="#FEFEFE"/>
<path d="M23.9997 8.67799L24.1353 8.94918L24.9489 9.22037L25.3556 9.62715L25.6268 10.5763L25.7624 10.7119L26.0336 10.0339L26.4404 10.1695L26.576 11.1187L25.898 13.5594L25.6268 13.6949L25.898 12.4746L26.1692 10.9831V10.5763L25.6268 11.3899L25.22 11.2543L25.0844 9.89833L24.5421 9.35596L23.7285 8.94918L23.9997 8.67799Z" fill="#EFFDF8"/>
<path d="M12.6099 20.2034L13.2878 20.339L15.9997 21.017L15.8641 21.5593H14.7794L14.3726 21.2882H14.6438V21.017L13.4234 20.8814L12.6099 20.339V20.2034Z" fill="#EFFDF8"/>
<path d="M12.7455 2.84746L13.2878 3.25424L13.559 2.98305L14.237 3.11864L14.6438 3.66102L14.5082 4.33898H14.1014L13.9658 3.9322L13.2878 4.20339L12.881 4.47458L13.1522 3.66102L12.881 3.52542V3.11864L12.6099 2.98305L12.7455 2.84746Z" fill="#F2FDF9"/>
<path d="M7.864 35.3898L8.27078 35.5254L8.13519 36.6102L9.08434 36.8814L9.21993 37.1525L8.81315 37.2881L7.32163 36.6102L7.18604 35.9322L7.45722 35.661H7.864V35.3898Z" fill="#FDFDFD"/>
<path d="M16.542 37.6949H18.0335V37.9661L18.5759 37.8305L18.4403 38.2373L14.9149 38.1017L14.7793 37.8305H15.864L16.542 37.6949Z" fill="#F6FDFB"/>
<path d="M21.6945 19.9322L21.9657 20.2034L19.9318 24.1356L19.6606 23.5932L19.7962 23.322H20.0674L20.3386 22.6441L21.1522 21.017V20.7458H21.4234V20.339L21.0166 20.2034L21.6945 19.9322Z" fill="#EFFDF8"/>
<path d="M8.81348 15.4576L9.35585 15.5932L9.62704 16.2712L10.1694 17.3559L10.4406 17.4915L10.305 17.7627L9.35585 16.9492L8.81348 16.2712V15.4576Z" fill="#FAFDFC"/>
<path d="M8.40618 5.15254L8.67737 5.69491L8.135 7.05085H7.86381V6.77966H7.45703L7.59262 6.23729H7.9994L8.135 5.42373L8.40618 5.15254Z" fill="#F6FDFB"/>
<path d="M18.3047 0.13562H19.2538L20.4742 0.5424L20.6098 1.08477L19.9318 1.22037L19.525 1.08477L19.3894 0.677993L18.9827 0.406807L18.3047 0.271213V0.13562Z" fill="#F6FDFA"/>
<path d="M7.45703 36.6102L8.94856 37.1526H9.89771L10.5757 37.2881L10.4401 37.5593L9.76212 37.6949L7.9994 37.1526L7.45703 36.8814V36.6102Z" fill="#F3FDF9"/>
<path d="M23.5931 16.8136L23.8643 17.3559L23.1863 17.8983L22.7795 18.3051L22.3727 18.4407L22.1016 18.0339L22.6439 17.7627L23.3219 17.0848L23.5931 16.8136Z" fill="#FEFEFE"/>
<path d="M21.5591 18.3051L21.8302 18.4407V18.8475L21.2879 19.1186H20.6099V19.3898L20.2031 19.5254V19.1186L21.2879 18.4407L21.5591 18.3051Z" fill="#FDFDFD"/>
<path d="M22.9151 13.017L23.3219 13.1526L22.9151 14.3729L22.5083 14.5085L22.6439 13.2882L22.9151 13.017Z" fill="#EFFDF8"/>
<path d="M26.1693 35.7966L26.7117 35.9322L26.5761 36.6102L25.8981 36.8813H25.627V36.6102H25.8981L26.0337 35.9322L26.1693 35.7966Z" fill="#FCFDFD"/>
<path d="M10.4404 17.7627H11.5252L11.932 18.0339V18.3051L11.1184 18.4407L10.4404 17.7627Z" fill="#F8FDFB"/>
<path d="M13.83 5.28815L14.2368 5.55933L14.1012 6.50849L13.5588 6.64408V6.37289L13.2876 6.2373L13.6944 6.10171L13.5588 5.55933L13.83 5.28815Z" fill="#FEFEFE"/>
<path d="M11.9321 19.9322L12.6101 20.0678L12.4745 20.8814L12.7457 21.1525L12.8813 22.1017L12.6101 21.9661L11.9321 20.0678V19.9322Z" fill="#EFFDF8"/>
<path d="M30.6434 34.5763L31.457 34.7119L32.2705 34.9831V35.2543L31.8637 35.3899L30.9146 34.9831L30.5078 34.7119L30.6434 34.5763Z" fill="#FDFDFD"/>
<path d="M9.08447 16.4068L9.62685 16.5424L10.1692 17.2203L10.4404 17.7627L9.76244 17.3559L9.08447 16.5424V16.4068Z" fill="#F0FDF8"/>
<path d="M26.169 13.695H26.4402L26.3046 14.3729L25.6267 15.5933L25.3555 15.3221L25.8978 14.3729L26.169 13.695Z" fill="#EFFDF8"/>
<path d="M22.9152 9.35594L23.7288 9.49153L23.5932 9.89831L22.9152 10.0339L22.644 9.62713L22.9152 9.35594Z" fill="#FEFEFE"/>
<path d="M14.7798 21.017L16.0002 21.1525L15.8646 21.5593H14.7798L14.373 21.2881L14.7798 21.017Z" fill="#FCFDFD"/>
<path d="M18.5759 4.88136L19.1182 5.15255L18.8471 5.69492H18.3047L18.4403 5.01696L18.5759 4.88136Z" fill="#F1FDF9"/>
<path d="M23.1865 2.16948L23.7289 2.44067L24.8136 3.52541L24.678 3.7966L23.3221 2.44067L23.1865 2.16948Z" fill="#EFFDF8"/>
<path d="M96.2604 12.4633L97.8064 13.2363L104.377 29.4692L105.923 31.7882L107.082 32.1747V32.9477H99.3524V32.1747L101.285 31.7882L100.898 29.4692L100.125 27.5367V26.3772H92.0089L90.8494 31.0152L91.2359 31.7882L92.7819 32.1747V32.9477H81.1869L77.322 28.6962L74.6165 25.2177L71.911 24.4447L72.2975 30.6287L73.457 31.7882L74.6165 32.5612L74.23 32.9477H66.5V32.1747L68.4325 31.4017L68.819 28.3097L68.4325 14.3958L66.8865 12.8498H77.7085L80.4139 14.3958L81.9599 16.7148V20.5797L79.641 23.2852L78.095 23.6717L79.641 25.9907L82.7329 30.2422L85.4384 31.7882H87.3709L88.9169 29.4692L94.3279 15.9418L95.8739 12.8498L96.2604 12.4633ZM72.684 14.0093L71.911 14.7823V22.8987H75.776L77.7085 21.7392L78.868 19.8067V17.1013L77.322 14.7823L75.776 14.0093H72.684ZM95.8739 17.1013L93.9414 21.3527L92.7819 24.8312H98.9659L98.5794 22.5122L96.2604 17.1013H95.8739Z" fill="#EFFDF8"/>
<path d="M272.117 12.4633L277.142 12.8498L281.78 21.3527L285.258 27.5367L286.418 25.9907L292.988 13.2363L293.375 12.8498H298.786V13.6228L296.853 14.3958L296.467 14.7823V30.6287L297.626 31.7882L298.399 32.1747V32.9477H290.669V32.1747L292.602 31.4017L292.988 29.4692V19.4202H292.215L286.804 29.8557L285.258 32.5612H284.099L279.461 24.0582L276.755 19.0337V29.8557L277.142 31.7882L279.074 32.1747L278.688 32.9477H272.117V32.1747L274.05 31.7882V14.7823L273.277 14.0093L271.731 13.6228L272.117 12.4633Z" fill="#EFFDF8"/>
<path d="M171.628 7.05229H192.499V13.6228L191.339 12.4633L189.793 10.1443L188.634 9.37128L183.996 8.98478L184.382 31.0152L187.088 32.1747L186.701 32.9477H177.039V32.1747L179.744 31.0152L180.131 8.98478L175.493 9.37128L173.947 10.1443L172.014 13.6228H171.241V9.37128L171.628 7.05229Z" fill="#FDFDFD"/>
<path d="M238.105 7.05229H258.59L258.976 7.82529L259.363 13.2363H258.203L256.271 10.1443L255.111 9.37128L250.473 8.98478L250.86 30.6287L251.246 31.4017L253.565 32.1747V32.9477H243.903L243.516 32.1747L246.222 31.0152L246.608 8.98478L241.97 9.37128L240.038 10.9173L238.492 13.6228L237.719 12.8498L238.105 7.05229Z" fill="#FDFDFD"/>
<path d="M44.0831 7.05229H64.181L64.5675 7.43879L64.954 12.8498L63.7945 13.2363L62.2485 10.1443L61.089 9.37128L56.0645 8.98478L56.451 30.6287L57.6105 31.7882L59.1565 32.1747V32.9477H49.494V32.1747L51.813 31.0152L52.1995 29.4692V8.98478L47.5615 9.37128L45.6291 11.3038L44.0831 13.6228H43.3101L43.6966 7.43879L44.0831 7.05229Z" fill="#FDFDFD"/>
<path d="M194.044 12.8498H208.731V17.1013H207.958L206.799 14.7823L206.026 14.3958H199.842L199.455 21.7392H202.547L204.866 21.3527L206.026 19.0338L206.799 20.1933V25.6042H205.639L205.253 23.6717H199.842V30.6287L200.228 31.0152H206.412L208.345 29.4692L209.118 27.9232H209.891L209.504 32.5612L209.118 32.9477H194.431L194.044 32.1747L195.977 31.4017L196.363 15.5553L195.59 14.0093L194.044 13.2363V12.8498Z" fill="#EFFDF8"/>
<path d="M301.491 12.8498H316.178V17.1013H315.405L314.246 14.7823L313.473 14.3958H307.289L306.902 22.1257L311.927 21.3527L313.086 19.4203L313.859 19.8068V25.6042H312.7L312.313 23.6717L306.902 23.2852L307.289 31.0152H313.859L315.792 29.4692L316.565 27.9232H317.338V30.6287L316.565 32.9477H301.491V32.1747L303.424 31.0152V15.1688L302.651 14.0093L301.491 13.6228V12.8498Z" fill="#EFFDF8"/>
<path d="M225.737 12.4633L227.283 12.8498V17.1013H226.51L225.351 14.7823L224.578 14.3958H218.394L218.78 21.7392H221.486L223.418 21.3527L224.191 19.4202L225.351 19.8067V25.6042H224.191L223.805 23.6717L218.394 23.2852L218.78 31.0152H224.964L226.897 29.8557L228.056 27.9232H228.829L228.443 32.5612L228.056 32.9477H213.369L212.983 32.1747L214.915 31.7882V14.7823L212.983 13.6228V12.8498L225.737 12.4633Z" fill="#F0FDF8"/>
<path d="M127.953 12.8498H142.64V17.1013L141.481 16.7148L140.708 14.7823L139.935 14.3958H133.751L133.364 22.1257L138.389 21.3527L139.162 19.4203H140.321V25.6042H139.162L138.775 24.0582L138.002 23.6717L133.364 23.2852L133.751 31.4017L140.321 31.0152L142.254 29.4692L143.027 28.3097H143.8L143.413 32.1747L143.027 32.9477H127.953V32.1747L129.886 31.7882V14.7823L127.953 13.6228V12.8498Z" fill="#EFFDF8"/>
<path d="M105.15 12.8498H113.653V13.6228L111.72 14.3958L112.107 17.1013L116.358 27.1502V28.3097H117.131L118.291 24.4447L121.383 16.7148V14.0093L119.837 13.2363V12.8498H126.794V13.6228L124.861 14.3958L122.929 18.2608L117.904 30.6287L116.745 32.9477H115.199L109.015 18.2608L107.082 14.3958L105.15 12.8498Z" fill="#FBFDFC"/>
<path d="M146.505 12.8498H154.235L153.849 13.6228L152.303 14.3958V31.0152H158.1L159.646 30.2422L160.806 27.9232H161.579V31.7882L161.192 32.9477H146.892V32.1747L148.438 31.7882V15.1688L146.505 12.8498Z" fill="#EFFDF8"/>
<path d="M262.455 12.4633L269.412 12.8498L269.025 13.6228L267.093 14.3958V31.7882L269.025 32.1747V32.9477H261.295V32.1747L263.228 31.7882V14.7823L262.841 14.0093L261.295 13.2363L262.455 12.4633Z" fill="#FEFEFE"/>
<path d="M171.628 7.05229H192.499V13.6228L191.339 12.4633L189.793 10.1443L188.634 9.37128L183.996 8.98478L184.382 31.0152L187.088 32.1747L186.701 32.9477H177.039V32.1747L179.744 31.0152L180.131 8.98478L175.493 9.37128L173.947 9.75778L175.106 8.59829L178.585 8.21179L180.517 8.59829L180.904 12.4633L181.29 29.4692L180.131 32.1747H183.223V9.75778L183.996 8.21179H188.634L190.566 8.98478H191.339V10.1443L191.726 7.82529H172.401V10.1443H173.56L172.787 12.0768L172.014 13.6228H171.241V9.37128L171.628 7.05229Z" fill="#EFFDF8"/>
<path d="M96.2606 12.4633L97.8066 13.2363L104.377 29.4692L105.923 31.7882L107.083 32.1747V32.9477H99.3526V32.1747L101.285 31.7882L100.899 29.4692L100.126 27.5367V25.9907H98.5796V25.2177L99.3526 24.4447L97.4201 19.8067L96.6471 16.3283L95.1011 15.9418L95.4876 13.2363L96.2606 12.4633Z" fill="#FDFDFD"/>
<path d="M272.117 12.4633L277.142 12.8498L277.915 14.7823L276.755 13.6228H275.209V16.3283L275.596 17.4878L277.142 17.1013L277.915 19.0337L279.074 20.5797V22.1257L280.234 22.5122L280.62 25.2177L279.461 24.0582L276.755 19.0337V29.8557L277.142 31.7882L279.074 32.1747L278.688 32.9477H272.117V32.1747L274.05 31.7882V14.7823L273.277 14.0093L271.731 13.6228L272.117 12.4633Z" fill="#EFFDF8"/>
<path d="M225.737 12.4633L227.283 12.8498V17.1013H226.51L225.351 14.7823L224.578 14.3958H218.394L218.78 21.7392H221.486L223.418 21.3527L224.191 19.4202L225.351 19.8067V25.6042H224.191L223.805 23.6717L218.007 23.2852L217.621 21.7392L217.234 14.0093L217.621 13.6228L215.688 13.2363L216.075 14.7823V29.0827H215.302L214.915 14.7823L212.983 13.6228V12.8498L225.737 12.4633Z" fill="#EFFDF8"/>
<path d="M274.436 13.2363H276.755L278.688 15.5553L283.326 24.0582L284.485 27.5367L286.031 29.4692L285.644 31.0152L284.098 31.4017L279.847 23.6717V22.5122L279.074 22.1257L277.915 19.4202L276.755 17.4878L275.209 17.8743L274.823 14.3958L275.209 13.6228L274.436 13.2363Z" fill="#FDFDFD"/>
<path d="M293.761 13.2363H296.08V31.4017L296.467 32.5612H292.988L293.761 28.6962L293.375 17.1013H292.602L291.829 19.0337L291.056 18.2607L292.215 14.7823L293.761 13.2363Z" fill="#FDFDFD"/>
<path d="M119.837 12.8498H126.794V13.6228L124.861 14.3958L122.929 18.2608L117.904 30.6287L116.745 32.9477H115.199L113.653 29.4692L114.039 28.3097L115.972 31.4017L116.745 31.0152L117.131 29.4692H116.358L115.585 27.9232V26.7637L114.812 26.3772L115.585 25.6042L116.358 27.1502V28.3097H117.131L118.291 24.4447L121.383 16.7148V14.0093L119.837 13.2363V12.8498Z" fill="#EFFDF8"/>
<path d="M130.272 13.2363H132.205L132.978 14.7823V31.0152L133.751 32.5612H131.045L130.659 31.4017V21.7392L130.272 13.2363Z" fill="#FEFEFE"/>
<path d="M304.197 13.2363H306.902L306.516 14.3958V22.1257V23.2852V30.6287L306.902 32.5612H304.197L303.81 31.4017V13.6228L304.197 13.2363Z" fill="#FEFEFE"/>
<path d="M196.75 13.2363H200.615L199.455 14.3958L199.069 21.3527L199.842 22.8987L199.455 23.2852V31.0152L200.615 32.5612H196.75L197.136 28.6962V14.7823L197.523 14.0093H196.75V13.2363Z" fill="#FDFDFD"/>
<path d="M148.824 13.2363H151.916L151.53 15.1688V30.6287L152.303 32.1747L150.37 32.5612L149.211 32.1747L148.824 13.2363Z" fill="#FDFDFD"/>
<path d="M206.026 19.0338L206.799 20.1932V25.6042H205.639L205.253 23.6717H199.842V30.6287L200.228 31.0152H206.412L208.345 29.4692L209.118 27.9232H209.891L209.504 32.5612L209.118 32.9477H204.48L201.001 32.5612L199.069 31.0152V23.2852V22.1257V21.7392H202.547L204.866 21.3527L206.026 19.0338Z" fill="#F2FDF9"/>
<path d="M243.516 8.21179L246.995 8.59829L247.381 11.6903L247.768 29.4692L246.995 32.1747H250.473L249.7 30.2422L250.087 8.98479H250.473L250.86 30.6287L251.246 31.4017L253.565 32.1747V32.9477H243.903L243.516 32.1747L246.222 31.0152L246.608 8.98479L241.197 9.37129V8.59829L243.516 8.21179Z" fill="#EFFDF8"/>
<path d="M69.5918 13.2363H71.9108L71.5243 22.8987L71.9108 24.0582L71.5243 27.5367L71.9108 32.1747L71.5243 32.5612H69.5918L69.2053 31.4017L69.5918 26.7637L69.2053 15.1688L68.8188 13.6228L69.5918 13.2363Z" fill="#FEFEFE"/>
<path d="M47.9481 8.21179H52.1996L52.9726 8.98479V30.6287L52.5861 32.1747H55.2915L56.451 32.5612L55.678 31.0152L55.2915 14.0093L55.678 8.59829L56.451 8.21179H60.7025L61.862 8.59829L62.2485 9.75779L61.089 9.37129L56.0645 8.98479L56.451 30.6287L57.6105 31.7882L59.1565 32.1747V32.9477H49.4941V32.1747L51.8131 31.0152L52.1996 29.4692V8.98479L46.7886 9.37129L47.9481 8.21179Z" fill="#EFFDF8"/>
<path d="M262.455 12.4633L269.412 12.8498L269.025 13.6228L267.093 14.3958V31.7882L269.025 32.1747V32.9477H261.295V32.1747L263.228 31.7882V14.7823L262.841 14.0093L261.295 13.2363L262.455 12.4633ZM264.001 13.2363L263.614 14.0093H264.387L264.001 30.6287L263.614 32.1747L266.32 32.5612L266.706 31.7882L266.32 28.3097V14.3958L266.706 13.2363H264.001Z" fill="#EFFDF8"/>
<path d="M215.688 13.2363H218.78L217.621 14.7823L218.007 23.2852L217.621 25.2177V29.8557L215.688 29.4692V13.2363Z" fill="#FDFDFD"/>
<path d="M238.105 7.05229H258.59L258.976 7.82529L259.363 13.2363H258.203L256.271 10.1443L255.111 9.37128L250.473 8.98478L250.86 8.21179H254.338L257.044 8.98478L257.817 10.5308L258.203 9.37128L257.044 7.82529L239.265 7.43879V8.21179H238.492L238.878 10.5308L240.038 9.37128L241.197 9.75778L239.651 11.6903L238.492 13.6228L237.719 12.8498L238.105 7.05229Z" fill="#EFFDF8"/>
<path d="M44.0831 7.05229H64.181L64.5675 7.43879L64.954 12.8498L63.7945 13.2363L62.2485 9.75778L63.408 9.37128V7.43879H44.4696L45.2426 9.37128L46.402 8.98478V10.1443L44.0831 13.6228H43.3101L43.6966 7.43879L44.0831 7.05229Z" fill="#EFFDF8"/>
<path d="M289.51 21.3527L290.283 21.7392L289.123 25.2177L286.031 31.4017L284.485 32.9477L282.553 29.8557L280.62 25.9907L281.007 25.2177L282.553 27.9232V28.6962L283.326 29.0827L284.099 31.4017L285.645 30.6287L285.258 29.0827L283.712 27.1502L283.326 24.8312L285.645 27.9232L286.804 26.7637L287.577 24.8312L289.51 21.3527Z" fill="#F0FDF8"/>
<path d="M76.1626 13.6228L80.0276 14.0093L81.5736 15.9418L81.9601 16.7148V20.5797L79.6411 22.1257L78.4816 21.3527L79.2546 20.1932V16.7148L78.4816 15.1688L76.1626 14.0093V13.6228Z" fill="#FAFDFC"/>
<path d="M99.739 19.0338L100.512 19.8067L104.764 30.2422L105.923 31.7882L107.083 32.1747V32.9477H99.3525V32.1747L101.285 31.7882L100.899 29.4692L100.126 27.5367L100.512 26.3772L102.058 30.2422V32.1747H104.377L105.15 32.5612V31.7882H104.377L103.604 29.8557L102.831 29.4692L102.445 27.1502L101.672 25.6042L99.739 20.1932V19.0338Z" fill="#EFFDF8"/>
<path d="M105.15 12.8498H113.653V13.6228L111.72 14.3958L112.107 17.1013L114.426 22.8987L114.039 23.6717L112.88 22.1257L111.334 17.4878L110.174 13.6228H108.242L109.788 17.4878L109.401 19.0338L107.082 14.3958L105.15 12.8498Z" fill="#EFFDF8"/>
<path d="M206.026 19.0338L206.799 20.1932V25.6042H205.64L205.253 23.6717L201.775 23.2852L201.388 22.5122L202.548 21.7392L204.867 21.3527L206.026 19.0338Z" fill="#EFFDF8"/>
<path d="M74.23 23.2852H77.322L78.4815 25.6042L80.0275 27.9232L79.641 29.4692L78.4815 29.8557L77.7085 27.5367L76.1625 25.6042L74.23 24.0582V23.2852Z" fill="#FDFDFD"/>
<path d="M160.806 27.9232H161.579V31.7882L161.192 32.9477L155.008 32.5612L155.781 31.7882L159.646 30.2422L160.806 27.9232Z" fill="#EFFDF8"/>
<path d="M119.837 12.8498H126.794V13.6228L124.861 14.3958L123.702 16.3283L122.542 15.9418L122.929 14.3958L119.837 13.2363V12.8498Z" fill="#F2FDF9"/>
<path d="M218.78 31.4017H224.578L224.964 32.9477H218.007L218.78 32.5612V31.4017Z" fill="#EFFDF8"/>
<path d="M280.62 25.2177L281.78 26.3772L282.553 28.6962L283.326 29.0827L284.099 31.4017L285.645 30.6287L286.418 29.8557L286.031 31.4017L284.485 32.9477L282.553 29.8557L280.62 25.9907V25.2177Z" fill="#EFFDF8"/>
<path d="M278.301 15.5553L279.461 17.1013L283.326 24.0582L282.939 24.8312L280.62 21.3527L279.847 20.5797L279.074 19.0338L278.301 15.5553Z" fill="#EFFDF8"/>
<path d="M96.2606 12.4633L97.8066 13.2363L99.7391 17.8743L99.3526 19.0337L96.6471 13.6228L95.1011 15.1688L95.4876 13.2363L96.2606 12.4633Z" fill="#EFFDF8"/>
<path d="M206.799 13.2363L208.732 13.6228V17.1013H207.959L206.413 13.6228L206.799 13.2363Z" fill="#F4FDFA"/>
<path d="M80.4141 29.0827L80.8006 29.8557L82.3466 30.6287L83.1196 32.5612L80.8006 32.1747L80.4141 31.0152L79.6411 30.6287L80.4141 29.0827Z" fill="#FCFDFD"/>
<path d="M275.209 27.1502H275.982L276.369 32.5612L274.436 32.1747L275.209 31.7882L274.823 29.8557L275.209 27.1502Z" fill="#FDFDFD"/>
<path d="M289.509 21.3527L290.282 21.7392L289.123 25.2177L287.577 26.3772L287.19 25.6042L289.509 21.3527Z" fill="#F9FDFC"/>
<path d="M216.461 30.6287L218.78 31.4017V32.5612H215.688V31.0152L216.461 30.6287Z" fill="#FDFDFD"/>
<path d="M159.26 31.0152L160.419 31.4017L160.033 32.5612H155.008L155.781 31.7882H158.1L159.26 31.0152Z" fill="#FEFEFE"/>
</svg>
