<svg width="261" height="40" viewBox="0 0 261 40" fill="none" xmlns="http://www.w3.org/2000/svg">
<path d="M15.3222 0H18.3052L20.2035 0.40678L21.695 1.08475L23.051 1.89831L24.4069 3.11864L25.6272 4.61017L26.5764 6.50847L27.1188 8.81356V11.661L26.712 13.4237L25.6272 15.5932L24.6781 16.8136L23.4578 18.0339L21.695 19.1186L20.0679 19.7966L18.3052 20.2034H15.5933L13.4239 19.661L11.2544 18.5763L9.49165 17.0847L8.27131 15.4576L7.32216 13.5593L6.77979 11.3898V8.54237L7.32216 6.37288L8.4069 4.33898L9.35606 3.11864H9.62724L9.89843 2.57627L11.5255 1.35593L13.5594 0.40678L15.3222 0ZM16.2713 0.813559L14.6442 1.08475L12.8815 1.76271L12.4747 2.0339L12.7459 2.84746L13.2883 3.38983L13.5594 3.11864L14.2374 3.25424L14.6442 3.79661V4.47458L14.373 4.61017V4.88136L14.7798 5.01695L14.9154 5.9661L14.2374 6.1017V6.64407L13.4239 7.18644L13.0171 7.86441V8.94915L13.4239 9.08475V9.49153L12.4747 9.08475L12.3391 8.81356L12.7459 8.67797L12.3391 8.13559L11.39 8.27119V9.08475H11.9323V8.81356H12.2035V9.76271L12.3391 10.0339L13.8306 10.1695L14.6442 10.7119L15.1866 11.3898L16.1357 11.661L15.8645 12.339L15.7289 13.2881L14.7798 14.5085L14.2374 15.1864V16.1356L14.5086 16.678L13.9662 16.4068L13.4239 15.1864L13.2883 14.1017V12.7458L12.4747 11.661L12.6103 10.5763L12.0679 10.3051L11.39 9.62712L10.712 9.22034L9.76284 8.27119L9.35606 7.18644V5.28814L8.81368 5.55932L8.27131 6.37288L7.72894 8.13559L7.59334 8.94915V10.8475L8.00012 12.7458L8.67809 14.3729L9.62724 15.8644L10.4408 16.8136H10.712V17.0847L12.4747 18.3051L14.1018 18.9831L15.8645 19.3898H18.034L20.2035 18.8475L22.1018 17.8983L23.4578 16.8136L24.6781 15.4576L25.7628 13.2881L26.1696 12.0678L26.3052 10.4407L25.7628 10.9831L25.6272 11.2542H25.3561L25.2205 9.8983L24.5425 9.22034L23.7289 8.81356H23.4578L23.5933 9.22034L23.8645 9.35593L24.0001 9.8983L23.3222 10.1695L22.9154 10.3051V10.5763L23.3222 10.8475L22.373 12.0678L22.2374 13.2881L21.4239 14.2373L21.0171 14.7797L20.3391 14.6441L20.2035 13.8305L20.0679 11.3898L19.6611 11.2542V10.9831H18.3052L17.7628 10.4407L17.8984 8.40678L18.4408 8.13559V7.05085L18.5764 6.77966L18.9832 6.64407V5.69492H18.3052L18.5764 5.01695L18.9832 5.15254L19.1188 5.69492H19.5255L19.9323 4.88136L19.6611 4.74576L19.7967 4.0678L20.0679 3.52542L20.6103 3.11864L21.2883 3.25424L22.2374 3.38983L22.9154 3.25424L22.6442 2.71186L21.1527 1.76271L19.7967 1.22034L17.7628 0.813559H16.2713ZM13.695 3.79661L12.7459 4.61017L13.0171 5.15254L13.4239 5.28814L13.9662 4.33898V3.79661H13.695ZM20.6103 4.20339L20.4747 4.74576V5.15254H20.8815L20.7459 4.20339H20.6103ZM21.5594 6.64407V7.05085L21.695 7.18644H22.5086L21.9662 6.64407H21.5594ZM19.6611 6.77966L19.2544 7.32203L19.39 7.59322H20.2035L20.4747 8.13559L21.2883 8.40678H21.8306L22.2374 9.76271L22.5086 10.3051H22.6442V9.49153H22.373L21.9662 7.86441L21.2883 7.45763H20.7459L20.6103 7.05085H20.0679V6.77966H19.6611ZM23.051 6.77966L23.3222 7.86441H23.5933L23.4578 6.91525L23.051 6.77966Z" fill="#FDFDFD"/>
<path d="M11.5254 33.0847H13.4237V33.3559L9.08475 33.7627L5.9661 34.3051L3.9322 34.8475L2.30508 35.661L1.89831 36.0678L2.0339 36.7458L2.71186 37.2881L4.33898 37.9661L6.37288 38.5085L10.0339 39.0508L13.1525 39.322H20.8814L25.2203 38.9153L28.7458 38.2373L30.7797 37.5593L32 36.8814L32.1356 36.2034L31.4576 35.5254L30.1017 34.8475L27.3898 34.1695L23.4576 33.6271L20.339 33.3559L20.2034 33.0847H22.3729L26.5763 33.4915L29.1525 33.8983L32 34.7119L33.3559 35.3898L34.0339 36.0678V37.017L33.0848 37.8305L32 38.3729L29.4237 39.0508L25.8983 39.5932L23.1864 39.8644L20.2034 40H13.6949L9.08475 39.7288L5.15254 39.1864L2.84746 38.6441L1.22034 37.9661L0.40678 37.4237L0 36.8814V36.0678L0.677966 35.3898L2.57627 34.4407L5.42373 33.7627L8.27119 33.3559L11.5254 33.0847Z" fill="#EFFDF8"/>
<path d="M11.9321 19.9322L12.6101 20.0678L14.7796 20.7458L15.5931 20.8814H18.305L20.6101 20.339L21.8304 19.9322L21.966 20.2034L19.9321 24.1356L19.1186 26.5763L18.7118 29.9661L18.1694 36.2034L17.627 36.339L17.4915 36.0678V26.9831L17.7626 25.3559L18.5762 23.8644L20.2033 21.6949L16.9491 21.9661L14.5084 21.6949L13.6948 21.4237L15.4576 25.4915L15.7287 26.4407L15.8643 28.339L15.9999 31.5932V36.339L15.7287 36.2034L15.4576 33.2203L15.0508 29.0169L14.5084 26.0339L13.8304 24.1356L12.6101 21.9661L11.9321 20.0678V19.9322Z" fill="#FDFDFD"/>
<path d="M8.5425 4.2034L8.67809 4.74577V5.01696L9.22046 4.74577L9.49165 5.01696V6.91526L9.76284 7.59323V8.1356L10.4408 8.2712L10.8476 9.08475L10.5764 9.22035L9.62724 8.2712L9.22046 7.18645V5.42374L8.5425 6.1017L8.00012 7.59323L7.72894 8.94916V10.8475L8.13572 12.7458L8.81368 14.3729L9.76284 15.8644L10.4408 16.678L10.712 16.8136V17.0848L11.2544 17.3559L12.7459 18.3051L14.5086 18.9831L15.8645 19.2542H18.034L20.2035 18.7119L22.1018 17.7627L23.051 17.0848V17.4915H22.7798L22.6442 17.8983L22.2374 18.0339L22.5086 18.3051L23.051 18.1695L22.6442 18.5763L20.4747 19.661L18.3052 20.2034H15.5933L13.4239 19.661L11.2544 18.5763L9.49165 17.0848L8.27131 15.4576L7.32216 13.5593L6.77979 11.3898V8.54238L7.32216 6.37289L8.4069 4.33899L8.5425 4.2034Z" fill="#EFFDF8"/>
<path d="M12.61 34.3051H14.3727L14.2371 34.5763L10.1693 35.2543L8.54216 35.7966L8.40656 36.339L9.7625 36.8814L11.7964 37.2882L14.6439 37.5594H19.1184L21.9659 37.2882L24.271 36.8814L25.6269 36.339L25.4913 35.7966L23.8642 35.2543L21.2879 34.8475L19.254 34.5763V34.3051H21.2879L24.4066 34.7119L26.3049 35.2543L26.9828 35.7966L27.1184 36.2034L26.8472 36.7458L25.7625 37.2882L23.593 37.8305L21.4235 38.1017L19.5252 38.2373H14.2371L11.3896 37.9661L8.67775 37.4238L7.45741 36.8814L6.91504 36.339L7.05063 35.661L7.99978 35.1187L10.3049 34.5763L12.61 34.3051Z" fill="#F1FDF8"/>
<path d="M12.7455 2.84746L13.2878 3.25424L13.559 2.98305L14.237 3.11864L14.7794 3.79661V4.47458L14.3726 4.61017V4.88136L14.915 5.01695L15.0506 5.9661L14.3726 6.1017L14.237 6.77966L13.4234 7.32203L13.1523 7.86441V8.94915L13.4234 9.08475V9.49153L12.6099 9.35593L12.3387 8.81356L12.6099 8.67797L12.3387 8.27119H11.3895V9.08475H11.9319V8.81356H12.2031L12.3387 10.0339L13.0167 9.89831L14.1014 10.1695L14.7794 10.7119L15.1862 11.2542L16.1353 11.661L15.8641 13.2881L14.915 14.5085L14.3726 15.1864V16.1356L14.5082 16.678L13.9658 16.5424L13.2878 15.1864L13.1523 14.1017V12.7458L12.3387 11.661L12.4743 10.5763L11.9319 10.3051L11.3895 9.76271L10.8472 9.49153L11.1184 8.27119L11.5251 7.86441L12.4743 7.72881V8L12.7455 7.86441L13.1523 6.91525L13.9658 6.50847V5.69492V5.42373L13.6946 5.55932V6.1017L13.1523 6.23729L13.0167 5.15254H13.4234L13.9658 3.79661L13.1523 4.33898L12.8811 4.47458L13.1523 3.66102L12.8811 3.52542V3.11864L12.6099 2.98305L12.7455 2.84746Z" fill="#EFFDF8"/>
<path d="M11.9321 19.9322L12.6101 20.0678L14.7796 20.7458L15.5931 20.8814H18.305L20.6101 20.339L21.0169 20.4746L20.3389 20.6102L20.2033 20.8814L18.5762 21.1525L17.0847 21.2881L16.9491 21.5593H18.5762L20.4745 21.2881V22.1017H20.2033V22.3729L19.7965 22.7797L18.983 23.7288V23.322L20.2033 21.6949L16.9491 21.9661L14.5084 21.6949L13.6948 21.4237L15.4576 25.4915L15.7287 26.4407L15.8643 28.339L15.9999 31.5932V36.339L15.7287 36.2034L15.4576 33.2203L15.0508 29.0169L14.5084 26.0339L13.8304 24.1356L12.6101 21.9661L11.9321 20.0678V19.9322Z" fill="#EFFDF8"/>
<path d="M19.6611 7.72882L20.2035 7.86441L20.3391 8.40679L21.5595 8.54238L21.8306 8.94916V9.76272L22.2374 9.89831L22.5086 10.4407L23.051 10.9831L22.373 11.661L22.2374 13.1525L21.695 13.4237L21.1527 14.5085L20.6103 14.6441L20.3391 14.5085L20.2035 13.2881V10.9831H19.9323V10.5763L18.8476 10.9831L18.1696 10.7119L17.8984 9.89831L18.034 8.81357L18.3052 8.40679L19.1188 8.00001L19.6611 7.72882Z" fill="#FDFDFD"/>
<path d="M16.9492 0.406784L18.034 0.542377L19.5255 0.813564V1.08475H20.6102L21.1526 1.35594L21.2882 1.62712L22.1018 1.76272L22.5085 2.1695H22.7797L22.5085 1.89831H23.0509L23.1865 2.44068L23.3221 3.11865L23.0509 3.52543L22.2374 3.66102L20.4746 3.52543L20.2035 3.79661L20.3391 4.0678L20.7458 3.93221L21.1526 4.33899L21.017 5.28814L20.4746 5.55933L19.9323 5.42373L19.2543 6.1017V6.37289V6.77967L20.2035 6.64407L20.6102 7.05085H20.0679V6.77967L19.6611 6.91526L19.3899 7.45763H20.2035L20.4746 8.1356H21.1526L21.8306 8.40678L22.5085 10.1695L22.7797 9.76272L23.3221 9.89831L23.7289 9.49153L22.9153 9.35594V9.08475L23.1865 8.94916L23.3221 8.54238L23.7289 8.67797L23.4577 8.81356L24.0001 9.35594V9.89831L23.3221 10.3051H22.9153V10.5763L23.4577 10.7119L22.9153 11.5254L22.5085 12.0678L22.373 13.2881L21.5594 14.2373L21.017 14.9153L20.3391 14.7797L20.0679 13.8305L19.9323 11.3898L19.6611 11.2542V10.9831L18.3052 11.1186L17.6272 10.4407L17.7628 8.67797L18.3052 8.1356V7.05085L18.5763 6.64407H18.9831L18.8475 5.83051L18.3052 5.69492L18.4408 5.01695H18.9831L19.1187 5.69492H19.5255L19.7967 5.01695L19.5255 4.74577L19.6611 4.0678L20.0679 3.38983L20.6102 2.98306L21.2882 3.11865L22.2374 3.25424H22.9153L22.2374 2.57628L20.8814 1.76272L18.7119 1.08475L17.7628 0.949157H16.2713L14.6441 1.22034L12.8814 1.89831L12.6102 2.0339L12.4747 2.57628L12.0679 2.1695V1.76272L13.2882 1.35594L14.7797 0.813564L16.9492 0.406784ZM20.6102 4.20339L20.4746 4.74577V5.15255H20.8814L20.7458 4.20339H20.6102ZM19.6611 7.72882L18.3052 8.40678L18.034 8.81356L17.8984 10.1695L18.3052 10.8475L18.9831 10.9831L19.9323 10.5763V10.9831H20.2035V13.6949L20.3391 14.5085L20.8814 14.6441L21.2882 14.3729L21.8306 13.2881L22.2374 13.1525L22.373 11.661L23.0509 10.9831L22.373 10.3051L22.1018 9.76272H21.8306V8.94916L21.5594 8.54238H20.7458L20.3391 8.40678L20.0679 7.72882H19.6611Z" fill="#EFFDF8"/>
<path d="M11.5254 33.0847H13.4237V33.3559L9.08475 33.7627L5.9661 34.3051L3.9322 34.8475L2.30508 35.661L1.89831 36.0678H1.62712L2.0339 37.017L2.16949 37.4237L2.84746 37.5593L3.25424 37.9661L5.01695 38.3729L5.15254 38.9153L4.47458 39.0508L2.0339 38.3729L0.542373 37.5593L0 36.8814V36.0678L0.677966 35.3898L2.57627 34.4407L5.42373 33.7627L8.27119 33.3559L11.5254 33.0847Z" fill="#EFFDF8"/>
<path d="M20.2031 33.0847H22.3726L26.576 33.4915L29.1523 33.8983L31.9997 34.7119L33.3557 35.3898L33.7624 35.7966L33.898 36.8814L33.3557 37.1525V37.4237L31.8641 38.2373L30.1014 38.6441H29.4235L28.8811 38.9153H28.6099L28.8811 38.3729H29.8302V38.1017L31.593 37.4237H31.8641L32.1353 36.2034L31.4574 35.5254L30.1014 34.8475L27.3896 34.1695L23.4574 33.6271L20.3387 33.3559L20.2031 33.0847Z" fill="#EFFDF8"/>
<path d="M12.7459 10.0339L13.9663 10.3051V10.5763L14.5087 10.7119L14.6442 11.1187L15.3222 11.5254L15.729 11.661L15.8646 12.2034L15.4578 13.8305L15.051 14.3729H14.5087L14.3731 14.6441L14.1019 15.0509L13.9663 15.7288H13.6951L13.4239 14.9153V12.6102L13.1527 12.0678L12.7459 11.9322L12.6104 11.2542L12.7459 10.5763L12.6104 10.1695L12.7459 10.0339Z" fill="#FDFDFD"/>
<path d="M11.9321 19.9322L12.6101 20.0678L13.1525 20.6102L14.644 21.017L14.1016 21.2881H13.4237L13.6948 22.1017V22.3729L14.1016 22.7797L14.3728 23.5932L15.322 25.6271L15.5931 27.3898L15.7287 29.2881V31.0508L15.4576 30.6441L15.0508 27.3898L14.9152 26.0339L14.1016 24.4068V24.1356L13.6948 24L12.6101 21.9661L11.9321 20.0678V19.9322Z" fill="#FBFDFC"/>
<path d="M16.678 1.22035H17.4916L17.8984 1.49154L18.034 2.3051L17.6272 2.98306L17.8984 3.38984V3.79662L17.2204 3.93222L16.8136 3.79662L16.5425 4.74578L16.0001 4.88137L15.5933 4.2034L15.7289 3.25425L15.8645 2.98306L15.3221 2.84747L15.1865 2.44069L15.5933 2.03391L16.678 1.22035Z" fill="#FDFDFD"/>
<path d="M19.6612 24.1356L19.7968 24.5424L19.1188 26.5763L18.712 29.9661L18.1697 36.2034L17.6273 36.339L17.4917 36.0678V26.983L17.7629 25.3559L18.0341 25.0847L17.8985 26.7119L17.7629 33.2203L17.8985 34.5763L18.0341 34.0339L18.1697 31.4576L18.3053 30.7797L18.4409 27.7966L18.9832 25.8983L19.39 24.5424L19.6612 24.1356Z" fill="#EFFDF8"/>
<path d="M21.9663 6.37289L22.7798 6.64408L22.9154 6.91527V6.50849L23.4578 6.64408L23.8646 7.18645L24.0002 7.59323V8.13561H23.729L23.5934 8.54239L23.3222 8.67798V9.08476H22.9154V9.35595L23.729 9.49154L23.5934 9.89832L22.9154 10.0339L22.6442 9.49154H22.3731L21.9663 8.54239L21.8307 7.86442L20.6104 7.45764V7.05086L21.2883 7.18645L21.0171 6.77967L21.9663 6.37289ZM21.5595 6.64408V7.05086L21.6951 7.18645H22.5087L21.9663 6.64408H21.5595ZM23.051 6.77967L23.3222 7.86442H23.5934L23.4578 6.91527L23.051 6.77967Z" fill="#F9FDFC"/>
<path d="M32.2714 35.2543L32.9493 35.3899L33.2205 35.5254V35.7966H33.7629L33.8985 36.8814L33.3561 37.1526V37.4237L31.8646 38.2373L30.1019 38.6441H29.4239L28.8815 38.9153H28.6104L28.8815 38.3729H29.8307V38.1017L31.5934 37.4237H31.8646L32.0002 37.017L32.407 36.4746L32.1358 35.5254L32.2714 35.2543Z" fill="#FDFDFD"/>
<path d="M0.948962 35.3898H1.62693L1.76252 36.0678L1.89811 36.8814L2.1693 37.4237L2.84727 37.5593L3.25405 37.9661L5.01676 38.3729L5.15235 38.6441L4.47439 38.7797L3.38964 38.5085L1.89811 37.9661L0.542183 37.2881L0.270996 36.6102L0.406589 35.9322L0.948962 35.3898Z" fill="#FDFDFD"/>
<path d="M8.13574 36.2034L9.22049 36.7458L11.7968 37.2881L16.5425 37.6949V37.8305L15.4578 37.9661L17.0849 38.1017V38.2373H14.2374L11.39 37.9661L10.034 37.6949L10.1696 37.4237L10.5764 37.2881L9.22049 37.1526L8.13574 36.6102V36.2034Z" fill="#EFFDF8"/>
<path d="M21.5594 18.3051L21.8306 18.4407V18.8475L21.2882 19.1186H20.6102V19.3898L19.3899 19.7966L17.4916 20.0678H16.1357L14.1018 19.661L12.3391 18.9831L12.0679 18.5763L12.6102 18.4407L14.2374 19.2542L16.1357 19.5254V19.7966L18.7119 19.3898H19.6611L19.7967 19.1186L21.017 18.5763L21.5594 18.3051Z" fill="#FEFEFE"/>
<path d="M25.4914 13.6949L25.627 14.1017L24.949 15.4577L25.3558 15.7288L25.0846 16.4068L23.4575 18.0339L22.3727 18.4407L22.1016 18.0339L22.6439 17.7627L23.0507 17.356L23.4575 16.678L24.5422 15.4577L25.4914 13.6949Z" fill="#F5FDFA"/>
<path d="M7.05063 8.00002L7.45741 8.13561V11.2543L7.99978 13.017L7.86419 13.2882H8.13538L8.67775 14.7797L8.81334 15.4576L8.40656 15.3221L8.27097 14.6441H7.99978L7.7286 13.8305V13.2882H7.45741L7.05063 12.0678L6.91504 9.76273L7.05063 8.00002Z" fill="#FDFDFD"/>
<path d="M14.1018 23.3221L14.5085 23.7288L15.1865 25.356L15.4577 26.0339L15.5933 27.9322L15.7289 29.2882V31.0509L15.4577 30.6441L15.0509 27.3898L14.9153 26.0339L13.9662 24.1356L13.8306 23.5932H14.1018V23.3221Z" fill="#FDFDFD"/>
<path d="M16.678 1.22035H17.4916L17.8984 1.49154L18.034 2.3051L17.6272 2.98306L17.8984 3.38984V3.79662L17.2204 3.93222L16.8136 3.79662L16.5425 4.74578L16.0001 4.88137L15.5933 4.2034L15.7289 3.25425L15.8645 2.98306L15.3221 2.84747L15.1865 2.44069L15.5933 2.03391L16.678 1.22035ZM16.678 1.49154L15.8645 2.1695L15.7289 2.57628L16.0001 3.11866L15.8645 4.47459L16.2713 4.74578L16.8136 3.79662L17.6272 3.52544L17.4916 3.11866H17.2204V2.57628L17.6272 2.44069V1.76273H17.356V1.49154H16.678Z" fill="#EFFDF8"/>
<path d="M19.2544 34.3051H21.2883L24.4069 34.7119L25.6273 35.1187L25.4917 35.5255L24.4069 35.3899L22.5086 34.9831L19.2544 34.5763V34.3051Z" fill="#EFFDF8"/>
<path d="M8.81348 15.4576L9.35585 15.5932L10.0338 16.678H10.4406L10.983 17.6271L11.6609 17.8983L11.9321 18.0339V18.3051L11.1186 18.4407L9.62704 17.2203L8.81348 16.2712V15.4576Z" fill="#FDFDFD"/>
<path d="M18.3047 0.13562H19.2538L21.5589 0.949179L22.6437 1.62715L22.9149 2.4407L21.9657 2.03393L21.1521 1.62715V1.35596L19.525 1.08477L19.3894 0.677993L18.9827 0.406807L18.3047 0.271213V0.13562Z" fill="#F8FDFB"/>
<path d="M24.8135 3.79662L25.4914 4.47458L26.1694 5.55933L26.8474 7.45763L27.1186 8.81357V11.661L26.7118 13.4237L26.4406 13.6949L26.7118 12.2034L26.8474 10.8475L26.7118 8.27119L25.8982 5.83051L25.3558 4.88136L24.8135 4.0678V3.79662Z" fill="#EFFDF8"/>
<path d="M12.6104 34.3051H14.3731L14.2375 34.5763L10.1697 35.2543L9.22055 35.3899L9.08496 35.1187H9.35615V34.8475L10.3053 34.5763L12.6104 34.3051Z" fill="#EFFDF8"/>
<path d="M21.9662 6.37289L22.7798 6.64408L22.9154 6.91527V6.50849L23.4578 6.64408L23.8645 7.18645L24.0001 7.59323V8.13561H23.729V8.40679H23.4578V8.13561H23.1866L23.051 7.18645H22.7798L22.6442 7.86442L22.2374 7.59323V7.32205L21.2883 7.18645L21.0171 6.77967L21.9662 6.37289ZM21.5595 6.64408V7.05086L21.6951 7.18645H22.5086L21.9662 6.64408H21.5595ZM23.051 6.77967L23.3222 7.86442H23.5934L23.4578 6.91527L23.051 6.77967Z" fill="#EFFDF8"/>
<path d="M12.2035 18.4407L12.7458 18.5763L13.9662 19.1187L14.2374 19.2543L16.1357 19.5255V19.7966H17.0848V19.9322L16.1357 20.0678L14.1018 19.661L12.3391 18.9831L12.0679 18.5763L12.2035 18.4407Z" fill="#FEFEFE"/>
<path d="M24.0002 8.67796L24.1358 8.94915L24.9493 9.22034L25.3561 9.62712L25.6273 10.5763L25.7629 10.7119L26.0341 10.0339L26.4409 10.1695L26.5765 11.1186L25.8985 13.5593L25.6273 13.6949L25.8985 12.4746L26.1697 10.983V10.5763L25.6273 11.3898L25.2205 11.2542L25.0849 9.8983L24.5426 9.35593L23.729 8.94915L24.0002 8.67796Z" fill="#EFFDF8"/>
<path d="M12.6104 20.2034L13.2883 20.339L16.0002 21.017L15.8646 21.5593H14.7798L14.3731 21.2882H14.6442V21.017L13.4239 20.8814L12.6104 20.339V20.2034Z" fill="#EFFDF8"/>
<path d="M12.7459 2.84747L13.2883 3.25425L13.5595 2.98307L14.2375 3.11866L14.6442 3.66103L14.5087 4.339H14.1019L13.9663 3.93222L13.2883 4.20341L12.8815 4.47459L13.1527 3.66103L12.8815 3.52544V3.11866L12.6104 2.98307L12.7459 2.84747Z" fill="#F2FDF9"/>
<path d="M7.86449 35.3898L8.27127 35.5254L8.13568 36.6102L9.08483 36.8814L9.22042 37.1525L8.81364 37.2881L7.32212 36.6102L7.18652 35.9322L7.45771 35.661H7.86449V35.3898Z" fill="#FDFDFD"/>
<path d="M16.5425 37.6949H18.034V37.9661L18.5764 37.8305L18.4408 38.2373L14.9154 38.1017L14.7798 37.8305H15.8645L16.5425 37.6949Z" fill="#F6FDFB"/>
<path d="M21.695 19.9322L21.9662 20.2034L19.9323 24.1356L19.6611 23.5932L19.7967 23.322H20.0679L20.3391 22.6441L21.1527 21.017V20.7458H21.4238V20.339L21.0171 20.2034L21.695 19.9322Z" fill="#EFFDF8"/>
<path d="M8.81348 15.4576L9.35585 15.5932L9.62704 16.2712L10.1694 17.3559L10.4406 17.4915L10.305 17.7627L9.35585 16.9492L8.81348 16.2712V15.4576Z" fill="#FAFDFC"/>
<path d="M8.40667 5.15254L8.67786 5.69491L8.13549 7.05085H7.8643V6.77966H7.45752L7.59311 6.23729H7.99989L8.13549 5.42373L8.40667 5.15254Z" fill="#F6FDFB"/>
<path d="M18.3047 0.13562H19.2538L20.4742 0.5424L20.6098 1.08477L19.9318 1.22037L19.525 1.08477L19.3894 0.677993L18.9827 0.406807L18.3047 0.271213V0.13562Z" fill="#F6FDFA"/>
<path d="M7.45752 36.6102L8.94904 37.1526H9.8982L10.5762 37.2881L10.4406 37.5593L9.7626 37.6949L7.99989 37.1526L7.45752 36.8814V36.6102Z" fill="#F3FDF9"/>
<path d="M23.5931 16.8136L23.8643 17.3559L23.1863 17.8983L22.7795 18.3051L22.3727 18.4407L22.1016 18.0339L22.6439 17.7627L23.3219 17.0847L23.5931 16.8136Z" fill="#FEFEFE"/>
<path d="M21.5591 18.3051L21.8302 18.4407V18.8475L21.2879 19.1186H20.6099V19.3898L20.2031 19.5254V19.1186L21.2879 18.4407L21.5591 18.3051Z" fill="#FDFDFD"/>
<path d="M22.9156 13.017L23.3223 13.1526L22.9156 14.3729L22.5088 14.5085L22.6444 13.2882L22.9156 13.017Z" fill="#EFFDF8"/>
<path d="M26.1693 35.7966L26.7117 35.9322L26.5761 36.6102L25.8981 36.8814H25.627V36.6102H25.8981L26.0337 35.9322L26.1693 35.7966Z" fill="#FCFDFD"/>
<path d="M10.4404 17.7627H11.5252L11.932 18.0339V18.3051L11.1184 18.4407L10.4404 17.7627Z" fill="#F8FDFB"/>
<path d="M13.8305 5.28815L14.2372 5.55933L14.1016 6.50849L13.5593 6.64408V6.37289L13.2881 6.2373L13.6949 6.10171L13.5593 5.55933L13.8305 5.28815Z" fill="#FEFEFE"/>
<path d="M11.9321 19.9322L12.6101 20.0678L12.4745 20.8814L12.7457 21.1525L12.8813 22.1017L12.6101 21.9661L11.9321 20.0678V19.9322Z" fill="#EFFDF8"/>
<path d="M30.6439 34.5763L31.4575 34.7119L32.271 34.9831V35.2542L31.8642 35.3898L30.9151 34.9831L30.5083 34.7119L30.6439 34.5763Z" fill="#FDFDFD"/>
<path d="M9.08496 16.4068L9.62733 16.5424L10.1697 17.2204L10.4409 17.7627L9.76293 17.356L9.08496 16.5424V16.4068Z" fill="#F0FDF8"/>
<path d="M26.1695 13.6949H26.4407L26.3051 14.3729L25.6271 15.5933L25.356 15.3221L25.8983 14.3729L26.1695 13.6949Z" fill="#EFFDF8"/>
<path d="M22.9152 9.35594L23.7288 9.49153L23.5932 9.89831L22.9152 10.0339L22.644 9.62713L22.9152 9.35594Z" fill="#FEFEFE"/>
<path d="M14.7798 21.017L16.0002 21.1525L15.8646 21.5593H14.7798L14.373 21.2881L14.7798 21.017Z" fill="#FCFDFD"/>
<path d="M18.5759 4.88136L19.1182 5.15255L18.8471 5.69492H18.3047L18.4403 5.01696L18.5759 4.88136Z" fill="#F1FDF9"/>
<path d="M23.1865 2.16951L23.7289 2.4407L24.8136 3.52544L24.678 3.79663L23.3221 2.4407L23.1865 2.16951Z" fill="#EFFDF8"/>
<path d="M83.8147 6.32878L85.0515 6.94718L90.3078 19.9335L91.5446 21.7887L92.4722 22.0979V22.7163H86.2882V22.0979L87.8342 21.7887L87.525 19.9335L86.9066 18.3875V17.4599H80.4135L79.4859 21.1703L79.7951 21.7887L81.0319 22.0979V22.7163H71.7559L68.6639 19.3151L66.4995 16.5323L64.3351 15.9139L64.6443 20.8611L65.5719 21.7887L66.4995 22.4071L66.1903 22.7163H60.0063V22.0979L61.5523 21.4795L61.8615 19.0059L61.5523 7.87478L60.3155 6.63798H68.9731L71.1375 7.87478L72.3743 9.72997V12.822L70.5191 14.9864L69.2823 15.2955L70.5191 17.1507L72.9927 20.5519L75.1571 21.7887H76.7031L77.9399 19.9335L82.2687 9.11157L83.5055 6.63798L83.8147 6.32878ZM64.9535 7.56558L64.3351 8.18397V14.6772H67.4271L68.9731 13.7496L69.9007 12.2036V10.0392L68.6639 8.18397L67.4271 7.56558H64.9535ZM83.5055 10.0392L81.9595 13.4404L81.0319 16.2231H85.9791L85.6699 14.368L83.8147 10.0392H83.5055Z" fill="#EFFDF8"/>
<path d="M224.5 6.32878L228.52 6.63798L232.23 13.4404L235.013 18.3875L235.94 17.1507L241.197 6.94718L241.506 6.63798H245.835V7.25638L244.289 7.87478L243.98 8.18397V20.8611L244.907 21.7887L245.526 22.0979V22.7163H239.342V22.0979L240.888 21.4795L241.197 19.9335V11.8944H240.578L236.25 20.2427L235.013 22.4071H234.085L230.375 15.6047L228.211 11.5852V20.2427L228.52 21.7887L230.066 22.0979L229.756 22.7163H224.5V22.0979L226.046 21.7887V8.18397L225.428 7.56558L224.191 7.25638L224.5 6.32878Z" fill="#EFFDF8"/>
<path d="M144.109 2H160.805V7.25638L159.878 6.32878L158.641 4.47359L157.713 3.85519L154.003 3.54599L154.312 21.1703L156.476 22.0979L156.167 22.7163H148.437V22.0979L150.602 21.1703L150.911 3.54599L147.201 3.85519L145.964 4.47359L144.418 7.25638H143.799V3.85519L144.109 2Z" fill="#FDFDFD"/>
<path d="M197.291 2H213.678L213.987 2.6184L214.297 6.94718H213.369L211.823 4.47359L210.895 3.85519L207.185 3.54599L207.494 20.8611L207.803 21.4795L209.659 22.0979V22.7163H201.929L201.619 22.0979L203.784 21.1703L204.093 3.54599L200.383 3.85519L198.837 5.09199L197.6 7.25638L196.981 6.63798L197.291 2Z" fill="#FDFDFD"/>
<path d="M42.073 2H58.1513L58.4605 2.3092L58.7697 6.63798L57.8421 6.94718L56.6053 4.47359L55.6777 3.85519L51.6582 3.54599L51.9674 20.8611L52.8949 21.7887L54.1317 22.0979V22.7163H46.4018V22.0979L48.257 21.1703L48.5662 19.9335V3.54599L44.8558 3.85519L43.3098 5.40119L42.073 7.25638H41.4546L41.7638 2.3092L42.073 2Z" fill="#FDFDFD"/>
<path d="M162.042 6.63799H173.792V10.0392H173.173L172.246 8.18398L171.627 7.87478H166.68L166.371 13.7496H168.844L170.7 13.4404L171.627 11.5852L172.246 12.5128V16.8415H171.318L171.009 15.2956H166.68V20.8611L166.989 21.1703H171.936L173.482 19.9335L174.101 18.6967H174.719L174.41 22.4071L174.101 22.7163H162.351L162.042 22.0979L163.588 21.4795L163.897 8.80238L163.279 7.56558L162.042 6.94718V6.63799Z" fill="#EFFDF8"/>
<path d="M248 6.63799H259.749V10.0392H259.131L258.203 8.18398L257.585 7.87478H252.637L252.328 14.0588L256.348 13.4404L257.275 11.8944L257.894 12.2036V16.8415H256.966L256.657 15.2956L252.328 14.9864L252.637 21.1703H257.894L259.44 19.9335L260.058 18.6967H260.677V20.8611L260.058 22.7163H248V22.0979L249.546 21.1703V8.49318L248.927 7.56558L248 7.25638V6.63799Z" fill="#EFFDF8"/>
<path d="M187.396 6.32878L188.633 6.63798V10.0392H188.015L187.087 8.18397L186.469 7.87478H181.522L181.831 13.7496H183.995L185.541 13.4404L186.16 11.8944L187.087 12.2036V16.8415H186.16L185.85 15.2955L181.522 14.9864L181.831 21.1703H186.778L188.324 20.2427L189.252 18.6967H189.87L189.561 22.4071L189.252 22.7163H177.502L177.193 22.0979L178.739 21.7887V8.18397L177.193 7.25638V6.63798L187.396 6.32878Z" fill="#F0FDF8"/>
<path d="M109.169 6.63799H120.919V10.0392L119.991 9.72997L119.373 8.18398L118.754 7.87478H113.807L113.498 14.0588L117.517 13.4404L118.136 11.8944H119.063V16.8415H118.136L117.827 15.6048L117.208 15.2956L113.498 14.9864L113.807 21.4795L119.063 21.1703L120.609 19.9335L121.228 19.0059H121.846L121.537 22.0979L121.228 22.7163H109.169V22.0979L110.715 21.7887V8.18398L109.169 7.25638V6.63799Z" fill="#EFFDF8"/>
<path d="M90.9263 6.63799H97.7286V7.25638L96.1827 7.87478L96.4918 10.0392L99.893 18.0783V19.0059H100.511L101.439 15.914L103.913 9.72997V7.56558L102.676 6.94718V6.63799H108.241V7.25638L106.695 7.87478L105.149 10.9668L101.13 20.8611L100.202 22.7163H98.9654L94.0183 10.9668L92.4723 7.87478L90.9263 6.63799Z" fill="#FBFDFC"/>
<path d="M124.011 6.63799H130.195L129.886 7.25638L128.649 7.87478V21.1703H133.287L134.524 20.5519L135.451 18.6967H136.069V21.7887L135.76 22.7163H124.32V22.0979L125.557 21.7887V8.49318L124.011 6.63799Z" fill="#EFFDF8"/>
<path d="M216.77 6.32878L222.336 6.63798L222.027 7.25638L220.481 7.87478V21.7887L222.027 22.0979V22.7163H215.843V22.0979L217.389 21.7887V8.18397L217.08 7.56558L215.843 6.94718L216.77 6.32878Z" fill="#FEFEFE"/>
<path d="M144.109 2H160.805V7.25638L159.878 6.32878L158.641 4.47359L157.713 3.85519L154.003 3.54599L154.312 21.1703L156.476 22.0979L156.167 22.7163H148.437V22.0979L150.602 21.1703L150.911 3.54599L147.201 3.85519L145.964 4.16439L146.891 3.2368L149.674 2.9276L151.22 3.2368L151.529 6.32878L151.838 19.9335L150.911 22.0979H153.384V4.16439L154.003 2.9276H157.713L159.259 3.54599H159.878V4.47359L160.187 2.6184H144.727V4.47359H145.655L145.036 6.01959L144.418 7.25638H143.799V3.85519L144.109 2Z" fill="#EFFDF8"/>
<path d="M83.8148 6.32878L85.0516 6.94718L90.308 19.9335L91.5448 21.7887L92.4724 22.0979V22.7163H86.2884V22.0979L87.8344 21.7887L87.5252 19.9335L86.9068 18.3875V17.1507H85.67V16.5323L86.2884 15.9139L84.7424 12.2036L84.124 9.42077L82.8872 9.11157L83.1964 6.94718L83.8148 6.32878Z" fill="#FDFDFD"/>
<path d="M224.5 6.32878L228.52 6.63798L229.138 8.18397L228.211 7.25638H226.974V9.42077L227.283 10.3484L228.52 10.0392L229.138 11.5852L230.066 12.822V14.0588L230.993 14.368L231.302 16.5323L230.375 15.6047L228.211 11.5852V20.2427L228.52 21.7887L230.066 22.0979L229.756 22.7163H224.5V22.0979L226.046 21.7887V8.18397L225.428 7.56558L224.191 7.25638L224.5 6.32878Z" fill="#EFFDF8"/>
<path d="M187.396 6.32878L188.633 6.63798V10.0392H188.015L187.087 8.18397L186.469 7.87478H181.522L181.831 13.7496H183.995L185.541 13.4404L186.16 11.8944L187.087 12.2036V16.8415H186.16L185.85 15.2955L181.212 14.9863L180.903 13.7496L180.594 7.56558L180.903 7.25638L179.357 6.94718L179.666 8.18397V19.6243H179.048L178.739 8.18397L177.193 7.25638V6.63798L187.396 6.32878Z" fill="#EFFDF8"/>
<path d="M226.355 6.94717H228.211L229.757 8.80237L233.467 15.6047L234.395 18.3875L235.631 19.9335L235.322 21.1703L234.085 21.4795L230.684 15.2955V14.3679L230.066 14.0587L229.138 11.8944L228.211 10.3484L226.974 10.6576L226.665 7.87477L226.974 7.25637L226.355 6.94717Z" fill="#FDFDFD"/>
<path d="M241.815 6.94717H243.67V21.4795L243.98 22.4071H241.197L241.815 19.3151L241.506 10.0392H240.888L240.269 11.5852L239.651 10.9668L240.578 8.18397L241.815 6.94717Z" fill="#FDFDFD"/>
<path d="M102.676 6.63799H108.242V7.25638L106.696 7.87478L105.15 10.9668L101.13 20.8611L100.203 22.7163H98.9658L97.729 19.9335L98.0382 19.0059L99.5842 21.4795L100.203 21.1703L100.512 19.9335H99.8934L99.275 18.6967V17.7691L98.6566 17.4599L99.275 16.8415L99.8934 18.0783V19.0059H100.512L101.439 15.914L103.913 9.72997V7.56558L102.676 6.94718V6.63799Z" fill="#EFFDF8"/>
<path d="M111.024 6.94717H112.57L113.189 8.18397V21.1703L113.807 22.4071H111.643L111.334 21.4795V13.7495L111.024 6.94717Z" fill="#FEFEFE"/>
<path d="M250.164 6.94717H252.328L252.019 7.87477V14.0587V14.9863V20.8611L252.328 22.4071H250.164L249.854 21.4795V7.25637L250.164 6.94717Z" fill="#FEFEFE"/>
<path d="M164.207 6.94717H167.299L166.371 7.87477L166.062 13.4404L166.68 14.6771L166.371 14.9863V21.1703L167.299 22.4071H164.207L164.516 19.3151V8.18397L164.825 7.56557H164.207V6.94717Z" fill="#FDFDFD"/>
<path d="M125.866 6.94717H128.339L128.03 8.49317V20.8611L128.649 22.0979L127.103 22.4071L126.175 22.0979L125.866 6.94717Z" fill="#FDFDFD"/>
<path d="M171.627 11.5852L172.246 12.5128V16.8415H171.318L171.009 15.2955H166.68V20.8611L166.989 21.1703H171.936L173.482 19.9335L174.101 18.6967H174.719L174.41 22.4071L174.101 22.7163H170.39L167.608 22.4071L166.062 21.1703V14.9863V14.0588V13.7496H168.844L170.7 13.4404L171.627 11.5852Z" fill="#F2FDF9"/>
<path d="M201.62 2.9276L204.403 3.2368L204.712 5.71039L205.021 19.9335L204.403 22.0979H207.185L206.567 20.5519L206.876 3.54599H207.185L207.495 20.8611L207.804 21.4795L209.659 22.0979V22.7163H201.929L201.62 22.0979L203.784 21.1703L204.093 3.54599L199.765 3.85519V3.2368L201.62 2.9276Z" fill="#EFFDF8"/>
<path d="M62.4802 6.94717H64.3354L64.0262 14.6771L64.3354 15.6047L64.0262 18.3875L64.3354 22.0979L64.0262 22.4071H62.4802L62.171 21.4795L62.4802 17.7691L62.171 8.49317L61.8618 7.25637L62.4802 6.94717Z" fill="#FEFEFE"/>
<path d="M45.1649 2.9276H48.5661L49.1845 3.54599V20.8611L48.8753 22.0979H51.0397L51.9673 22.4071L51.3489 21.1703L51.0397 7.56558L51.3489 3.2368L51.9673 2.9276H55.3685L56.2961 3.2368L56.6053 4.16439L55.6777 3.85519L51.6581 3.54599L51.9673 20.8611L52.8949 21.7887L54.1317 22.0979V22.7163H46.4017V22.0979L48.2569 21.1703L48.5661 19.9335V3.54599L44.2373 3.85519L45.1649 2.9276Z" fill="#EFFDF8"/>
<path d="M216.77 6.32878L222.336 6.63798L222.027 7.25638L220.481 7.87478V21.7887L222.027 22.0979V22.7163H215.843V22.0979L217.389 21.7887V8.18397L217.08 7.56558L215.843 6.94718L216.77 6.32878ZM218.007 6.94718L217.698 7.56558H218.316L218.007 20.8611L217.698 22.0979L219.862 22.4071L220.172 21.7887L219.862 19.0059V7.87478L220.172 6.94718H218.007Z" fill="#EFFDF8"/>
<path d="M179.357 6.94717H181.831L180.903 8.18397L181.213 14.9863L180.903 16.5323V20.2427L179.357 19.9335V6.94717Z" fill="#FDFDFD"/>
<path d="M197.291 2H213.678L213.987 2.6184L214.297 6.94718H213.369L211.823 4.47359L210.895 3.85519L207.185 3.54599L207.494 2.9276H210.277L212.441 3.54599L213.06 4.78279L213.369 3.85519L212.441 2.6184L198.218 2.3092V2.9276H197.6L197.909 4.78279L198.837 3.85519L199.764 4.16439L198.527 5.71039L197.6 7.25638L196.981 6.63798L197.291 2Z" fill="#EFFDF8"/>
<path d="M42.073 2H58.1513L58.4605 2.3092L58.7697 6.63798L57.8421 6.94718L56.6053 4.16439L57.5329 3.85519V2.3092H42.3822L43.0006 3.85519L43.9282 3.54599V4.47359L42.073 7.25638H41.4546L41.7638 2.3092L42.073 2Z" fill="#EFFDF8"/>
<path d="M238.414 13.4404L239.033 13.7496L238.105 16.5323L235.632 21.4795L234.395 22.7163L232.849 20.2427L231.303 17.1507L231.612 16.5323L232.849 18.6967V19.3151L233.467 19.6243L234.086 21.4795L235.322 20.8611L235.013 19.6243L233.776 18.0783L233.467 16.2231L235.322 18.6967L236.25 17.7691L236.868 16.2231L238.414 13.4404Z" fill="#F0FDF8"/>
<path d="M67.7363 7.25638L70.8283 7.56558L72.0651 9.11157L72.3743 9.72997V12.822L70.5191 14.0588L69.5915 13.4404L70.2099 12.5128V9.72997L69.5915 8.49317L67.7363 7.56558V7.25638Z" fill="#FAFDFC"/>
<path d="M86.5978 11.5852L87.2162 12.2036L90.6174 20.5519L91.545 21.7887L92.4726 22.0979V22.7163H86.2886V22.0979L87.8346 21.7887L87.5254 19.9335L86.907 18.3875L87.2162 17.4599L88.453 20.5519V22.0979H90.3082L90.9266 22.4071V21.7887H90.3082L89.6898 20.2427L89.0714 19.9335L88.7622 18.0783L88.1438 16.8415L86.5978 12.5128V11.5852Z" fill="#EFFDF8"/>
<path d="M90.9263 6.63799H97.7286V7.25638L96.1827 7.87478L96.4918 10.0392L98.347 14.6772L98.0378 15.2956L97.1102 14.0588L95.8735 10.3484L94.9459 7.25638H93.3999L94.6367 10.3484L94.3275 11.5852L92.4723 7.87478L90.9263 6.63799Z" fill="#EFFDF8"/>
<path d="M171.627 11.5852L172.246 12.5128V16.8415H171.318L171.009 15.2955L168.226 14.9863L167.917 14.3679L168.845 13.7496L170.7 13.4404L171.627 11.5852Z" fill="#EFFDF8"/>
<path d="M66.1904 14.9864H68.664L69.5916 16.8416L70.8284 18.6967L70.5192 19.9335L69.5916 20.2427L68.9732 18.3875L67.7364 16.8416L66.1904 15.6048V14.9864Z" fill="#FDFDFD"/>
<path d="M135.451 18.6967H136.069V21.7887L135.76 22.7163L130.813 22.4071L131.431 21.7887L134.523 20.5519L135.451 18.6967Z" fill="#EFFDF8"/>
<path d="M102.676 6.63799H108.241V7.25638L106.695 7.87478L105.768 9.42078L104.84 9.11158L105.149 7.87478L102.676 6.94718V6.63799Z" fill="#F2FDF9"/>
<path d="M181.831 21.4795H186.469L186.778 22.7163H181.212L181.831 22.4071V21.4795Z" fill="#EFFDF8"/>
<path d="M231.303 16.5323L232.23 17.4599L232.849 19.3151L233.467 19.6243L234.086 21.4795L235.322 20.8611L235.941 20.2427L235.632 21.4795L234.395 22.7163L232.849 20.2427L231.303 17.1507V16.5323Z" fill="#EFFDF8"/>
<path d="M229.447 8.80237L230.375 10.0392L233.467 15.6047L233.158 16.2231L231.302 13.4404L230.684 12.822L230.066 11.5852L229.447 8.80237Z" fill="#EFFDF8"/>
<path d="M83.8148 6.32878L85.0516 6.94718L86.5976 10.6576L86.2884 11.5852L84.124 7.25638L82.8872 8.49317L83.1964 6.94718L83.8148 6.32878Z" fill="#EFFDF8"/>
<path d="M172.246 6.94717L173.792 7.25637V10.0392H173.173L171.937 7.25637L172.246 6.94717Z" fill="#F4FDFA"/>
<path d="M71.1379 19.6243L71.4471 20.2427L72.6839 20.8611L73.3023 22.4071L71.4471 22.0979L71.1379 21.1703L70.5195 20.8611L71.1379 19.6243Z" fill="#FCFDFD"/>
<path d="M226.974 18.0783H227.592L227.901 22.4071L226.355 22.0979L226.974 21.7887L226.665 20.2427L226.974 18.0783Z" fill="#FDFDFD"/>
<path d="M238.414 13.4404L239.033 13.7496L238.105 16.5323L236.868 17.4599L236.559 16.8415L238.414 13.4404Z" fill="#F9FDFC"/>
<path d="M179.976 20.8611L181.831 21.4795V22.4071H179.357V21.1703L179.976 20.8611Z" fill="#FDFDFD"/>
<path d="M134.214 21.1703L135.142 21.4795L134.833 22.4071H130.813L131.431 21.7887H133.287L134.214 21.1703Z" fill="#FEFEFE"/>
<path d="M45.4162 36.12C44.6895 36.12 44.0928 35.9767 43.6262 35.69C43.1595 35.4033 42.8128 35.01 42.5862 34.51C42.3662 34.01 42.2562 33.4367 42.2562 32.79C42.2562 32.0233 42.3995 31.3833 42.6862 30.87C42.9728 30.35 43.3695 29.96 43.8762 29.7C44.3895 29.44 44.9795 29.31 45.6462 29.31C45.9995 29.31 46.2762 29.3367 46.4762 29.39C46.6828 29.4433 46.8428 29.5 46.9562 29.56C47.0762 29.6133 47.1862 29.64 47.2862 29.64C47.3995 29.64 47.4762 29.6033 47.5162 29.53C47.5562 29.4567 47.5862 29.3833 47.6062 29.31H48.0362V31.77H47.5562C47.4228 31.1433 47.1962 30.6667 46.8762 30.34C46.5562 30.0133 46.1395 29.85 45.6262 29.85C45.0195 29.85 44.5662 30.08 44.2662 30.54C43.9728 30.9933 43.8262 31.6567 43.8262 32.53C43.8262 33.15 43.8995 33.6533 44.0462 34.04C44.1995 34.4267 44.4295 34.71 44.7362 34.89C45.0495 35.0633 45.4395 35.15 45.9062 35.15C46.3995 35.15 46.7995 35.0633 47.1062 34.89C47.4195 34.7167 47.7195 34.47 48.0062 34.15L48.3262 34.43C48.1062 34.7433 47.8728 35.03 47.6262 35.29C47.3862 35.5433 47.0895 35.7467 46.7362 35.9C46.3895 36.0467 45.9495 36.12 45.4162 36.12ZM52.2942 36.14C51.5942 36.14 50.9975 36.0067 50.5042 35.74C50.0175 35.4733 49.6442 35.0833 49.3842 34.57C49.1309 34.0567 49.0042 33.4367 49.0042 32.71C49.0042 32.01 49.1342 31.4067 49.3942 30.9C49.6542 30.3933 50.0309 30.0033 50.5242 29.73C51.0175 29.45 51.6075 29.31 52.2942 29.31C52.9942 29.31 53.5875 29.4433 54.0742 29.71C54.5675 29.97 54.9409 30.3467 55.1942 30.84C55.4542 31.3333 55.5842 31.9267 55.5842 32.62C55.5842 33.3467 55.4542 33.9733 55.1942 34.5C54.9409 35.0267 54.5675 35.4333 54.0742 35.72C53.5875 36 52.9942 36.14 52.2942 36.14ZM52.3042 35.62C52.8842 35.62 53.3142 35.3833 53.5942 34.91C53.8809 34.43 54.0242 33.6767 54.0242 32.65C54.0242 32.03 53.9509 31.51 53.8042 31.09C53.6642 30.67 53.4609 30.3533 53.1942 30.14C52.9342 29.92 52.6242 29.81 52.2642 29.81C51.7375 29.81 51.3209 30.0533 51.0142 30.54C50.7142 31.0267 50.5642 31.73 50.5642 32.65C50.5642 33.59 50.7075 34.32 50.9942 34.84C51.2809 35.36 51.7175 35.62 52.3042 35.62ZM56.8747 36.13H56.4447L56.3547 33.97H56.8547C56.9613 34.3967 57.078 34.7267 57.2047 34.96C57.338 35.1867 57.498 35.3433 57.6847 35.43C57.8713 35.5167 58.098 35.56 58.3647 35.56C58.578 35.56 58.778 35.5333 58.9647 35.48C59.158 35.42 59.3147 35.3267 59.4347 35.2C59.5547 35.0667 59.6147 34.89 59.6147 34.67C59.6147 34.3833 59.5447 34.15 59.4047 33.97C59.2647 33.7833 59.0813 33.6267 58.8547 33.5C58.6347 33.3667 58.3947 33.24 58.1347 33.12C57.828 32.9667 57.5413 32.8067 57.2747 32.64C57.008 32.4667 56.7947 32.2533 56.6347 32C56.4747 31.74 56.3947 31.4067 56.3947 31C56.3947 30.6267 56.4847 30.3167 56.6647 30.07C56.8447 29.8233 57.1013 29.6367 57.4347 29.51C57.768 29.3833 58.1613 29.32 58.6147 29.32C58.868 29.32 59.0747 29.34 59.2347 29.38C59.4013 29.42 59.538 29.46 59.6447 29.5C59.7513 29.54 59.8447 29.56 59.9247 29.56C59.9847 29.56 60.0447 29.5467 60.1047 29.52C60.1647 29.4867 60.2047 29.42 60.2247 29.32H60.6047L60.6647 31.42H60.1947C60.048 30.8133 59.8513 30.39 59.6047 30.15C59.3647 29.91 59.058 29.79 58.6847 29.79C58.3313 29.79 58.0647 29.8533 57.8847 29.98C57.7047 30.1067 57.6147 30.3033 57.6147 30.57C57.6147 30.8167 57.6847 31.02 57.8247 31.18C57.9647 31.3333 58.1513 31.47 58.3847 31.59C58.618 31.71 58.868 31.8333 59.1347 31.96C59.3747 32.0667 59.6047 32.1867 59.8247 32.32C60.0513 32.4467 60.2547 32.5967 60.4347 32.77C60.6147 32.9433 60.758 33.15 60.8647 33.39C60.9713 33.6233 61.0247 33.8967 61.0247 34.21C61.0247 34.6233 60.918 34.9733 60.7047 35.26C60.498 35.54 60.2047 35.7533 59.8247 35.9C59.4513 36.0467 59.0147 36.12 58.5147 36.12C58.1947 36.12 57.948 36.0933 57.7747 36.04C57.6013 35.9933 57.468 35.9467 57.3747 35.9C57.288 35.8467 57.208 35.82 57.1347 35.82C57.0613 35.82 56.998 35.85 56.9447 35.91C56.898 35.9633 56.8747 36.0367 56.8747 36.13ZM66.23 36H62.8V35.57C63.0933 35.57 63.3066 35.55 63.44 35.51C63.58 35.4633 63.67 35.3667 63.71 35.22C63.7566 35.0733 63.78 34.85 63.78 34.55V29.99H63.33C62.9633 29.99 62.6866 30.0333 62.5 30.12C62.32 30.2067 62.19 30.3533 62.11 30.56C62.03 30.7667 61.9533 31.05 61.88 31.41H61.38L61.49 29.43H67.58L67.67 31.41H67.17C67.0966 31.05 67.0166 30.7667 66.93 30.56C66.85 30.3533 66.72 30.2067 66.54 30.12C66.36 30.0333 66.0833 29.99 65.71 29.99H65.27V34.55C65.27 34.85 65.29 35.0733 65.33 35.22C65.3766 35.3667 65.4666 35.4633 65.6 35.51C65.74 35.55 65.95 35.57 66.23 35.57V36ZM69.5261 36H67.2461V35.57C67.4194 35.57 67.5594 35.5433 67.6661 35.49C67.7794 35.4367 67.8794 35.34 67.9661 35.2C68.0594 35.06 68.1561 34.86 68.2561 34.6L70.4261 29.38H71.4761L73.6361 34.62C73.7694 34.94 73.9094 35.18 74.0561 35.34C74.2094 35.4933 74.3994 35.57 74.6261 35.57V36H71.4161V35.57C71.5027 35.57 71.5894 35.5667 71.6761 35.56C71.7694 35.5467 71.8461 35.5167 71.9061 35.47C71.9727 35.4233 72.0061 35.35 72.0061 35.25C72.0061 35.1767 71.9861 35.0667 71.9461 34.92C71.9061 34.7733 71.8594 34.63 71.8061 34.49L71.5261 33.76L71.4461 33.5L70.5061 30.88H70.4661L69.4061 33.5L69.3261 33.76L68.9861 34.62C68.9594 34.7067 68.9294 34.8033 68.8961 34.91C68.8627 35.0167 68.8461 35.1133 68.8461 35.2C68.8461 35.36 68.8961 35.4633 68.9961 35.51C69.1027 35.55 69.2794 35.57 69.5261 35.57V36ZM71.7161 33.89H69.1361L69.3161 33.37H71.5361L71.7161 33.89ZM80.9598 36H77.4198V35.57C77.6865 35.57 77.8865 35.55 78.0198 35.51C78.1532 35.4633 78.2398 35.3767 78.2798 35.25C78.3265 35.1167 78.3498 34.92 78.3498 34.66V30.73C78.3498 30.4767 78.3265 30.29 78.2798 30.17C78.2332 30.0433 78.1432 29.9633 78.0098 29.93C77.8765 29.89 77.6798 29.87 77.4198 29.87V29.43H80.7598C81.3732 29.43 81.8565 29.4933 82.2098 29.62C82.5632 29.74 82.8132 29.9133 82.9598 30.14C83.1065 30.36 83.1798 30.62 83.1798 30.92C83.1798 31.3667 83.0432 31.7067 82.7698 31.94C82.4965 32.1733 82.1465 32.3467 81.7198 32.46V32.52C82.0065 32.56 82.2832 32.6367 82.5498 32.75C82.8232 32.8633 83.0465 33.0367 83.2198 33.27C83.3998 33.5033 83.4898 33.8233 83.4898 34.23C83.4898 34.8167 83.2698 35.26 82.8298 35.56C82.3965 35.8533 81.7732 36 80.9598 36ZM80.3998 35.5C80.6065 35.5 80.7965 35.49 80.9698 35.47C81.1432 35.4433 81.2932 35.39 81.4198 35.31C81.5465 35.2233 81.6432 35.0933 81.7098 34.92C81.7832 34.7467 81.8198 34.5133 81.8198 34.22C81.8198 33.8133 81.7532 33.5133 81.6198 33.32C81.4865 33.12 81.3132 32.99 81.0998 32.93C80.8932 32.8633 80.6665 32.83 80.4198 32.83H79.8398V35.47C79.9332 35.4767 80.0232 35.4833 80.1098 35.49C80.1965 35.4967 80.2932 35.5 80.3998 35.5ZM79.8398 30.01V32.3H80.3298C80.8232 32.3 81.1532 32.2133 81.3198 32.04C81.4932 31.86 81.5798 31.5533 81.5798 31.12C81.5798 30.7267 81.4932 30.44 81.3198 30.26C81.1465 30.0733 80.8098 29.98 80.3098 29.98C80.2365 29.98 80.1632 29.9833 80.0898 29.99C80.0165 29.99 79.9332 29.9967 79.8398 30.01ZM87.5486 36H84.1386V35.57C84.3919 35.57 84.5852 35.55 84.7186 35.51C84.8519 35.47 84.9419 35.3833 84.9886 35.25C85.0419 35.1167 85.0686 34.9133 85.0686 34.64V30.64C85.0686 30.44 85.0452 30.2833 84.9986 30.17C84.9586 30.0567 84.8719 29.9767 84.7386 29.93C84.6052 29.8833 84.4052 29.86 84.1386 29.86V29.43H87.3986C87.8652 29.43 88.2952 29.4833 88.6886 29.59C89.0886 29.69 89.4086 29.8633 89.6486 30.11C89.8952 30.35 90.0186 30.6833 90.0186 31.11C90.0186 31.4767 89.9452 31.7733 89.7986 32C89.6519 32.2267 89.4586 32.4033 89.2186 32.53C88.9786 32.6567 88.7186 32.7533 88.4386 32.82V32.87C88.5452 32.9367 88.6586 33.0467 88.7786 33.2C88.8986 33.3467 89.0619 33.5667 89.2686 33.86C89.4752 34.1533 89.7586 34.5533 90.1186 35.06C90.2719 35.28 90.4286 35.42 90.5886 35.48C90.7552 35.54 90.9519 35.57 91.1786 35.57V36H88.9086C88.6819 35.6 88.4952 35.27 88.3486 35.01C88.2019 34.75 88.0752 34.5367 87.9686 34.37C87.8686 34.1967 87.7752 34.04 87.6886 33.9C87.6086 33.76 87.5186 33.61 87.4186 33.45C87.3319 33.2967 87.2419 33.2 87.1486 33.16C87.0619 33.12 86.9319 33.1 86.7586 33.1H86.5586V34.65C86.5586 34.9167 86.5819 35.1167 86.6286 35.25C86.6752 35.3833 86.7686 35.47 86.9086 35.51C87.0486 35.55 87.2619 35.57 87.5486 35.57V36ZM86.5586 32.61L86.9386 32.62C87.2719 32.6 87.5519 32.5467 87.7786 32.46C88.0052 32.3733 88.1752 32.23 88.2886 32.03C88.4086 31.8233 88.4686 31.54 88.4686 31.18C88.4686 30.8 88.3652 30.4967 88.1586 30.27C87.9586 30.0367 87.6252 29.92 87.1586 29.92C87.0519 29.92 86.9486 29.9233 86.8486 29.93C86.7486 29.93 86.6519 29.9367 86.5586 29.95V32.61ZM93.3737 36H91.0937V35.57C91.2671 35.57 91.4071 35.5433 91.5137 35.49C91.6271 35.4367 91.7271 35.34 91.8137 35.2C91.9071 35.06 92.0037 34.86 92.1037 34.6L94.2737 29.38H95.3237L97.4837 34.62C97.6171 34.94 97.7571 35.18 97.9037 35.34C98.0571 35.4933 98.2471 35.57 98.4737 35.57V36H95.2637V35.57C95.3504 35.57 95.4371 35.5667 95.5237 35.56C95.6171 35.5467 95.6937 35.5167 95.7537 35.47C95.8204 35.4233 95.8537 35.35 95.8537 35.25C95.8537 35.1767 95.8337 35.0667 95.7937 34.92C95.7537 34.7733 95.7071 34.63 95.6537 34.49L95.3737 33.76L95.2937 33.5L94.3537 30.88H94.3137L93.2537 33.5L93.1737 33.76L92.8337 34.62C92.8071 34.7067 92.7771 34.8033 92.7437 34.91C92.7104 35.0167 92.6937 35.1133 92.6937 35.2C92.6937 35.36 92.7437 35.4633 92.8437 35.51C92.9504 35.55 93.1271 35.57 93.3737 35.57V36ZM95.5637 33.89H92.9837L93.1637 33.37H95.3837L95.5637 33.89ZM101.568 36.05H100.778L98.3779 30.75C98.2779 30.53 98.1845 30.3567 98.0979 30.23C98.0179 30.0967 97.9179 30.0033 97.7979 29.95C97.6845 29.89 97.5245 29.86 97.3179 29.86V29.43H100.658V29.86C100.531 29.86 100.415 29.87 100.308 29.89C100.208 29.9033 100.128 29.94 100.068 30C100.008 30.0533 99.9779 30.14 99.9779 30.26C99.9779 30.4267 100.018 30.6067 100.098 30.8L101.228 33.34L101.608 34.32H101.688L102.058 33.32L103.128 30.62C103.141 30.5867 103.158 30.5333 103.178 30.46C103.205 30.3867 103.218 30.3033 103.218 30.21C103.218 30.0767 103.165 29.9867 103.058 29.94C102.958 29.8867 102.801 29.86 102.588 29.86V29.43H104.858V29.86C104.711 29.86 104.588 29.8767 104.488 29.91C104.388 29.9433 104.295 30.01 104.208 30.11C104.121 30.21 104.028 30.3633 103.928 30.57C103.828 30.7767 103.701 31.0567 103.548 31.41L101.568 36.05ZM105.913 36H103.633V35.57C103.806 35.57 103.946 35.5433 104.053 35.49C104.166 35.4367 104.266 35.34 104.353 35.2C104.446 35.06 104.543 34.86 104.643 34.6L106.813 29.38H107.863L110.023 34.62C110.156 34.94 110.296 35.18 110.443 35.34C110.596 35.4933 110.786 35.57 111.013 35.57V36H107.803V35.57C107.889 35.57 107.976 35.5667 108.063 35.56C108.156 35.5467 108.233 35.5167 108.293 35.47C108.359 35.4233 108.393 35.35 108.393 35.25C108.393 35.1767 108.373 35.0667 108.333 34.92C108.293 34.7733 108.246 34.63 108.193 34.49L107.913 33.76L107.833 33.5L106.893 30.88H106.853L105.793 33.5L105.713 33.76L105.373 34.62C105.346 34.7067 105.316 34.8033 105.283 34.91C105.249 35.0167 105.233 35.1133 105.233 35.2C105.233 35.36 105.283 35.4633 105.383 35.51C105.489 35.55 105.666 35.57 105.913 35.57V36ZM108.103 33.89H105.523L105.703 33.37H107.923L108.103 33.89Z" fill="white"/>
</svg>
