<svg width="16" height="15" viewBox="0 0 16 15" fill="none" xmlns="http://www.w3.org/2000/svg">
<g clip-path="url(#clip0_5520_1471)">
<path fill-rule="evenodd" clip-rule="evenodd" d="M7.49848 0.624458C7.7751 0.347837 8.22359 0.347837 8.50022 0.624458L12.7502 4.87446C13.0268 5.15108 13.0268 5.59957 12.7502 5.87619C12.4736 6.15281 12.0251 6.15281 11.7485 5.87619L8.70768 2.83539V11.042C8.70768 11.4332 8.39055 11.7503 7.99935 11.7503C7.60815 11.7503 7.29102 11.4332 7.29102 11.042V2.83539L4.25022 5.87619C3.97359 6.15281 3.5251 6.15281 3.24848 5.87619C2.97186 5.59957 2.97186 5.15108 3.24848 4.87446L7.49848 0.624458ZM0.916016 13.8753C0.916016 13.4841 1.23315 13.167 1.62435 13.167H14.3743C14.7655 13.167 15.0827 13.4841 15.0827 13.8753C15.0827 14.2665 14.7655 14.5837 14.3743 14.5837H1.62435C1.23315 14.5837 0.916016 14.2665 0.916016 13.8753Z" fill="white"/>
</g>
<defs>
<clipPath id="clip0_5520_1471">
<rect width="14.1667" height="14.1667" fill="white" transform="translate(0.916016 0.416992)"/>
</clipPath>
</defs>
</svg>
