<svg width="31" height="30" viewBox="0 0 31 30" fill="none" xmlns="http://www.w3.org/2000/svg">
<path d="M26.7992 12.2109C26.3422 11.734 25.8699 11.2418 25.6801 10.7836C25.5043 10.3582 25.4949 9.72891 25.4844 9.06328C25.468 7.96406 25.4492 6.71953 24.6148 5.88516C23.7805 5.05078 22.5312 5.03203 21.4367 5.01562C20.7711 5.00508 20.1477 4.9957 19.7164 4.81992C19.2582 4.63008 18.766 4.15781 18.2891 3.70078C17.5109 2.95547 16.6297 2.10938 15.5 2.10938C14.3703 2.10938 13.4891 2.95547 12.7109 3.70078C12.234 4.15781 11.7418 4.63008 11.2836 4.81992C10.8582 4.9957 10.2289 5.00508 9.56328 5.01562C8.46406 5.03203 7.21953 5.05078 6.38516 5.88516C5.55078 6.71953 5.53203 7.96875 5.51562 9.06328C5.50508 9.72891 5.4957 10.3523 5.31992 10.7836C5.13008 11.2418 4.65781 11.734 4.20078 12.2109C3.45547 12.9891 2.60938 13.8703 2.60938 15C2.60938 16.1297 3.45547 17.0109 4.20078 17.7891C4.65781 18.266 5.13008 18.7582 5.31992 19.2164C5.4957 19.6418 5.50508 20.2711 5.51562 20.9367C5.53203 22.0359 5.55078 23.2805 6.38516 24.1148C7.21953 24.9492 8.46875 24.968 9.56328 24.9844C10.2289 24.9949 10.8523 25.0043 11.2836 25.1801C11.7418 25.3699 12.234 25.8422 12.7109 26.2992C13.4891 27.0445 14.3703 27.8906 15.5 27.8906C16.6297 27.8906 17.5109 27.0445 18.2891 26.2992C18.766 25.8422 19.2582 25.3699 19.7164 25.1801C20.1418 25.0043 20.7711 24.9949 21.4367 24.9844C22.5359 24.968 23.7805 24.9492 24.6148 24.1148C25.4492 23.2805 25.468 22.0359 25.4844 20.9367C25.4949 20.2711 25.5043 19.6477 25.6801 19.2164C25.8699 18.7582 26.3422 18.266 26.7992 17.7891C27.5445 17.0109 28.3906 16.1297 28.3906 15C28.3906 13.8703 27.5445 12.9891 26.7992 12.2109ZM25.7844 16.8164C25.2371 17.3859 24.6711 17.9766 24.3781 18.6797C24.0992 19.3523 24.0875 20.1469 24.0758 20.9156C24.0629 21.7875 24.0488 22.6898 23.6187 23.1211C23.1887 23.5523 22.2852 23.5652 21.4133 23.5781C20.6445 23.5898 19.85 23.6016 19.1773 23.8805C18.4742 24.1711 17.8883 24.7371 17.3129 25.2867C16.6977 25.8727 16.0613 26.4867 15.4977 26.4867C14.934 26.4867 14.2977 25.8762 13.6813 25.2867C13.1117 24.7395 12.5211 24.1734 11.818 23.8805C11.1453 23.6016 10.3508 23.5898 9.58203 23.5781C8.71016 23.5652 7.80781 23.5512 7.37656 23.1211C6.94531 22.691 6.93242 21.7875 6.91953 20.9156C6.90781 20.1469 6.89609 19.3523 6.61719 18.6797C6.32656 17.9766 5.76055 17.3906 5.21094 16.8152C4.62617 16.2 4.01562 15.5637 4.01562 15C4.01562 14.4363 4.62617 13.8 5.21563 13.1836C5.76289 12.6141 6.32891 12.0234 6.62188 11.3203C6.90078 10.6477 6.9125 9.85312 6.92422 9.08437C6.93711 8.2125 6.95117 7.31016 7.38125 6.87891C7.81133 6.44766 8.71484 6.43477 9.58672 6.42188C10.3555 6.41016 11.15 6.39844 11.8227 6.11953C12.5258 5.82891 13.1117 5.26289 13.6871 4.71328C14.3 4.12617 14.9363 3.51562 15.5 3.51562C16.0637 3.51562 16.7 4.12617 17.3164 4.71563C17.8859 5.26289 18.4766 5.82891 19.1797 6.12188C19.8523 6.40078 20.6469 6.4125 21.4156 6.42422C22.2875 6.43711 23.1898 6.45117 23.6211 6.88125C24.0523 7.31133 24.0652 8.21484 24.0781 9.08672C24.0898 9.85547 24.1016 10.65 24.3805 11.3227C24.6711 12.0258 25.2371 12.6117 25.7867 13.1871C26.3727 13.8023 26.9867 14.4387 26.9867 15.0023C26.9867 15.566 26.3738 16.2 25.7844 16.8164ZM20.6844 11.6906C20.816 11.8225 20.89 12.0012 20.89 12.1875C20.89 12.3738 20.816 12.5525 20.6844 12.6844L14.1219 19.2469C13.99 19.3785 13.8113 19.4525 13.625 19.4525C13.4387 19.4525 13.26 19.3785 13.1281 19.2469L10.3156 16.4344C10.1914 16.3011 10.1238 16.1248 10.127 15.9426C10.1302 15.7605 10.204 15.5867 10.3329 15.4579C10.4617 15.329 10.6355 15.2552 10.8176 15.252C10.9998 15.2488 11.1761 15.3164 11.3094 15.4406L13.625 17.7551L19.6906 11.6906C19.8225 11.559 20.0012 11.485 20.1875 11.485C20.3738 11.485 20.5525 11.559 20.6844 11.6906Z" fill="#246E79"/>
</svg>
