<svg width="86" height="100" viewBox="0 0 86 100" fill="none" xmlns="http://www.w3.org/2000/svg">
<path d="M38.8017 0H46.1913L50.8938 1.00767L54.5886 2.68712L57.9475 4.70247L61.3064 7.72548L64.3294 11.4203L66.6806 16.1227L68.0242 21.8329V28.8866L67.0165 33.2531L64.3294 38.6274L61.9781 41.6504L58.9551 44.6734L54.5886 47.3605L50.5579 49.04L46.1913 50.0477H39.4735L34.0993 48.7041L28.725 46.017L24.3584 42.3222L21.3354 38.2915L18.9842 33.589L17.6406 28.2148V21.1611L18.9842 15.7868L21.6713 10.7485L24.0225 7.72548H24.6943L25.3661 6.38192L29.3968 3.3589L34.4351 1.00767L38.8017 0ZM41.1529 2.01534L37.1223 2.68712L32.7557 4.36657L31.748 5.03836L32.4198 7.0537L33.7634 8.39726L34.4351 7.72548L36.1146 8.06137L37.1223 9.40493V11.0844L36.4505 11.4203V12.0921L37.4582 12.4279L37.794 14.7792L36.1146 15.1151V16.4586L34.0993 17.8022L33.0916 19.4816V22.1688L34.0993 22.5047V23.5123L31.748 22.5047L31.4121 21.8329L32.4198 21.497L31.4121 20.1534L29.0609 20.4893V22.5047H30.4045V21.8329H31.0762V24.1841L31.4121 24.8559L35.1069 25.1918L37.1223 26.5353L38.4658 28.2148L40.8171 28.8866L40.1453 30.566L39.8094 32.9173L37.4582 35.9403L36.1146 37.6197V39.971L36.7864 41.3145L35.4428 40.6427L34.0993 37.6197L33.7634 34.9326V31.5737L31.748 28.8866L32.0839 26.1994L30.7403 25.5277L29.0609 23.8482L27.3814 22.8405L25.0302 20.4893L24.0225 17.8022V13.0997L22.679 13.7715L21.3354 15.7868L19.9919 20.1534L19.656 22.1688V26.8712L20.6636 31.5737L22.3431 35.6044L24.6943 39.2992L26.7097 41.6504H27.3814V42.3222L31.748 45.3452L35.7787 47.0247L40.1453 48.0323H45.5195L50.8938 46.6888L55.5962 44.3375L58.9551 41.6504L61.9781 38.2915L64.6653 32.9173L65.6729 29.8942L66.0088 25.8636L64.6653 27.2071L64.3294 27.8789H63.6576L63.3217 24.52L61.6423 22.8405L59.6269 21.8329H58.9551L59.291 22.8405L59.9628 23.1764L60.2987 24.52L58.6192 25.1918L57.6116 25.5277V26.1994L58.6192 26.8712L56.268 29.8942L55.9321 32.9173L53.9168 35.2685L52.9091 36.612L51.2297 36.2762L50.8938 34.2608L50.5579 28.2148L49.5502 27.8789V27.2071H46.1913L44.8477 25.8636L45.1836 20.8252L46.5272 20.1534V17.4663L46.8631 16.7945L47.8708 16.4586V14.1074H46.1913L46.8631 12.4279L47.8708 12.7638L48.2066 14.1074H49.2143L50.222 12.0921L49.5502 11.7562L49.8861 10.0767L50.5579 8.73315L51.9014 7.72548L53.5809 8.06137L55.9321 8.39726L57.6116 8.06137L56.9398 6.71781L53.245 4.36657L49.8861 3.02301L44.8477 2.01534H41.1529ZM34.771 9.40493L32.4198 11.4203L33.0916 12.7638L34.0993 13.0997L35.4428 10.7485V9.40493H34.771ZM51.9014 10.4126L51.5655 11.7562V12.7638H52.5732L52.2373 10.4126H51.9014ZM54.2527 16.4586V17.4663L54.5886 17.8022H56.6039L55.2603 16.4586H54.2527ZM49.5502 16.7945L48.5425 18.1381L48.8784 18.8099H50.8938L51.5655 20.1534L53.5809 20.8252H54.9244L55.9321 24.1841L56.6039 25.5277H56.9398V23.5123H56.268L55.2603 19.4816L53.5809 18.474H52.2373L51.9014 17.4663H50.5579V16.7945H49.5502ZM57.9475 16.7945L58.6192 19.4816H59.291L58.9551 17.1304L57.9475 16.7945Z" fill="#FDFDFD"/>
<path d="M29.3964 81.9573H34.0988V82.6291L23.3504 83.6367L15.6249 84.9803L10.5865 86.3239L6.55584 88.3392L5.54817 89.3469L5.88406 91.0263L7.56351 92.3699L11.5942 94.0493L16.6325 95.3929L25.7016 96.7365L33.4271 97.4082H52.5728L63.3213 96.4006L72.0545 94.7211L77.0928 93.0417L80.1158 91.3622L80.4517 89.6828L78.7723 88.0033L75.4134 86.3239L68.6955 84.6444L58.9547 83.3008L51.2293 82.6291L50.8934 81.9573H56.2676L66.6802 82.9649L73.0621 83.9726L80.1158 85.988L83.4747 87.6674L85.1542 89.3469V91.6981L82.8029 93.7134L80.1158 95.057L73.7339 96.7365L65.0008 98.08L58.2829 98.7518L50.8934 99.0877H34.7706L23.3504 98.4159L13.6095 97.0723L7.8994 95.7288L3.86872 94.0493L1.85337 92.7058L0.845703 91.3622V89.3469L2.52515 87.6674L7.22762 85.3162L14.2813 83.6367L21.335 82.6291L29.3964 81.9573Z" fill="#EFFDF8"/>
<path d="M30.4043 49.3759L32.0837 49.7117L37.458 51.3912L39.4733 51.7271H46.1911L51.9013 50.3835L54.9243 49.3759L55.2602 50.0476L50.2218 59.7885L48.2065 65.8345L47.1988 74.2317L45.8553 89.6827L44.5117 90.0186L44.1758 89.3468V66.8422L44.8476 62.8115L46.8629 59.1167L50.8936 53.7424L42.8322 54.4142L36.7862 53.7424L34.7709 53.0706L39.1374 63.1474L39.8092 65.4986L40.1451 70.2011L40.481 78.2624V90.0186L39.8092 89.6827L39.1374 82.2931L38.1298 71.8805L36.7862 64.4909L35.1068 59.7885L32.0837 54.4142L30.4043 49.7117V49.3759Z" fill="#FDFDFD"/>
<path d="M22.0072 10.4126L22.3431 11.7562V12.4279L23.6867 11.7562L24.3584 12.4279V17.1304L25.0302 18.8099V20.1534L26.7097 20.4893L27.7173 22.5046L27.0456 22.8405L24.6943 20.4893L23.6867 17.8022V13.4356L22.0072 15.1151L20.6636 18.8099L19.9919 22.1688V26.8712L20.9995 31.5737L22.679 35.6044L25.0302 39.2992L26.7097 41.3145L27.3814 41.6504V42.3222L28.725 42.994L32.4198 45.3452L36.7864 47.0246L40.1453 47.6964H45.5195L50.8938 46.3529L55.5962 44.0016L57.9475 42.3222V43.3298H57.2757L56.9398 44.3375L55.9321 44.6734L56.6039 45.3452L57.9475 45.0093L56.9398 46.017L51.5655 48.7041L46.1913 50.0477H39.4735L34.0993 48.7041L28.725 46.017L24.3584 42.3222L21.3354 38.2915L18.9842 33.589L17.6406 28.2148V21.1611L18.9842 15.7868L21.6713 10.7485L22.0072 10.4126Z" fill="#EFFDF8"/>
<path d="M32.084 84.9802H36.4505L36.1146 85.652L26.0379 87.3315L22.0072 88.675L21.6714 90.0186L25.0303 91.3621L30.0686 92.3698L37.1223 93.0416H48.2067L55.2604 92.3698L60.9705 91.3621L64.3294 90.0186L63.9935 88.675L59.9629 87.3315L53.5809 86.3238L48.5426 85.652V84.9802H53.5809L61.3064 85.9879L66.0089 87.3315L67.6883 88.675L68.0242 89.6827L67.3524 91.0263L64.6653 92.3698L59.2911 93.7134L53.9168 94.3852L49.2144 94.721H36.1146L29.0609 94.0493L22.3431 92.7057L19.3201 91.3621L17.9766 90.0186L18.3125 88.3391L20.6637 86.9956L26.3738 85.652L32.084 84.9802Z" fill="#F1FDF8"/>
<path d="M32.4193 7.05371L33.7628 8.06138L34.4346 7.3896L36.1141 7.72549L37.4576 9.40494V11.0844L36.4499 11.4203V12.0921L37.7935 12.428L38.1294 14.7792L36.4499 15.1151L36.1141 16.7945L34.0987 18.1381L33.4269 19.4817V22.1688L34.0987 22.5047V23.5123L32.0834 23.1764L31.4116 21.8329L32.0834 21.497L31.4116 20.4893H29.0604V22.5047H30.4039V21.8329H31.0757L31.4116 24.8559L33.091 24.52L35.7782 25.1918L37.4576 26.5354L38.4653 27.8789L40.8165 28.8866L40.1447 32.9173L37.7935 35.9403L36.4499 37.6197V39.971L36.7858 41.3145L35.4423 40.9786L33.7628 37.6197L33.4269 34.9326V31.5737L31.4116 28.8866L31.7475 26.1995L30.4039 25.5277L29.0604 24.1841L27.7168 23.5123L28.3886 20.4893L29.3962 19.4817L31.7475 19.1458V19.8175L32.4193 19.4817L33.4269 17.1304L35.4423 16.1228V14.1074V13.4356L34.7705 13.7715V15.1151L33.4269 15.451L33.091 12.7638H34.0987L35.4423 9.40494L33.4269 10.7485L32.7552 11.0844L33.4269 9.06905L32.7552 8.73316V7.72549L32.0834 7.3896L32.4193 7.05371Z" fill="#EFFDF8"/>
<path d="M30.4043 49.3759L32.0837 49.7117L37.458 51.3912L39.4733 51.7271H46.1911L51.9013 50.3835L52.9089 50.7194L51.2295 51.0553L50.8936 51.7271L46.8629 52.3989L43.1681 52.7348L42.8322 53.4065H46.8629L51.5654 52.7348V54.7501H50.8936V55.4219L49.8859 56.4296L47.8706 58.7808V57.7731L50.8936 53.7424L42.8322 54.4142L36.7862 53.7424L34.7709 53.0706L39.1374 63.1474L39.8092 65.4986L40.1451 70.2011L40.481 78.2624V90.0186L39.8092 89.6827L39.1374 82.2931L38.1298 71.8805L36.7862 64.4909L35.1068 59.7885L32.0837 54.4142L30.4043 49.7117V49.3759Z" fill="#EFFDF8"/>
<path d="M49.5502 19.1458L50.8937 19.4816L51.2296 20.8252L54.2526 21.1611L54.9244 22.1688V24.1841L55.9321 24.52L56.6039 25.8636L57.9474 27.2071L56.268 28.8866L55.9321 32.5814L54.5885 33.2531L53.245 35.9403L51.9014 36.2762L51.2296 35.9403L50.8937 32.9173V27.2071H50.2219V26.1994L47.5348 27.2071L45.8554 26.5353L45.1836 24.52L45.5195 21.8329L46.1913 20.8252L48.2066 19.8175L49.5502 19.1458Z" fill="#FDFDFD"/>
<path d="M42.8323 1.00769L45.5194 1.34358L49.2142 2.01536V2.68714H51.9013L53.2449 3.35892L53.5808 4.0307L55.5961 4.36659L56.6038 5.37426H57.2756L56.6038 4.70248H57.9474L58.2832 6.04605L58.6191 7.7255L57.9474 8.73317L55.932 9.06906L51.5654 8.73317L50.8937 9.40495L51.2295 10.0767L52.2372 9.74084L53.2449 10.7485L52.909 13.0997L51.5654 13.7715L50.2219 13.4356L48.5424 15.1151V15.7869V16.7945L50.8937 16.4586L51.9013 17.4663H50.5578V16.7945L49.5501 17.1304L48.8783 18.474H50.8937L51.5654 20.1534H53.2449L54.9243 20.8252L56.6038 25.1918L57.2756 24.1841L58.6191 24.52L59.6268 23.5123L57.6115 23.1765V22.5047L58.2832 22.1688L58.6191 21.1611L59.6268 21.497L58.955 21.8329L60.2986 23.1765V24.52L58.6191 25.5277H57.6115V26.1995L58.955 26.5354L57.6115 28.5507L56.6038 29.8943L56.2679 32.9173L54.2526 35.2685L52.909 36.948L51.2295 36.6121L50.5578 34.2608L50.2219 28.2148L49.5501 27.8789V27.2071L46.1912 27.543L44.5117 25.8636L44.8476 21.497L46.1912 20.1534V17.4663L46.863 16.4586H47.8706L47.5348 14.4433L46.1912 14.1074L46.5271 12.428H47.8706L48.2065 14.1074H49.2142L49.886 12.428L49.2142 11.7562L49.5501 10.0767L50.5578 8.39728L51.9013 7.38961L53.5808 7.7255L55.932 8.06139H57.6115L55.932 6.38194L52.5731 4.36659L47.1989 2.68714L44.8476 2.35125H41.1528L37.1222 3.02303L32.7556 4.70248L32.0838 5.03837L31.7479 6.38194L30.7402 5.37426V4.36659L33.7632 3.35892L37.458 2.01536L42.8323 1.00769ZM51.9013 10.4126L51.5654 11.7562V12.7639H52.5731L52.2372 10.4126H51.9013ZM49.5501 19.1458L46.1912 20.8252L45.5194 21.8329L45.1835 25.1918L46.1912 26.8712L47.8706 27.2071L50.2219 26.1995V27.2071H50.8937V33.9249L51.2295 35.9403L52.5731 36.2762L53.5808 35.6044L54.9243 32.9173L55.932 32.5814L56.2679 28.8866L57.9474 27.2071L56.2679 25.5277L55.5961 24.1841H54.9243V22.1688L54.2526 21.1611H52.2372L51.2295 20.8252L50.5578 19.1458H49.5501Z" fill="#EFFDF8"/>
<path d="M29.3964 81.9573H34.0988V82.6291L23.3504 83.6367L15.6249 84.9803L10.5865 86.3239L6.55584 88.3392L5.54817 89.3469H4.87639L5.88406 91.6981L6.21995 92.7058L7.8994 93.0417L8.90707 94.0493L13.2736 95.057L13.6095 96.4006L11.9301 96.7365L5.88406 95.057L2.18926 93.0417L0.845703 91.3622V89.3469L2.52515 87.6674L7.22762 85.3162L14.2813 83.6367L21.335 82.6291L29.3964 81.9573Z" fill="#EFFDF8"/>
<path d="M50.8936 81.9573H56.2678L66.6804 82.9649L73.0623 83.9726L80.116 85.988L83.4749 87.6674L84.4826 88.6751L84.8185 91.3622L83.4749 92.034V92.7058L79.7801 94.7211L75.4135 95.7288H73.7341L72.3905 96.4006H71.7188L72.3905 95.057H74.7418V94.3852L79.1083 92.7058H79.7801L80.4519 89.6828L78.7725 88.0033L75.4135 86.3238L68.6957 84.6444L58.9549 83.3008L51.2294 82.6291L50.8936 81.9573Z" fill="#EFFDF8"/>
<path d="M32.4199 24.856L35.4429 25.5277V26.1995L36.7864 26.5354L37.1223 27.5431L38.8018 28.5508L39.8095 28.8866L40.1454 30.2302L39.1377 34.2609L38.13 35.6044H36.7864L36.4506 36.2762L35.7788 37.2839L35.4429 38.9634H34.7711L34.0993 36.948V31.2379L33.4275 29.8943L32.4199 29.5584L32.084 27.879L32.4199 26.1995L32.084 25.1918L32.4199 24.856Z" fill="#FDFDFD"/>
<path d="M30.4043 49.3759L32.0837 49.7117L33.4273 51.0553L37.1221 52.063L35.7785 52.7348H34.0991L34.7709 54.7501V55.4219L35.7785 56.4296L36.4503 58.4449L38.8016 63.4832L39.4733 67.8498L39.8092 72.5523V76.9189L39.1374 75.9112L38.1298 67.8498L37.7939 64.4909L35.7785 60.4602V59.7885L34.7709 59.4526L32.0837 54.4142L30.4043 49.7117V49.3759Z" fill="#FBFDFC"/>
<path d="M42.1596 3.02307H44.175L45.1827 3.69485L45.5185 5.71019L44.5109 7.38965L45.1827 8.39732V9.40499L43.5032 9.74088L42.4955 9.40499L41.8237 11.7562L40.4802 12.0921L39.4725 10.4127L39.8084 8.06143L40.1443 7.38965L38.8007 7.05376L38.4648 6.04608L39.4725 5.03841L42.1596 3.02307Z" fill="#FDFDFD"/>
<path d="M49.55 59.7885L49.8859 60.7961L48.2065 65.8345L47.1988 74.2317L45.8552 89.6827L44.5117 90.0186L44.1758 89.3468V66.8421L44.8476 62.8115L45.5193 62.1397L45.1835 66.1704L44.8476 82.2931L45.1835 85.652L45.5193 84.3084L45.8552 77.9265L46.1911 76.2471L46.527 68.8575L47.8706 64.155L48.8782 60.7961L49.55 59.7885Z" fill="#EFFDF8"/>
<path d="M55.2603 15.7869L57.2756 16.4586L57.6115 17.1304V16.1228L58.9551 16.4586L59.9627 17.8022L60.2986 18.8099V20.1534H59.6268L59.291 21.1611L58.6192 21.497V22.5047H57.6115V23.1765L59.6268 23.5123L59.291 24.52L57.6115 24.8559L56.9397 23.5123H56.2679L55.2603 21.1611L54.9244 19.4817L51.9014 18.474V17.4663L53.5808 17.8022L52.909 16.7945L55.2603 15.7869ZM54.2526 16.4586V17.4663L54.5885 17.8022H56.6038L55.2603 16.4586H54.2526ZM57.9474 16.7945L58.6192 19.4817H59.291L58.9551 17.1304L57.9474 16.7945Z" fill="#F9FDFC"/>
<path d="M80.7878 87.3315L82.4672 87.6674L83.139 88.0033V88.6751H84.4826L84.8185 91.3622L83.4749 92.034V92.7058L79.7801 94.7211L75.4135 95.7288H73.7341L72.3905 96.4006H71.7188L72.3905 95.057H74.7418V94.3852L79.1083 92.7058H79.7801L80.116 91.6981L81.1237 90.3546L80.4519 88.0033L80.7878 87.3315Z" fill="#FDFDFD"/>
<path d="M3.19703 87.6674H4.87648L5.21237 89.3468L5.54826 91.3622L6.22004 92.7057L7.89949 93.0416L8.90717 94.0493L13.2737 95.0569L13.6096 95.7287L11.9302 96.0646L9.24306 95.3928L5.54826 94.0493L2.18936 92.3698L1.51758 90.6904L1.85347 89.0109L3.19703 87.6674Z" fill="#FDFDFD"/>
<path d="M20.999 89.6827L23.6861 91.0263L30.0681 92.3699L41.8242 93.3775V93.7134L39.1371 94.0493L43.1678 94.3852V94.7211H36.1141L29.0604 94.0493L25.7015 93.3775L26.0374 92.7058L27.045 92.3699L23.6861 92.034L20.999 90.6904V89.6827Z" fill="#EFFDF8"/>
<path d="M54.2526 45.3452L54.9243 45.6811V46.6888L53.5808 47.3606H51.9013V48.0323L48.8783 49.04L44.1758 49.7118H40.8169L35.7786 48.7041L31.412 47.0247L30.7402 46.017L32.0838 45.6811L36.1145 47.6964L40.8169 48.3682V49.04L47.1989 48.0323H49.5501L49.886 47.3606L52.909 46.017L54.2526 45.3452Z" fill="#FEFEFE"/>
<path d="M63.993 33.9249L64.3289 34.9326L62.6494 38.2915L63.6571 38.9633L62.9853 40.6427L58.9546 44.6734L56.2675 45.6811L55.5957 44.6734L56.9393 44.0016L57.9469 42.994L58.9546 41.3145L61.6417 38.2915L63.993 33.9249Z" fill="#F5FDFA"/>
<path d="M18.3125 19.8175L19.3201 20.1534V27.8789L20.6637 32.2454L20.3278 32.9172H20.9996L22.3431 36.612L22.679 38.2915L21.6714 37.9556L21.3355 36.2761H20.6637L19.9919 34.2608V32.9172H19.3201L18.3125 29.8942L17.9766 24.1841L18.3125 19.8175Z" fill="#FDFDFD"/>
<path d="M35.7782 57.7732L36.7859 58.7809L38.4653 62.8115L39.1371 64.491L39.473 69.1935L39.8089 72.5524V76.9189L39.1371 75.9113L38.1295 67.8499L37.7936 64.491L35.4423 59.7885L35.1064 58.445H35.7782V57.7732Z" fill="#FDFDFD"/>
<path d="M42.1596 3.02307H44.175L45.1827 3.69485L45.5185 5.71019L44.5109 7.38965L45.1827 8.39732V9.40499L43.5032 9.74088L42.4955 9.40499L41.8237 11.7562L40.4802 12.0921L39.4725 10.4127L39.8084 8.06143L40.1443 7.38965L38.8007 7.05376L38.4648 6.04608L39.4725 5.03841L42.1596 3.02307ZM42.1596 3.69485L40.1443 5.3743L39.8084 6.38197L40.4802 7.72554L40.1443 11.0844L41.152 11.7562L42.4955 9.40499L44.5109 8.73321L44.175 7.72554H43.5032V6.38197L44.5109 6.04608V4.36663H43.8391V3.69485H42.1596Z" fill="#EFFDF8"/>
<path d="M48.542 84.9802H53.5803L61.3058 85.9879L64.3288 86.9956L63.9929 88.0032L61.3058 87.6673L56.6034 86.6597L48.542 85.652V84.9802Z" fill="#EFFDF8"/>
<path d="M22.6787 38.2915L24.0223 38.6274L25.7017 41.3145H26.7094L28.053 43.6657L29.7324 44.3375L30.4042 44.6734V45.3452L28.3888 45.6811L24.6941 42.6581L22.6787 40.3068V38.2915Z" fill="#FDFDFD"/>
<path d="M46.1904 0.335815H48.5417L54.2518 2.35116L56.9389 4.03061L57.6107 6.04595L55.2595 5.03828L53.2441 4.03061V3.35883L49.2134 2.68705L48.8776 1.67938L47.8699 1.0076L46.1904 0.671706V0.335815Z" fill="#F8FDFB"/>
<path d="M62.3135 9.40491L63.9929 11.0844L65.6724 13.7715L67.3518 18.4739L68.0236 21.8329V28.8865L67.0159 33.2531L66.3442 33.9249L67.0159 30.2301L67.3518 26.8712L67.0159 20.4893L65.0006 14.4433L63.657 12.092L62.3135 10.0767V9.40491Z" fill="#EFFDF8"/>
<path d="M32.0837 84.9802H36.4503L36.1144 85.652L26.0377 87.3315L23.6865 87.6673L23.3506 86.9956H24.0224V86.3238L26.3736 85.652L32.0837 84.9802Z" fill="#EFFDF8"/>
<path d="M55.2604 15.7869L57.2758 16.4586L57.6116 17.1304V16.1228L58.9552 16.4586L59.9629 17.8022L60.2988 18.8099V20.1534H59.627V20.8252H58.9552V20.1534H58.2834L57.9475 17.8022H57.2758L56.9399 19.4817L55.9322 18.8099V18.1381L53.581 17.8022L52.9092 16.7945L55.2604 15.7869ZM54.2527 16.4586V17.4663L54.5886 17.8022H56.604L55.2604 16.4586H54.2527ZM57.9475 16.7945L58.6193 19.4817H59.2911L58.9552 17.1304L57.9475 16.7945Z" fill="#EFFDF8"/>
<path d="M31.0761 45.681L32.4197 46.0169L35.4427 47.3605L36.1145 47.6964L40.8169 48.3682V49.0399H43.1682V49.3758L40.8169 49.7117L35.7786 48.704L31.412 47.0246L30.7402 46.0169L31.0761 45.681Z" fill="#FEFEFE"/>
<path d="M60.2987 21.4969L60.6346 22.1687L62.65 22.8405L63.6576 23.8482L64.3294 26.1994L64.6653 26.5353L65.3371 24.8559L66.3448 25.1917L66.6807 27.543L65.0012 33.589L64.3294 33.9249L65.0012 30.9019L65.673 27.2071V26.1994L64.3294 28.2148L63.3217 27.8789L62.9859 24.52L61.6423 23.1764L59.627 22.1687L60.2987 21.4969Z" fill="#EFFDF8"/>
<path d="M32.084 50.0476L33.7634 50.3835L40.4812 52.0629L40.1454 53.4065H37.4582L36.4506 52.7347H37.1223V52.0629L34.0993 51.7271L32.084 50.3835V50.0476Z" fill="#EFFDF8"/>
<path d="M32.4199 7.05371L33.7634 8.06138L34.4352 7.3896L36.1147 7.72549L37.1223 9.06905L36.7864 10.7485H35.7788L35.4429 9.74083L33.7634 10.4126L32.7558 11.0844L33.4275 9.06905L32.7558 8.73316V7.72549L32.084 7.3896L32.4199 7.05371Z" fill="#F2FDF9"/>
<path d="M20.3269 87.6674L21.3346 88.0032L20.9987 90.6904L23.3499 91.3622L23.6858 92.0339L22.6781 92.3698L18.9834 90.6904L18.6475 89.0109L19.3192 88.3391H20.3269V87.6674Z" fill="#FDFDFD"/>
<path d="M54.5882 49.3759L55.2599 50.0476L50.2216 59.7885L49.5498 58.4449L49.8857 57.7731H50.5575L51.2293 56.0937L53.2446 52.063V51.3912H53.9164V50.3835L52.9087 50.0476L54.5882 49.3759Z" fill="#EFFDF8"/>
<path d="M22.6787 38.2915L24.0223 38.6274L24.6941 40.3068L26.0376 42.994L26.7094 43.3299L26.3735 44.0016L24.0223 41.9863L22.6787 40.3068V38.2915Z" fill="#FAFDFC"/>
<path d="M21.6706 12.7638L22.3423 14.1074L20.9988 17.4663H20.327V16.7945H19.3193L19.6552 15.4509H20.6629L20.9988 13.4356L21.6706 12.7638Z" fill="#F6FDFB"/>
<path d="M46.1904 0.335815H48.5417L51.5647 1.34349L51.9006 2.68705L50.2211 3.02294L49.2134 2.68705L48.8776 1.67938L47.8699 1.0076L46.1904 0.671706V0.335815Z" fill="#F6FDFA"/>
<path d="M59.2905 41.6504L59.9623 42.994L58.2828 44.3375L57.2752 45.3452L56.2675 45.6811L55.5957 44.6734L56.9393 44.0016L58.6187 42.3222L59.2905 41.6504Z" fill="#FEFEFE"/>
<path d="M54.2525 45.3452L54.9242 45.6811V46.6888L53.5807 47.3606H51.9012V48.0323L50.8936 48.3682V47.3606L53.5807 45.6811L54.2525 45.3452Z" fill="#FDFDFD"/>
<path d="M57.6112 32.2455L58.6189 32.5814L57.6112 35.6044L56.6035 35.9403L56.9394 32.9173L57.6112 32.2455Z" fill="#EFFDF8"/>
<path d="M65.6727 88.675L67.0162 89.0109L66.6803 90.6904L65.0009 91.3622H64.3291V90.6904H65.0009L65.3368 89.0109L65.6727 88.675Z" fill="#FCFDFD"/>
<path d="M26.709 44.0017H29.3961L30.4038 44.6735V45.3453L28.3884 45.6812L26.709 44.0017Z" fill="#F8FDFB"/>
<path d="M35.1063 13.0997L36.1139 13.7715L35.778 16.1227L34.4345 16.4586V15.7869L33.7627 15.451L34.7704 15.1151L34.4345 13.7715L35.1063 13.0997Z" fill="#FEFEFE"/>
<path d="M30.4043 49.3759L32.0837 49.7117L31.7479 51.7271L32.4196 52.3989L32.7555 54.7501L32.0837 54.4142L30.4043 49.7117V49.3759Z" fill="#EFFDF8"/>
<path d="M76.7568 85.652L78.7721 85.9879L80.7875 86.6596V87.3314L79.7798 87.6673L77.4286 86.6596L76.4209 85.9879L76.7568 85.652Z" fill="#FDFDFD"/>
<path d="M23.3506 40.6428L24.6941 40.9787L26.0377 42.6582L26.7095 44.0017L25.03 42.9941L23.3506 40.9787V40.6428Z" fill="#F0FDF8"/>
<path d="M65.6726 33.9249H66.3443L66.0085 35.6044L64.329 38.6274L63.6572 37.9556L65.0008 35.6044L65.6726 33.9249Z" fill="#EFFDF8"/>
<path d="M57.6112 23.1764L59.6266 23.5123L59.2907 24.52L57.6112 24.8558L56.9395 23.8482L57.6112 23.1764Z" fill="#FEFEFE"/>
<path d="M37.4579 52.063L40.4809 52.3989L40.145 53.4065H37.4579L36.4502 52.7348L37.4579 52.063Z" fill="#FCFDFD"/>
<path d="M46.8622 12.092L48.2058 12.7638L47.534 14.1074H46.1904L46.5263 12.4279L46.8622 12.092Z" fill="#F1FDF9"/>
<path d="M58.2832 5.37427L59.6268 6.04605L62.3139 8.73317L61.978 9.40495L58.6191 6.04605L58.2832 5.37427Z" fill="#EFFDF8"/>
</svg>
