<svg width="112" height="130" viewBox="0 0 112 130" fill="none" xmlns="http://www.w3.org/2000/svg">
<path d="M50.519 0.31665H60.1667L66.3061 1.63224L71.13 3.8249L75.5153 6.45608L79.9006 10.4029L83.8474 15.2267L86.9171 21.3661L88.6712 28.8211V38.0303L87.3556 43.7312L83.8474 50.7477L80.7777 54.6945L76.8309 58.6412L71.13 62.1495L65.8676 64.3421L60.1667 65.6577H51.3961L44.3796 63.9036L37.3631 60.3954L31.6622 55.5715L27.7154 50.3092L24.6457 44.1697L22.8916 37.1532V27.9441L24.6457 20.9276L28.154 14.3496L31.2237 10.4029H32.1007L32.9778 8.64874L38.2402 4.70196L44.8181 1.63224L50.519 0.31665ZM53.5888 2.94783L48.3264 3.8249L42.6255 6.01755L41.3099 6.89461L42.187 9.5258L43.9411 11.2799L44.8181 10.4029L47.0108 10.8414L48.3264 12.5955V14.7882L47.4493 15.2267V16.1038L48.7649 16.5423L49.2034 19.612L47.0108 20.0505V21.8047L44.3796 23.5588L43.064 25.7514V29.2597L44.3796 29.6982V31.0138L41.3099 29.6982L40.8714 28.8211L42.187 28.3826L40.8714 26.6285L37.8016 27.067V29.6982H39.5558V28.8211H40.4328V31.8909L40.8714 32.7679L45.6952 33.2065L48.3264 34.9606L50.0805 37.1532L53.1502 38.0303L52.2732 40.2229L51.8346 43.2927L48.7649 47.2394L47.0108 49.4321V52.5018L47.8879 54.2559L46.1337 53.3789L44.3796 49.4321L43.9411 45.9239V41.5385L41.3099 38.0303L41.7484 34.522L39.9943 33.645L37.8016 31.4523L35.609 30.1367L32.5393 27.067L31.2237 23.5588V17.4193L29.4696 18.2964L27.7154 20.9276L25.9613 26.6285L25.5228 29.2597V35.3991L26.8384 41.5385L29.031 46.8009L32.1007 51.6248L34.7319 54.6945H35.609V55.5715L41.3099 59.5183L46.5723 61.711L52.2732 63.0266H59.2897L66.3061 61.2724L72.4456 58.2027L76.8309 54.6945L80.7777 50.3092L84.2859 43.2927L85.6015 39.3459L86.04 34.0835L84.2859 35.8376L83.8474 36.7147H82.9703L82.5318 32.3294L80.3391 30.1367L77.7079 28.8211H76.8309L77.2694 30.1367L78.1465 30.5753L78.585 32.3294L76.3924 33.2065L75.0768 33.645V34.522L76.3924 35.3991L73.3226 39.3459L72.8841 43.2927L70.2529 46.3624L68.9373 48.1165L66.7447 47.678L66.3061 45.0468L65.8676 37.1532L64.552 36.7147V35.8376H60.1667L58.4126 34.0835L58.8511 27.5056L60.6052 26.6285V23.1203L61.0438 22.2432L62.3594 21.8047V18.7349H60.1667L61.0438 16.5423L62.3594 16.9808L62.7979 18.7349H64.1135L65.4291 16.1038L64.552 15.6652L64.9906 13.4726L65.8676 11.7185L67.6217 10.4029L69.8144 10.8414L72.8841 11.2799L75.0768 10.8414L74.1997 9.08727L69.3759 6.01755L64.9906 4.26343L58.4126 2.94783H53.5888ZM45.2567 12.5955L42.187 15.2267L43.064 16.9808L44.3796 17.4193L46.1337 14.3496V12.5955H45.2567ZM67.6217 13.9111L67.1832 15.6652V16.9808H68.4988L68.0603 13.9111H67.6217ZM70.6915 21.8047V23.1203L71.13 23.5588H73.7612L72.007 21.8047H70.6915ZM64.552 22.2432L63.2364 23.9973L63.675 24.8744H66.3061L67.1832 26.6285L69.8144 27.5056H71.5685L72.8841 31.8909L73.7612 33.645H74.1997V31.0138H73.3226L72.007 25.7514L69.8144 24.4358H68.0603L67.6217 23.1203H65.8676V22.2432H64.552ZM75.5153 22.2432L76.3924 25.7514H77.2694L76.8309 22.6817L75.5153 22.2432Z" fill="#1B485A"/>
<path d="M38.24 107.318H44.3794V108.195L30.3464 109.511L20.2602 111.265L13.6822 113.019L8.41987 115.65L7.10427 116.966L7.54281 119.159L9.73546 120.913L14.9978 123.105L21.5758 124.859L33.4161 126.614L43.5023 127.491H68.4986L82.5316 126.175L93.9334 123.982L100.511 121.79L104.458 119.597L104.897 117.404L102.704 115.212L98.3187 113.019L89.5481 110.826L76.8307 109.072L66.7445 108.195L66.3059 107.318H73.3224L86.9169 108.634L95.249 109.949L104.458 112.581L108.843 114.773L111.036 116.966V120.036L107.966 122.667L104.458 124.421L96.126 126.614L84.7242 128.368L75.9536 129.245L66.3059 129.683H45.2565L30.3464 128.806L17.629 127.052L10.174 125.298L4.91162 123.105L2.28044 121.351L0.964844 119.597V116.966L3.1575 114.773L9.29693 111.704L18.5061 109.511L27.7152 108.195L38.24 107.318Z" fill="#1B485A"/>
<path d="M39.5557 64.7806L41.7483 65.2192L48.7648 67.4118L51.396 67.8504H60.1666L67.6216 66.0962L71.5684 64.7806L72.0069 65.6577L65.429 78.3751L62.7978 86.2686L61.4822 97.2319L59.7281 117.404L57.974 117.843L57.5354 116.966V87.5842L58.4125 82.3219L61.0437 77.498L66.306 70.4815L55.7813 71.3586L47.8877 70.4815L45.2566 69.6045L50.9575 82.7604L51.8345 85.8301L52.2731 91.9695L52.7116 102.494V117.843L51.8345 117.404L50.9575 107.757L49.6419 94.1622L47.8877 84.5145L45.6951 78.3751L41.7483 71.3586L39.5557 65.2192V64.7806Z" fill="#1B485A"/>
<path d="M28.5925 13.9111L29.031 15.6653V16.5423L30.7852 15.6653L31.6622 16.5423V22.6817L32.5393 24.8744V26.6285L34.7319 27.0671L36.0475 29.6982L35.1705 30.1368L32.1007 27.0671L30.7852 23.5588V17.8579L28.5925 20.0506L26.8384 24.8744L25.9613 29.2597V35.3991L27.2769 41.5386L29.4696 46.8009L32.5393 51.6248L34.7319 54.256L35.609 54.6945V55.5716L37.3631 56.4486L42.187 59.5183L47.8879 61.711L52.2732 62.588H59.2897L66.3062 60.8339L72.4456 57.7642L75.5153 55.5716V56.8871H74.6382L74.1997 58.2027L72.8841 58.6413L73.7612 59.5183L75.5153 59.0798L74.1997 60.3954L67.1832 63.9036L60.1667 65.6578H51.3961L44.3796 63.9036L37.3631 60.3954L31.6622 55.5716L27.7154 50.3092L24.6457 44.1698L22.8916 37.1533V27.9441L24.6457 20.9276L28.154 14.3497L28.5925 13.9111Z" fill="#1B485A"/>
<path d="M41.7484 111.265H47.4493L47.0107 112.142L33.8548 114.335L28.5924 116.089L28.1539 117.843L32.5392 119.597L39.1172 120.913L48.3263 121.79H62.7978L72.007 120.913L79.462 119.597L83.8473 117.843L83.4088 116.089L78.1464 114.335L69.8143 113.019L63.2364 112.142V111.265H69.8143L79.9005 112.581L86.04 114.335L88.2326 116.089L88.6712 117.404L87.7941 119.159L84.2859 120.913L77.2694 122.667L70.2529 123.544L64.1134 123.982H47.0107L37.8016 123.105L29.031 121.351L25.0842 119.597L23.3301 117.843L23.7686 115.65L26.8383 113.896L34.2933 112.142L41.7484 111.265Z" fill="#1B485A"/>
<path d="M42.1863 9.52588L43.9404 10.8415L44.8175 9.96441L47.0101 10.4029L48.7643 12.5956V14.7882L47.4487 15.2268V16.1038L49.2028 16.5424L49.6413 19.6121L47.4487 20.0506L47.0101 22.2433L44.379 23.9974L43.5019 25.7515V29.2598L44.379 29.6983V31.0139L41.7478 30.5754L40.8707 28.8212L41.7478 28.3827L40.8707 27.0671H37.801V29.6983H39.5551V28.8212H40.4322L40.8707 32.768L43.0634 32.3295L46.5716 33.2065L48.7643 34.9607L50.0799 36.7148L53.1496 38.0304L52.2725 43.2928L49.2028 47.2395L47.4487 49.4322V52.5019L47.8872 54.256L46.1331 53.8175L43.9404 49.4322L43.5019 45.9239V41.5386L40.8707 38.0304L41.3092 34.5221L39.5551 33.6451L37.801 31.8909L36.0469 31.0139L36.9239 27.0671L38.2395 25.7515L41.3092 25.313V26.1901L42.1863 25.7515L43.5019 22.6818L46.1331 21.3662V18.735V17.858L45.256 18.2965V20.0506L43.5019 20.4891L43.0634 16.9809H44.379L46.1331 12.5956L43.5019 14.3497L42.6248 14.7882L43.5019 12.1571L42.6248 11.7185V10.4029L41.7478 9.96441L42.1863 9.52588Z" fill="#1B485A"/>
<path d="M39.5557 64.7806L41.7483 65.2192L48.7648 67.4118L51.396 67.8504H60.1666L67.6216 66.0962L68.9372 66.5348L66.7446 66.9733L66.306 67.8504L61.0437 68.7274L56.2198 69.1659L55.7813 70.043H61.0437L67.1831 69.1659V71.7971H66.306V72.6742L64.9904 73.9898L62.3593 77.0595V75.7439L66.306 70.4815L55.7813 71.3586L47.8877 70.4815L45.2566 69.6045L50.9575 82.7604L51.8345 85.8301L52.2731 91.9695L52.7116 102.494V117.843L51.8345 117.404L50.9575 107.757L49.6419 94.1622L47.8877 84.5145L45.6951 78.3751L41.7483 71.3586L39.5557 65.2192V64.7806Z" fill="#1B485A"/>
<path d="M64.5515 25.313L66.3056 25.7515L66.7441 27.5056L70.6909 27.9442L71.568 29.2598V31.891L72.8836 32.3295L73.7606 34.0836L75.5148 35.8377L73.3221 38.0304L72.8836 42.8542L71.1294 43.7313L69.3753 47.2395L67.6212 47.6781L66.7441 47.2395L66.3056 43.2928V35.8377H65.4285V34.5221L61.9203 35.8377L59.7276 34.9607L58.8506 32.3295L59.2891 28.8212L60.1662 27.5056L62.7974 26.19L64.5515 25.313Z" fill="#1B485A"/>
<path d="M55.7812 1.6322L59.2895 2.07073L64.1133 2.94779V3.82486H67.6216L69.3757 4.70192L69.8142 5.57898L72.4454 6.01751L73.761 7.3331H74.6381L73.761 6.45604H75.5151L75.9537 8.21016L76.3922 10.4028L75.5151 11.7184L72.8839 12.1569L67.183 11.7184L66.306 12.5955L66.7445 13.4725L68.0601 13.034L69.3757 14.3496L68.9372 17.4193L67.183 18.2964L65.4289 17.8578L63.2363 20.0505V20.9276V22.2431L66.306 21.8046L67.6216 23.1202H65.8675V22.2431L64.5519 22.6817L63.6748 24.4358H66.306L67.183 26.6285H69.3757L71.5684 27.5055L73.761 33.2064L74.6381 31.8908L76.3922 32.3294L77.7078 31.0138L75.0766 30.5752V29.6982L75.9537 29.2596L76.3922 27.944L77.7078 28.3826L76.8307 28.8211L78.5848 30.5752V32.3294L76.3922 33.6449H75.0766V34.522L76.8307 34.9605L75.0766 37.5917L73.761 39.3458L73.3225 43.2926L70.6913 46.3623L68.9372 48.555L66.7445 48.1165L65.8675 45.0467L65.4289 37.1532L64.5519 36.7147V35.8376L60.1666 36.2761L57.9739 34.0835L58.4124 28.3826L60.1666 26.6285V23.1202L61.0436 21.8046H62.3592L61.9207 19.1734L60.1666 18.7349L60.6051 16.5422H62.3592L62.7977 18.7349H64.1133L64.9904 16.5422L64.1133 15.6652L64.5519 13.4725L65.8675 11.2799L67.6216 9.96429L69.8142 10.4028L72.8839 10.8413H75.0766L72.8839 8.64869L68.4986 6.01751L61.4821 3.82486L58.4124 3.38633H53.5886L48.3262 4.26339L42.6253 6.45604L41.7483 6.89457L41.3097 8.64869L39.9941 7.3331V6.01751L43.9409 4.70192L48.7648 2.94779L55.7812 1.6322ZM67.6216 13.9111L67.183 15.6652V16.9808H68.4986L68.0601 13.9111H67.6216ZM64.5519 25.3129L60.1666 27.5055L59.2895 28.8211L58.851 33.2064L60.1666 35.3991L62.3592 35.8376L65.4289 34.522V35.8376H66.306V44.6082L66.7445 47.2394L68.4986 47.6779L69.8142 46.8009L71.5684 43.2926L72.8839 42.8541L73.3225 38.0303L75.5151 35.8376L73.3225 33.6449L72.4454 31.8908H71.5684V29.2596L70.6913 27.944H68.0601L66.7445 27.5055L65.8675 25.3129H64.5519Z" fill="#1B485A"/>
<path d="M38.24 107.318H44.3794V108.195L30.3464 109.511L20.2602 111.265L13.6822 113.019L8.41987 115.65L7.10427 116.966H6.22721L7.54281 120.036L7.98134 121.351L10.174 121.79L11.4896 123.105L17.1905 124.421L17.629 126.175L15.4364 126.614L7.54281 124.421L2.71897 121.79L0.964844 119.597V116.966L3.1575 114.773L9.29693 111.704L18.5061 109.511L27.7152 108.195L38.24 107.318Z" fill="#1B485A"/>
<path d="M66.3057 107.318H73.3222L86.9166 108.634L95.2487 109.949L104.458 112.581L108.843 114.773L110.159 116.089L110.597 119.597L108.843 120.474V121.351L104.019 123.982L98.3184 125.298H96.1258L94.3716 126.175H93.4946L94.3716 124.421H97.4413V123.544L103.142 121.351H104.019L104.896 117.404L102.704 115.212L98.3184 113.019L89.5478 110.826L76.8304 109.072L66.7442 108.195L66.3057 107.318Z" fill="#1B485A"/>
<path d="M42.1866 32.7679L46.1334 33.645V34.5221L47.8875 34.9606L48.326 36.2762L50.5187 37.5918L51.8343 38.0303L52.2728 39.7844L50.9572 45.0468L49.6416 46.8009H47.8875L47.4489 47.678L46.5719 48.9936L46.1334 51.1862H45.2563L44.3792 48.5551V41.1L43.5022 39.3459L42.1866 38.9074L41.748 36.7147L42.1866 34.5221L41.748 33.2065L42.1866 32.7679Z" fill="#1B485A"/>
<path d="M39.5557 64.7806L41.7483 65.2192L43.5024 66.9733L48.3263 68.2889L46.5722 69.1659H44.3795L45.2566 71.7971V72.6742L46.5722 73.9898L47.4492 76.621L50.5189 83.1989L51.396 88.8998L51.8345 95.0393V100.74L50.9575 99.4246L49.6419 88.8998L49.2033 84.5145L46.5722 79.2522V78.3751L45.2566 77.9366L41.7483 71.3586L39.5557 65.2192V64.7806Z" fill="#1B485A"/>
<path d="M54.9039 4.26343H57.5351L58.8507 5.14049L59.2892 7.77167L57.9736 9.96433L58.8507 11.2799V12.5955L56.658 13.034L55.3424 12.5955L54.4654 15.6652L52.7113 16.1038L51.3957 13.9111L51.8342 10.8414L52.2727 9.96433L50.5186 9.5258L50.0801 8.2102L51.3957 6.89461L54.9039 4.26343Z" fill="#1B485A"/>
<path d="M64.5516 78.3751L64.9902 79.6907L62.7975 86.2687L61.4819 97.2319L59.7278 117.404L57.9737 117.843L57.5352 116.966V87.5843L58.4122 82.3219L59.2893 81.4448L58.8507 86.7072L58.4122 107.757L58.8507 112.142L59.2893 110.388L59.7278 102.056L60.1663 99.8631L60.6049 90.2155L62.359 84.076L63.6746 79.6907L64.5516 78.3751Z" fill="#1B485A"/>
<path d="M72.0074 20.9276L74.6386 21.8047L75.0771 22.6817V21.3661L76.8312 21.8047L78.1468 23.5588L78.5853 24.8744V26.6285H77.7083L77.2697 27.9441L76.3927 28.3826V29.6982H75.0771V30.5753L77.7083 31.0138L77.2697 32.3294L75.0771 32.7679L74.2 31.0138H73.323L72.0074 27.9441L71.5688 25.7515L67.6221 24.4359V23.1203L69.8147 23.5588L68.9377 22.2432L72.0074 20.9276ZM70.6918 21.8047V23.1203L71.1303 23.5588H73.7615L72.0074 21.8047H70.6918ZM75.5156 22.2432L76.3927 25.7515H77.2697L76.8312 22.6817L75.5156 22.2432Z" fill="#1B485A"/>
<path d="M105.335 114.335L107.528 114.773L108.405 115.212V116.089H110.159L110.598 119.597L108.844 120.474V121.351L104.02 123.982L98.319 125.298H96.1263L94.3722 126.175H93.4951L94.3722 124.421H97.4419V123.544L103.143 121.351H104.02L104.458 120.036L105.774 118.281L104.897 115.212L105.335 114.335Z" fill="#1B485A"/>
<path d="M4.03445 114.773H6.2271L6.66564 116.966L7.10417 119.597L7.98123 121.351L10.1739 121.79L11.4895 123.105L17.1904 124.421L17.6289 125.298L15.4363 125.736L11.928 124.859L7.10417 123.105L2.71886 120.913L1.8418 118.72L2.28033 116.527L4.03445 114.773Z" fill="#1B485A"/>
<path d="M27.2773 117.404L30.7856 119.159L39.1177 120.913L54.4663 122.228V122.667L50.958 123.105L56.2204 123.544V123.982H47.0112L37.8021 123.105L33.4168 122.228L33.8553 121.351L35.1709 120.913L30.7856 120.474L27.2773 118.72V117.404Z" fill="#1B485A"/>
<path d="M70.6913 59.5183L71.5684 59.9568V61.2724L69.8142 62.1495H67.6216V63.0266L63.6748 64.3421L57.5354 65.2192H53.1501L46.5721 63.9036L40.8712 61.711L39.9941 60.3954L41.7483 59.9568L47.0106 62.588L53.1501 63.4651V64.3421L61.4821 63.0266H64.5519L64.9904 62.1495L68.9372 60.3954L70.6913 59.5183Z" fill="#1B485A"/>
<path d="M83.4086 44.6084L83.8471 45.924L81.6545 50.3093L82.9701 51.1864L82.093 53.379L76.8306 58.6414L73.3224 59.957L72.4453 58.6414L74.1994 57.7643L75.515 56.4487L76.8306 54.2561L80.3389 50.3093L83.4086 44.6084Z" fill="#1B485A"/>
<path d="M23.7686 26.1899L25.0842 26.6285V36.7147L26.8383 42.4156L26.3998 43.2926H27.2769L29.031 48.1165L29.4695 50.3091L28.1539 49.8706L27.7154 47.6779H26.8383L25.9613 45.0468V43.2926H25.0842L23.7686 39.3459L23.3301 31.8908L23.7686 26.1899Z" fill="#1B485A"/>
<path d="M46.5724 75.744L47.888 77.0596L50.0806 82.322L50.9577 84.5146L51.3962 90.6541L51.8347 95.0394V100.74L50.9577 99.4247L49.6421 88.8999L49.2036 84.5146L46.1338 78.3752L45.6953 76.6211H46.5724V75.744Z" fill="#1B485A"/>
<path d="M54.9039 4.26343H57.5351L58.8507 5.14049L59.2892 7.77167L57.9736 9.96433L58.8507 11.2799V12.5955L56.658 13.034L55.3424 12.5955L54.4654 15.6652L52.7113 16.1038L51.3957 13.9111L51.8342 10.8414L52.2727 9.96433L50.5186 9.5258L50.0801 8.2102L51.3957 6.89461L54.9039 4.26343ZM54.9039 5.14049L52.2727 7.33314L51.8342 8.64874L52.7113 10.4029L52.2727 14.7882L53.5883 15.6652L55.3424 12.5955L57.9736 11.7185L57.5351 10.4029H56.658V8.64874L57.9736 8.2102V6.01755H57.0966V5.14049H54.9039Z" fill="#1B485A"/>
<path d="M63.2363 111.265H69.8143L79.9005 112.581L83.8473 113.896L83.4087 115.212L79.9005 114.773L73.7611 113.458L63.2363 112.142V111.265Z" fill="#1B485A"/>
<path d="M29.4697 50.3092L31.2238 50.7477L33.4165 54.256H34.7321L36.4862 57.3257L38.6789 58.2028L39.5559 58.6413V59.5183L36.9248 59.9569L32.1009 56.0101L29.4697 52.9404V50.3092Z" fill="#1B485A"/>
<path d="M60.166 0.755249H63.2357L70.6908 3.38643L74.199 5.57909L75.0761 8.21027L72.0063 6.89468L69.3752 5.57909V4.70203L64.1128 3.82496L63.6743 2.50937L62.3587 1.63231L60.166 1.19378V0.755249Z" fill="#1B485A"/>
<path d="M81.2158 12.5955L83.4085 14.7881L85.6011 18.2964L87.7938 24.4358L88.6708 28.8211V38.0302L87.3553 43.7311L86.4782 44.6082L87.3553 39.7844L87.7938 35.3991L87.3553 27.067L84.7241 19.1734L82.9699 16.1037L81.2158 13.4725V12.5955Z" fill="#1B485A"/>
<path d="M41.7485 111.265H47.4494L47.0109 112.142L33.8549 114.335L30.7852 114.773L30.3467 113.896H31.2237V113.019L34.2935 112.142L41.7485 111.265Z" fill="#1B485A"/>
<path d="M72.0072 20.9276L74.6384 21.8047L75.0769 22.6817V21.3661L76.8311 21.8047L78.1466 23.5588L78.5852 24.8744V26.6285H77.7081V27.5056H76.8311V26.6285H75.954L75.5155 23.5588H74.6384L74.1999 25.7515L72.8843 24.8744V23.9973L69.8146 23.5588L68.9375 22.2432L72.0072 20.9276ZM70.6916 21.8047V23.1203L71.1302 23.5588H73.7613L72.0072 21.8047H70.6916ZM75.5155 22.2432L76.3925 25.7515H77.2696L76.8311 22.6817L75.5155 22.2432Z" fill="#1B485A"/>
<path d="M40.4327 59.9569L42.1868 60.3954L46.1336 62.1496L47.0106 62.5881L53.1501 63.4652V64.3422H56.2198V64.7807L53.1501 65.2193L46.5721 63.9037L40.8712 61.711L39.9941 60.3954L40.4327 59.9569Z" fill="#1B485A"/>
<path d="M78.5851 28.3827L79.0236 29.2598L81.6548 30.1368L82.9704 31.4524L83.8474 34.5221L84.286 34.9607L85.163 32.768L86.4786 33.2065L86.9172 36.2762L84.7245 44.1698L83.8474 44.6083L84.7245 40.6616L85.6016 35.8377V34.5221L83.8474 37.1533L82.5318 36.7148L82.0933 32.3295L80.3392 30.5753L77.708 29.2598L78.5851 28.3827Z" fill="#1B485A"/>
<path d="M41.748 65.6578L43.9407 66.0964L52.7113 68.289L52.2728 70.0431H48.7645L47.4489 69.1661H48.326V68.289L44.3792 67.8505L41.748 66.0964V65.6578Z" fill="#1B485A"/>
<path d="M42.1866 9.52588L43.9407 10.8415L44.8178 9.96441L47.0104 10.4029L48.326 12.1571L47.8875 14.3497H46.5719L46.1334 13.0341L43.9407 13.9112L42.6251 14.7882L43.5022 12.1571L42.6251 11.7185V10.4029L41.748 9.96441L42.1866 9.52588Z" fill="#1B485A"/>
<path d="M26.3997 114.773L27.7153 115.212L27.2767 118.72L30.3465 119.597L30.785 120.474L29.4694 120.913L24.6456 118.72L24.207 116.527L25.0841 115.65H26.3997V114.773Z" fill="#1B485A"/>
<path d="M54.4655 122.228H59.2894V123.105L61.0435 122.667L60.605 123.982L49.2032 123.544L48.7646 122.667H52.2729L54.4655 122.228Z" fill="#1B485A"/>
<path d="M71.1297 64.7806L72.0068 65.6577L65.4288 78.3751L64.5518 76.621L64.9903 75.7439H65.8674L66.7444 73.5513L69.3756 68.2889V67.4118H70.2527V66.0962L68.9371 65.6577L71.1297 64.7806Z" fill="#1B485A"/>
<path d="M29.4697 50.3092L31.2238 50.7477L32.1009 52.9404L33.855 56.4486L34.7321 56.8872L34.2936 57.7642L31.2238 55.133L29.4697 52.9404V50.3092Z" fill="#1B485A"/>
<path d="M28.1537 16.9808L29.0308 18.735L27.2766 23.1203H26.3996V22.2432H25.084L25.5225 20.4891H26.8381L27.2766 17.8579L28.1537 16.9808Z" fill="#1B485A"/>
<path d="M60.166 0.755249H63.2357L67.1825 2.07084L67.621 3.82496L65.4284 4.2635L64.1128 3.82496L63.6743 2.50937L62.3587 1.63231L60.166 1.19378V0.755249Z" fill="#1B485A"/>
<path d="M25.084 118.72L29.9078 120.474H32.9775L35.1702 120.913L34.7317 121.79L32.539 122.228L26.8381 120.474L25.084 119.597V118.72Z" fill="#1B485A"/>
<path d="M77.2692 54.6945L78.1462 56.4486L75.9536 58.2027L74.638 59.5183L73.3224 59.9568L72.4453 58.6412L74.1994 57.7642L76.3921 55.5715L77.2692 54.6945Z" fill="#1B485A"/>
<path d="M70.691 59.5183L71.568 59.9568V61.2724L69.8139 62.1495H67.6213V63.0266L66.3057 63.4651V62.1495L69.8139 59.9568L70.691 59.5183Z" fill="#1B485A"/>
<path d="M75.0773 42.4156L76.3929 42.8542L75.0773 46.801L73.7617 47.2395L74.2002 43.2927L75.0773 42.4156Z" fill="#1B485A"/>
<path d="M85.6008 116.089L87.3549 116.527L86.9164 118.72L84.7237 119.597H83.8467V118.72H84.7237L85.1623 116.527L85.6008 116.089Z" fill="#1B485A"/>
<path d="M34.7314 57.7643H38.2397L39.5553 58.6413V59.5184L36.9241 59.9569L34.7314 57.7643Z" fill="#1B485A"/>
<path d="M45.6946 17.4194L47.0101 18.2965L46.5716 21.3662L44.8175 21.8047V20.9277L43.9404 20.4891L45.256 20.0506L44.8175 18.2965L45.6946 17.4194Z" fill="#1B485A"/>
<path d="M39.5557 64.7806L41.7483 65.2192L41.3098 67.8504L42.1868 68.7274L42.6254 71.7971L41.7483 71.3586L39.5557 65.2192V64.7806Z" fill="#1B485A"/>
<path d="M100.072 112.142L102.704 112.581L105.335 113.458V114.335L104.019 114.773L100.949 113.458L99.6338 112.581L100.072 112.142Z" fill="#1B485A"/>
<path d="M30.3467 53.3789L32.1008 53.8174L33.8549 56.0101L34.732 57.7642L32.5393 56.4486L30.3467 53.8174V53.3789Z" fill="#1B485A"/>
<path d="M85.6009 44.6084H86.478L86.0394 46.8011L83.8468 50.7478L82.9697 49.8708L84.7238 46.8011L85.6009 44.6084Z" fill="#1B485A"/>
<path d="M75.0773 30.5753L77.7084 31.0138L77.2699 32.3294L75.0773 32.768L74.2002 31.4524L75.0773 30.5753Z" fill="#1B485A"/>
<path d="M48.7648 68.2889L52.7116 68.7275L52.2731 70.0431H48.7648L47.4492 69.166L48.7648 68.2889Z" fill="#1B485A"/>
<path d="M61.0431 16.1038L62.7972 16.9808L61.9201 18.7349H60.166L60.6045 16.5423L61.0431 16.1038Z" fill="#1B485A"/>
<path d="M75.9541 7.33313L77.7082 8.21019L81.2165 11.7184L80.7779 12.5955L76.3926 8.21019L75.9541 7.33313Z" fill="#1B485A"/>
</svg>
