<svg width="24" height="24" viewBox="0 0 24 24" fill="none" xmlns="http://www.w3.org/2000/svg">
<path d="M21.9991 11.05C21.9991 10.94 21.9991 10.83 21.9991 10.72L21.9091 10.12L21.8191 9.73C21.8191 9.56 21.7391 9.39 21.6891 9.22C21.6391 9.05 21.6091 8.95 21.5591 8.82C21.5312 8.74141 21.5078 8.66128 21.4891 8.58C21.4891 8.58 21.4891 8.58 21.4891 8.53C20.9828 7.18302 20.1944 5.9598 19.1769 4.94226C18.1593 3.92472 16.9361 3.13637 15.5891 2.63C15.5891 2.63 15.5891 2.63 15.5391 2.63L15.3091 2.56L14.8891 2.43C14.7391 2.43 14.5791 2.35 14.4291 2.31L13.9691 2.21L13.5091 2.14C13.3491 2.14 13.1991 2.14 13.0291 2.08C12.8591 2.02 12.6791 2.08 12.5091 2.08L11.9991 2H11.6091C11.4391 2 11.2591 2 11.0891 2C10.9191 2 10.7691 2 10.6091 2.06L10.1491 2.13L9.68914 2.23C9.53914 2.23 9.37914 2.3 9.22914 2.35L8.80914 2.48L8.57914 2.55C8.57914 2.55 8.57914 2.55 8.52914 2.55C7.18216 3.05637 5.95894 3.84472 4.9414 4.86226C3.92386 5.8798 3.13551 7.10302 2.62914 8.45C2.62914 8.45 2.62914 8.45 2.62914 8.5C2.61044 8.58128 2.58707 8.66141 2.55914 8.74C2.55914 8.87 2.46914 9 2.42914 9.14C2.38914 9.28 2.33914 9.48 2.29914 9.65L2.20914 10.04L2.11914 10.64C2.11914 10.75 2.11914 10.86 2.11914 10.97C2.11914 11.28 2.11914 11.6 2.11914 11.92C2.11914 12.24 2.11914 12.56 2.11914 12.87C2.11914 12.98 2.11914 13.09 2.11914 13.2L2.20914 13.8L2.29914 14.19C2.29914 14.36 2.37914 14.53 2.42914 14.7C2.47914 14.87 2.50914 14.97 2.55914 15.1C2.58707 15.1786 2.61044 15.2587 2.62914 15.34C2.63104 15.3633 2.63104 15.3867 2.62914 15.41C3.1311 16.7556 3.917 17.9772 4.93337 18.9919C5.94974 20.0065 7.17273 20.7903 8.51914 21.29C8.51914 21.29 8.51914 21.29 8.56914 21.29L8.80914 21.36L9.20914 21.49L9.71914 21.62L10.1091 21.71L10.7091 21.8H11.0391C11.3491 21.8 11.6691 21.85 11.9891 21.85C12.3091 21.85 12.6291 21.85 12.9391 21.8H13.2691L13.8691 21.71L14.2591 21.62L14.7691 21.49L15.1691 21.36L15.4091 21.29C15.4091 21.29 15.4091 21.29 15.4591 21.29C16.8056 20.7903 18.0285 20.0065 19.0449 18.9919C20.0613 17.9772 20.8472 16.7556 21.3491 15.41C21.3472 15.3867 21.3472 15.3633 21.3491 15.34C21.3491 15.26 21.3991 15.18 21.4191 15.1C21.4391 15.02 21.5091 14.84 21.5491 14.7C21.5891 14.56 21.6391 14.36 21.6791 14.19L21.7691 13.8L21.8591 13.2C21.8591 13.09 21.8591 12.98 21.8591 12.87C21.8591 12.56 21.9091 12.24 21.9091 11.92C21.9091 11.6 21.9991 11.36 21.9991 11.05ZM15.6991 4.89C17.1855 5.65365 18.3955 6.8636 19.1591 8.35L16.2991 9.35C15.8846 8.68553 15.3236 8.12458 14.6591 7.71L15.6991 4.89ZM10.3391 4.19C10.5491 4.14 10.7491 4.11 10.9491 4.08H11.1891C11.7609 4.02 12.3374 4.02 12.9091 4.08H13.1491C13.3491 4.08 13.5491 4.14 13.7591 4.19H13.8191L12.8191 7.05C12.5479 7.00831 12.2734 6.99157 11.9991 7C11.7546 6.99968 11.5104 7.01975 11.2691 7.06L10.2691 4.2L10.3391 4.19ZM8.39914 4.89L9.39914 7.75C8.73103 8.16338 8.16657 8.72442 7.74914 9.39L4.88914 8.39C5.64604 6.88874 6.85668 5.66411 8.34914 4.89H8.39914ZM4.18914 13.71C4.14125 13.5127 4.10782 13.3122 4.08914 13.11C4.08914 13.02 4.08914 12.94 4.08914 12.86C4.02247 12.2886 4.02247 11.7114 4.08914 11.14C4.08914 11.06 4.08914 10.98 4.08914 10.89C4.10782 10.6878 4.14125 10.4873 4.18914 10.29C4.18914 10.29 4.18914 10.29 4.18914 10.23L7.04914 11.23C6.96913 11.7134 6.96913 12.2066 7.04914 12.69L4.18914 13.69C4.18914 13.69 4.18914 13.73 4.18914 13.71ZM8.34914 19.11C6.86274 18.3463 5.65279 17.1364 4.88914 15.65L7.74914 14.65C8.16372 15.3145 8.72467 15.8754 9.38914 16.29L8.34914 19.11ZM13.7091 19.81C13.4991 19.86 13.2991 19.89 13.0991 19.92H12.8591C12.2874 19.98 11.7109 19.98 11.1391 19.92H10.8991C10.6991 19.92 10.4991 19.86 10.2891 19.81H10.2291L11.2291 16.95C11.7125 17.03 12.2058 17.03 12.6891 16.95L13.6891 19.81H13.7091ZM13.0391 14.81C12.8691 14.87 12.6991 14.91 12.5391 14.95C12.2087 15.0116 11.8696 15.0116 11.5391 14.95C11.3791 14.95 11.2091 14.87 11.0391 14.81C10.6171 14.6643 10.2329 14.4261 9.91454 14.113C9.59622 13.7999 9.35181 13.4196 9.19914 13C9.13861 12.8341 9.09179 12.6635 9.05914 12.49C8.99519 12.1597 8.99519 11.8203 9.05914 11.49C9.08957 11.3235 9.13304 11.1597 9.18914 11C9.3399 10.5853 9.58028 10.209 9.89314 9.89788C10.206 9.58675 10.5836 9.34846 10.9991 9.2C11.1691 9.14 11.3391 9.1 11.4991 9.06C11.8296 8.99843 12.1687 8.99843 12.4991 9.06C12.6591 9.06 12.8291 9.14 12.9991 9.2C13.4128 9.34971 13.7885 9.58855 14.0995 9.89962C14.4106 10.2107 14.6494 10.5863 14.7991 11C14.8597 11.1659 14.9065 11.3365 14.9391 11.51C15.0031 11.8403 15.0031 12.1797 14.9391 12.51C14.9065 12.6835 14.8597 12.8541 14.7991 13.02C14.647 13.43 14.407 13.8017 14.0961 14.1092C13.7852 14.4166 13.4108 14.6524 12.9991 14.8L13.0391 14.81ZM15.6491 19.12L14.6491 16.26C15.3136 15.8454 15.8746 15.2845 16.2891 14.62L19.1491 15.62C18.3801 17.1236 17.1549 18.3453 15.6491 19.11V19.12ZM19.9991 12.86C19.9991 12.94 19.9991 13.02 19.9991 13.11C19.9805 13.3122 19.947 13.5127 19.8991 13.71C19.8991 13.71 19.8991 13.71 19.8991 13.77L17.0391 12.77C17.1192 12.2866 17.1192 11.7934 17.0391 11.31L19.8991 10.31C19.8991 10.31 19.8991 10.31 19.8991 10.37C19.947 10.5673 19.9805 10.7678 19.9991 10.97C19.9991 11.06 19.9991 11.14 19.9991 11.22C20.0658 11.7914 20.0658 12.3686 19.9991 12.94V12.86Z" fill="#404040"/>
</svg>
