<svg width="24" height="24" viewBox="0 0 24 24" fill="none" xmlns="http://www.w3.org/2000/svg">
    <g clip-path="url(#clip0_2934_215)">
    <path fill-rule="evenodd" clip-rule="evenodd" d="M12 2C6.47715 2 2 6.47715 2 12C2 17.5228 6.47715 22 12 22C17.5228 22 22 17.5228 22 12C22 6.47715 17.5228 2 12 2ZM4 12C4 10.1513 4.62708 8.44904 5.68014 7.09436L7.8284 9.24261C7.30488 10.033 7 10.9809 7 12C7 13.0191 7.30488 13.967 7.8284 14.7574L5.68014 16.9056C4.62708 15.551 4 13.8487 4 12ZM7.09436 18.3199C8.44904 19.3729 10.1513 20 12 20C13.8487 20 15.551 19.3729 16.9056 18.3199L14.7574 16.1716C13.967 16.6951 13.0191 17 12 17C10.9809 17 10.033 16.6951 9.24261 16.1716L7.09436 18.3199ZM9.24261 7.8284L7.09436 5.68014C8.44904 4.62708 10.1513 4 12 4C13.8487 4 15.551 4.62708 16.9056 5.68014L14.7574 7.8284C13.967 7.30488 13.0191 7 12 7C10.9809 7 10.033 7.30488 9.24261 7.8284ZM16.1716 9.24261C16.6951 10.033 17 10.9809 17 12C17 13.0191 16.6951 13.967 16.1716 14.7574L18.3199 16.9056C19.3729 15.551 20 13.8487 20 12C20 10.1513 19.3729 8.44904 18.3199 7.09436L16.1716 9.24261ZM9 12C9 10.3431 10.3431 9 12 9C13.6569 9 15 10.3431 15 12C15 13.6569 13.6569 15 12 15C10.3431 15 9 13.6569 9 12Z" fill="black"/>
    </g>
    <defs>
    <clipPath id="clip0_2934_215">
    <rect width="20" height="20" fill="white" transform="translate(2 2)"/>
    </clipPath>
    </defs>
    </svg>
    