<svg width="20" height="20" viewBox="0 0 20 20" fill="none" xmlns="http://www.w3.org/2000/svg">
<g clip-path="url(#clip0_5520_1357)">
<path d="M4 10C4 10.5523 4.44772 11 5 11H16.5858L12.2929 15.2929C11.9024 15.6834 11.9024 16.3166 12.2929 16.7071C12.6834 17.0976 13.3166 17.0976 13.7071 16.7071L19.7059 10.7083C19.7099 10.7043 19.714 10.7002 19.718 10.6961C19.8077 10.6036 19.876 10.498 19.923 10.3856C19.9726 10.2669 20 10.1367 20 10C20 9.72718 19.8907 9.47987 19.7136 9.29945C19.7112 9.29702 19.7088 9.2946 19.7064 9.2922L13.7071 3.29289C13.3166 2.90237 12.6834 2.90237 12.2929 3.29289C11.9024 3.68342 11.9024 4.31658 12.2929 4.70711L16.5858 9H5C4.44772 9 4 9.44772 4 10Z" fill="#404040"/>
<path d="M5 19C5 18.4477 4.55229 18 4 18H2L2 2L4 2C4.55229 2 5 1.55228 5 1C5 0.447716 4.55229 1.55275e-07 4 1.31134e-07L1 0C0.447717 -2.41411e-08 8.10946e-07 0.447716 7.86805e-07 1L0 19C-2.41411e-08 19.5523 0.447716 20 1 20H4C4.55229 20 5 19.5523 5 19Z" fill="#404040"/>
</g>
<defs>
<clipPath id="clip0_5520_1357">
<rect width="20" height="20" fill="white" transform="matrix(4.37114e-08 -1 -1 -4.37114e-08 20 20)"/>
</clipPath>
</defs>
</svg>
