<svg width="17" height="20" viewBox="0 0 17 20" fill="none" xmlns="http://www.w3.org/2000/svg">
    <path fill-rule="evenodd" clip-rule="evenodd" d="M8.72754 11C7.46808 11 6.22754 12.2135 6.22754 14C6.22754 14.5523 5.77983 15 5.22754 15C4.67526 15 4.22754 14.5523 4.22754 14C4.22754 12.2866 5.03004 10.685 6.30934 9.7758C5.94361 9.27862 5.72754 8.66455 5.72754 8C5.72754 6.34315 7.07069 5 8.72754 5C10.3844 5 11.7275 6.34315 11.7275 8C11.7275 8.66455 11.5115 9.27862 11.1457 9.7758C12.425 10.685 13.2275 12.2866 13.2275 14C13.2275 14.5523 12.7798 15 12.2275 15C11.6753 15 11.2275 14.5523 11.2275 14C11.2275 12.2135 9.987 11 8.72754 11ZM8.72754 9C9.27983 9 9.72754 8.55228 9.72754 8C9.72754 7.44772 9.27983 7 8.72754 7C8.17526 7 7.72754 7.44772 7.72754 8C7.72754 8.55228 8.17526 9 8.72754 9Z" fill="#4095DB"/>
    <path fill-rule="evenodd" clip-rule="evenodd" d="M16.7275 18C16.7275 19.1046 15.8321 20 14.7275 20L2.72754 20C1.62297 20 0.727539 19.1046 0.727539 18V2C0.727539 0.895432 1.62297 0 2.72754 0H14.7275C15.8321 1.91649e-06 16.7275 0.895432 16.7275 2L16.7275 18ZM14.7275 18L14.7275 2L2.72754 2L2.72754 18L14.7275 18Z" fill="#4095DB"/>
    </svg>
    