<svg width="24" height="24" viewBox="0 0 24 24" fill="none" xmlns="http://www.w3.org/2000/svg">
    <path fill-rule="evenodd" clip-rule="evenodd" d="M12 13C10.7405 13 9.5 14.2135 9.5 16C9.5 16.5523 9.05229 17 8.5 17C7.94772 17 7.5 16.5523 7.5 16C7.5 14.2866 8.3025 12.685 9.5818 11.7758C9.21608 11.2786 9 10.6645 9 10C9 8.34315 10.3431 7 12 7C13.6569 7 15 8.34315 15 10C15 10.6645 14.7839 11.2786 14.4182 11.7758C15.6975 12.685 16.5 14.2866 16.5 16C16.5 16.5523 16.0523 17 15.5 17C14.9477 17 14.5 16.5523 14.5 16C14.5 14.2135 13.2595 13 12 13ZM12 11C12.5523 11 13 10.5523 13 10C13 9.44772 12.5523 9 12 9C11.4477 9 11 9.44772 11 10C11 10.5523 11.4477 11 12 11Z" fill="black"/>
    <path fill-rule="evenodd" clip-rule="evenodd" d="M20 20C20 21.1046 19.1046 22 18 22L6 22C4.89543 22 4 21.1046 4 20V4C4 2.89543 4.89543 2 6 2H18C19.1046 2 20 2.89543 20 4L20 20ZM18 20L18 4L6 4L6 20L18 20Z" fill="black"/>
    </svg>
    