<svg width="24" height="24" viewBox="0 0 24 24" fill="none" xmlns="http://www.w3.org/2000/svg">
    <g clip-path="url(#clip0_2934_210)">
    <path fill-rule="evenodd" clip-rule="evenodd" d="M13.3344 11.7259C14.3567 10.8104 15 9.48032 15 8C15 5.23858 12.7614 3 10 3C7.23858 3 5 5.23858 5 8C5 9.48032 5.6433 10.8104 6.66559 11.7259C3.91213 12.9901 2 15.7718 2 19C2 19.5523 2.44772 20 3 20C3.55228 20 4 19.5523 4 19C4 15.6863 6.68629 13 10 13C13.3137 13 16 15.6863 16 19C16 19.5523 16.4477 20 17 20C17.5523 20 18 19.5523 18 19C18 15.7718 16.0879 12.9901 13.3344 11.7259ZM7 8C7 6.34315 8.34315 5 10 5C11.6569 5 13 6.34315 13 8C13 9.65685 11.6569 11 10 11C8.34315 11 7 9.65685 7 8Z" fill="black"/>
    <path d="M19 8C19.5523 8 20 8.44772 20 9V10H21C21.5523 10 22 10.4477 22 11C22 11.5523 21.5523 12 21 12H20V13C20 13.5523 19.5523 14 19 14C18.4477 14 18 13.5523 18 13V12H17C16.4477 12 16 11.5523 16 11C16 10.4477 16.4477 10 17 10H18V9C18 8.44772 18.4477 8 19 8Z" fill="black"/>
    </g>
    <defs>
    <clipPath id="clip0_2934_210">
    <rect width="20" height="20" fill="white" transform="translate(2 2)"/>
    </clipPath>
    </defs>
    </svg>
    