<svg width="85" height="87" viewBox="0 0 85 87" fill="none" xmlns="http://www.w3.org/2000/svg">
<path opacity="0.2" d="M38.6864 1.80713C40.6579 -0.602376 44.3421 -0.602376 46.3136 1.80713L48.3412 4.28512C49.7677 6.02861 52.1951 6.58263 54.2368 5.63077L57.1388 4.2779C59.9605 2.96242 63.2798 4.56093 64.0107 7.58723L64.7623 10.6995C65.2911 12.8894 67.2377 14.4417 69.4902 14.47L72.6918 14.5102C75.8048 14.5493 78.1019 17.4297 77.4473 20.4734L76.7741 23.6036C76.3004 25.806 77.3807 28.0492 79.3979 29.052L82.2649 30.4773C85.0527 31.8633 85.8725 35.4551 83.9622 37.9133L81.9975 40.4415C80.6151 42.2202 80.6151 44.71 81.9975 46.4888L83.9622 49.0169C85.8725 51.4751 85.0527 55.067 82.2649 56.4529L79.3979 57.8782C77.3807 58.8811 76.3004 61.1242 76.7741 63.3266L77.4473 66.4568C78.1019 69.5005 75.8048 72.3809 72.6918 72.42L69.4902 72.4602C67.2377 72.4885 65.2911 74.0409 64.7623 76.2307L64.0107 79.343C63.2798 82.3693 59.9605 83.9678 57.1388 82.6523L54.2368 81.2995C52.1951 80.3476 49.7677 80.9016 48.3412 82.6451L46.3136 85.1231C44.3421 87.5326 40.6579 87.5326 38.6864 85.1231L36.6588 82.6451C35.2323 80.9016 32.8049 80.3476 30.7632 81.2995L27.8612 82.6523C25.0395 83.9678 21.7202 82.3693 20.9893 79.343L20.2377 76.2307C19.7089 74.0409 17.7623 72.4885 15.5098 72.4602L12.3082 72.42C9.19518 72.3809 6.89812 69.5005 7.55273 66.4568L8.22593 63.3266C8.6996 61.1242 7.61934 58.8811 5.60211 57.8782L2.73508 56.4529C-0.0527227 55.067 -0.872532 51.4751 1.03786 49.0169L3.00255 46.4888C4.38489 44.71 4.38489 42.2202 3.00255 40.4415L1.03786 37.9133C-0.872532 35.4551 -0.0527231 31.8633 2.73508 30.4773L5.60211 29.052C7.61934 28.0492 8.6996 25.806 8.22593 23.6036L7.55273 20.4734C6.89812 17.4297 9.19517 14.5493 12.3082 14.5102L15.5098 14.47C17.7623 14.4417 19.7089 12.8894 20.2377 10.6995L20.9893 7.58723C21.7202 4.56093 25.0395 2.96242 27.8612 4.2779L30.7632 5.63077C32.8049 6.58263 35.2323 6.02861 36.6588 4.28512L38.6864 1.80713Z" fill="#205E5E"/>
<path d="M51.9002 38.5897L50.9002 34.7197C50.7984 34.3354 50.6211 33.9752 50.3788 33.6599C50.1365 33.3447 49.8339 33.0808 49.4887 32.8836C49.1435 32.6863 48.7626 32.5596 48.368 32.5109C47.9734 32.4622 47.573 32.4924 47.1902 32.5997L45.2602 33.1197C45.1325 33.1534 45.0128 33.212 44.9079 33.2921C44.8029 33.3723 44.7149 33.4724 44.6489 33.5868C44.5829 33.7012 44.5402 33.8274 44.5233 33.9584C44.5063 34.0893 44.5155 34.2223 44.5502 34.3497L44.8102 35.3497L34.1902 38.1597C33.9345 38.2278 33.7163 38.3944 33.5832 38.6231C33.4501 38.8517 33.4131 39.1238 33.4802 39.3797L33.7402 40.3797L32.7402 40.6397C32.475 40.6729 32.2338 40.81 32.0697 41.021C31.9056 41.232 31.8321 41.4995 31.8652 41.7647C31.8984 42.03 32.0355 42.2711 32.2465 42.4352C32.4575 42.5993 32.725 42.6729 32.9902 42.6397C33.0766 42.6501 33.1639 42.6501 33.2502 42.6397L34.2502 42.3697L34.5102 43.3697C34.5791 43.6222 34.7443 43.8376 34.9702 43.9697C35.1216 44.0596 35.2941 44.1079 35.4702 44.1097C35.5562 44.1249 35.6442 44.1249 35.7302 44.1097L39.0002 43.0797V43.4997C39.0009 43.9437 39.1035 44.3817 39.3002 44.7797L34.3002 49.7797C34.1119 49.9667 34.0056 50.2208 34.0047 50.4862C34.0037 50.7516 34.1082 51.0064 34.2952 51.1947C34.4822 51.383 34.7363 51.4894 35.0017 51.4903C35.267 51.4912 35.5219 51.3867 35.7102 51.1997L40.7102 46.1997L40.9902 46.3097V52.4997C40.9902 52.7649 41.0956 53.0193 41.2831 53.2068C41.4706 53.3944 41.725 53.4997 41.9902 53.4997C42.2554 53.4997 42.5098 53.3944 42.6973 53.2068C42.8849 53.0193 42.9902 52.7649 42.9902 52.4997V46.3197C43.0893 46.2858 43.1861 46.2457 43.2802 46.1997L48.2802 51.1997C48.4685 51.3867 48.7234 51.4912 48.9887 51.4903C49.2541 51.4894 49.5082 51.383 49.6952 51.1947C49.8822 51.0064 49.9867 50.7516 49.9858 50.4862C49.9848 50.2208 49.8785 49.9667 49.6902 49.7797L44.6902 44.7797C44.8843 44.3803 44.9901 43.9437 45.0002 43.4997V41.4997L46.3502 41.1397L46.6002 42.1397C46.6588 42.3579 46.7895 42.5498 46.9711 42.6842C47.1527 42.8185 47.3744 42.8875 47.6002 42.8797H47.8602L49.7902 42.3597C50.1803 42.2573 50.5457 42.0774 50.8647 41.8305C51.1836 41.5837 51.4495 41.2751 51.6465 40.9232C51.8434 40.5713 51.9674 40.1832 52.011 39.7823C52.0546 39.3814 52.0169 38.9758 51.9002 38.5897ZM43.0002 43.4997C42.9992 43.7572 42.8989 44.0044 42.7202 44.1897C42.5348 44.3684 42.2877 44.4687 42.0302 44.4697C41.7679 44.4686 41.5165 44.3645 41.3302 44.1797C41.1455 43.9935 41.0413 43.7421 41.0402 43.4797V42.4797L43.0002 41.9997V43.4997ZM36.1902 41.7597L35.6702 39.8297L45.3302 37.2397L45.5902 38.2397L45.8502 39.2397L36.1902 41.7597ZM49.8702 39.8597C49.8046 39.9745 49.717 40.0751 49.6123 40.1558C49.5076 40.2365 49.3879 40.2956 49.2602 40.3297L48.2602 40.5897L47.4802 37.6897L47.0002 35.7597L46.7402 34.7597L47.7402 34.4997C47.8676 34.465 48.0006 34.4559 48.1315 34.4728C48.2625 34.4897 48.3888 34.5325 48.5031 34.5985C48.6175 34.6645 48.7176 34.7525 48.7978 34.8574C48.878 34.9623 48.9366 35.0821 48.9702 35.2097L49.9702 39.0797C50.0071 39.2098 50.0173 39.3459 50.0001 39.48C49.9829 39.614 49.9387 39.7432 49.8702 39.8597Z" fill="#205E5E"/>
</svg>
